<svg width="163" height="152" viewBox="0 0 163 152" fill="none" xmlns="http://www.w3.org/2000/svg">
<path d="M4.512 125.32V135.952C4.512 137.216 4.84 138.168 5.496 138.808C6.168 139.448 7.096 139.768 8.28 139.768C9.48 139.768 10.408 139.448 11.064 138.808C11.736 138.168 12.072 137.216 12.072 135.952V125.32H14.808V135.904C14.808 137.264 14.512 138.416 13.92 139.36C13.328 140.304 12.536 141.008 11.544 141.472C10.552 141.936 9.456 142.168 8.256 142.168C7.056 142.168 5.96 141.936 4.968 141.472C3.992 141.008 3.216 140.304 2.64 139.36C2.064 138.416 1.776 137.264 1.776 135.904V125.32H4.512ZM21.1063 130.72C21.5703 130.112 22.2023 129.6 23.0023 129.184C23.8023 128.768 24.7063 128.56 25.7143 128.56C26.8663 128.56 27.9143 128.848 28.8583 129.424C29.8183 129.984 30.5703 130.776 31.1143 131.8C31.6583 132.824 31.9303 134 31.9303 135.328C31.9303 136.656 31.6583 137.848 31.1143 138.904C30.5703 139.944 29.8183 140.76 28.8583 141.352C27.9143 141.928 26.8663 142.216 25.7143 142.216C24.7063 142.216 23.8103 142.016 23.0263 141.616C22.2423 141.2 21.6023 140.688 21.1063 140.08V148.288H18.3703V128.776H21.1063V130.72ZM29.1463 135.328C29.1463 134.416 28.9543 133.632 28.5703 132.976C28.2023 132.304 27.7063 131.8 27.0823 131.464C26.4743 131.112 25.8183 130.936 25.1143 130.936C24.4263 130.936 23.7703 131.112 23.1463 131.464C22.5383 131.816 22.0423 132.328 21.6583 133C21.2903 133.672 21.1063 134.464 21.1063 135.376C21.1063 136.288 21.2903 137.088 21.6583 137.776C22.0423 138.448 22.5383 138.96 23.1463 139.312C23.7703 139.664 24.4263 139.84 25.1143 139.84C25.8183 139.84 26.4743 139.664 27.0823 139.312C27.7063 138.944 28.2023 138.416 28.5703 137.728C28.9543 137.04 29.1463 136.24 29.1463 135.328ZM37.3719 124.24V142H34.6359V124.24H37.3719ZM46.7001 142.216C45.4521 142.216 44.3241 141.936 43.3161 141.376C42.3081 140.8 41.5161 140 40.9401 138.976C40.3641 137.936 40.0761 136.736 40.0761 135.376C40.0761 134.032 40.3721 132.84 40.9641 131.8C41.5561 130.76 42.3641 129.96 43.3881 129.4C44.4121 128.84 45.5561 128.56 46.8201 128.56C48.0841 128.56 49.2281 128.84 50.2521 129.4C51.2761 129.96 52.0841 130.76 52.6761 131.8C53.2681 132.84 53.5641 134.032 53.5641 135.376C53.5641 136.72 53.2601 137.912 52.6521 138.952C52.0441 139.992 51.2121 140.8 50.1561 141.376C49.1161 141.936 47.9641 142.216 46.7001 142.216ZM46.7001 139.84C47.4041 139.84 48.0601 139.672 48.6681 139.336C49.2921 139 49.7961 138.496 50.1801 137.824C50.5641 137.152 50.7561 136.336 50.7561 135.376C50.7561 134.416 50.5721 133.608 50.2041 132.952C49.8361 132.28 49.3481 131.776 48.7401 131.44C48.1321 131.104 47.4761 130.936 46.7721 130.936C46.0681 130.936 45.4121 131.104 44.8041 131.44C44.2121 131.776 43.7401 132.28 43.3881 132.952C43.0361 133.608 42.8601 134.416 42.8601 135.376C42.8601 136.8 43.2201 137.904 43.9401 138.688C44.6761 139.456 45.5961 139.84 46.7001 139.84ZM55.3568 135.328C55.3568 134 55.6288 132.824 56.1728 131.8C56.7328 130.776 57.4848 129.984 58.4288 129.424C59.3888 128.848 60.4448 128.56 61.5968 128.56C62.6368 128.56 63.5408 128.768 64.3088 129.184C65.0928 129.584 65.7168 130.088 66.1808 130.696V128.776H68.9408V142H66.1808V140.032C65.7168 140.656 65.0848 141.176 64.2848 141.592C63.4848 142.008 62.5728 142.216 61.5488 142.216C60.4128 142.216 59.3728 141.928 58.4288 141.352C57.4848 140.76 56.7328 139.944 56.1728 138.904C55.6288 137.848 55.3568 136.656 55.3568 135.328ZM66.1808 135.376C66.1808 134.464 65.9888 133.672 65.6048 133C65.2368 132.328 64.7488 131.816 64.1408 131.464C63.5328 131.112 62.8768 130.936 62.1728 130.936C61.4688 130.936 60.8128 131.112 60.2048 131.464C59.5968 131.8 59.1008 132.304 58.7168 132.976C58.3488 133.632 58.1648 134.416 58.1648 135.328C58.1648 136.24 58.3488 137.04 58.7168 137.728C59.1008 138.416 59.5968 138.944 60.2048 139.312C60.8288 139.664 61.4848 139.84 62.1728 139.84C62.8768 139.84 63.5328 139.664 64.1408 139.312C64.7488 138.96 65.2368 138.448 65.6048 137.776C65.9888 137.088 66.1808 136.288 66.1808 135.376ZM71.6224 135.328C71.6224 134 71.8944 132.824 72.4384 131.8C72.9984 130.776 73.7504 129.984 74.6944 129.424C75.6544 128.848 76.7184 128.56 77.8864 128.56C78.7504 128.56 79.5984 128.752 80.4304 129.136C81.2784 129.504 81.9504 130 82.4464 130.624V124.24H85.2064V142H82.4464V140.008C81.9984 140.648 81.3744 141.176 80.5744 141.592C79.7904 142.008 78.8864 142.216 77.8624 142.216C76.7104 142.216 75.6544 141.928 74.6944 141.352C73.7504 140.76 72.9984 139.944 72.4384 138.904C71.8944 137.848 71.6224 136.656 71.6224 135.328ZM82.4464 135.376C82.4464 134.464 82.2544 133.672 81.8704 133C81.5024 132.328 81.0144 131.816 80.4064 131.464C79.7984 131.112 79.1424 130.936 78.4384 130.936C77.7344 130.936 77.0784 131.112 76.4704 131.464C75.8624 131.8 75.3664 132.304 74.9824 132.976C74.6144 133.632 74.4304 134.416 74.4304 135.328C74.4304 136.24 74.6144 137.04 74.9824 137.728C75.3664 138.416 75.8624 138.944 76.4704 139.312C77.0944 139.664 77.7504 139.84 78.4384 139.84C79.1424 139.84 79.7984 139.664 80.4064 139.312C81.0144 138.96 81.5024 138.448 81.8704 137.776C82.2544 137.088 82.4464 136.288 82.4464 135.376ZM106.698 130.288C106.698 131.136 106.498 131.936 106.098 132.688C105.698 133.44 105.058 134.056 104.178 134.536C103.298 135 102.17 135.232 100.794 135.232H97.7704V142H95.0344V125.32H100.794C102.074 125.32 103.154 125.544 104.034 125.992C104.93 126.424 105.594 127.016 106.026 127.768C106.474 128.52 106.698 129.36 106.698 130.288ZM100.794 133C101.834 133 102.61 132.768 103.122 132.304C103.634 131.824 103.89 131.152 103.89 130.288C103.89 128.464 102.858 127.552 100.794 127.552H97.7704V133H100.794ZM116.148 128.56C117.156 128.56 118.052 128.776 118.836 129.208C119.636 129.64 120.26 130.28 120.708 131.128C121.172 131.976 121.404 133 121.404 134.2V142H118.692V134.608C118.692 133.424 118.396 132.52 117.804 131.896C117.212 131.256 116.404 130.936 115.38 130.936C114.356 130.936 113.54 131.256 112.932 131.896C112.34 132.52 112.044 133.424 112.044 134.608V142H109.308V124.24H112.044V130.312C112.508 129.752 113.092 129.32 113.796 129.016C114.516 128.712 115.3 128.56 116.148 128.56ZM130.63 142.216C129.382 142.216 128.254 141.936 127.246 141.376C126.238 140.8 125.446 140 124.87 138.976C124.294 137.936 124.006 136.736 124.006 135.376C124.006 134.032 124.302 132.84 124.894 131.8C125.486 130.76 126.294 129.96 127.318 129.4C128.342 128.84 129.486 128.56 130.75 128.56C132.014 128.56 133.158 128.84 134.182 129.4C135.206 129.96 136.014 130.76 136.606 131.8C137.198 132.84 137.494 134.032 137.494 135.376C137.494 136.72 137.19 137.912 136.582 138.952C135.974 139.992 135.142 140.8 134.086 141.376C133.046 141.936 131.894 142.216 130.63 142.216ZM130.63 139.84C131.334 139.84 131.99 139.672 132.598 139.336C133.222 139 133.726 138.496 134.11 137.824C134.494 137.152 134.686 136.336 134.686 135.376C134.686 134.416 134.502 133.608 134.134 132.952C133.766 132.28 133.278 131.776 132.67 131.44C132.062 131.104 131.406 130.936 130.702 130.936C129.998 130.936 129.342 131.104 128.734 131.44C128.142 131.776 127.67 132.28 127.318 132.952C126.966 133.608 126.79 134.416 126.79 135.376C126.79 136.8 127.15 137.904 127.87 138.688C128.606 139.456 129.526 139.84 130.63 139.84ZM143.39 131.008V138.328C143.39 138.824 143.502 139.184 143.726 139.408C143.966 139.616 144.366 139.72 144.926 139.72H146.606V142H144.446C143.214 142 142.27 141.712 141.614 141.136C140.958 140.56 140.63 139.624 140.63 138.328V131.008H139.07V128.776H140.63V125.488H143.39V128.776H146.606V131.008H143.39ZM154.864 142.216C153.616 142.216 152.488 141.936 151.48 141.376C150.472 140.8 149.68 140 149.104 138.976C148.528 137.936 148.24 136.736 148.24 135.376C148.24 134.032 148.536 132.84 149.128 131.8C149.72 130.76 150.528 129.96 151.552 129.4C152.576 128.84 153.72 128.56 154.984 128.56C156.248 128.56 157.392 128.84 158.416 129.4C159.44 129.96 160.248 130.76 160.84 131.8C161.432 132.84 161.728 134.032 161.728 135.376C161.728 136.72 161.424 137.912 160.816 138.952C160.208 139.992 159.376 140.8 158.32 141.376C157.28 141.936 156.128 142.216 154.864 142.216ZM154.864 139.84C155.568 139.84 156.224 139.672 156.832 139.336C157.456 139 157.96 138.496 158.344 137.824C158.728 137.152 158.92 136.336 158.92 135.376C158.92 134.416 158.736 133.608 158.368 132.952C158 132.28 157.512 131.776 156.904 131.44C156.296 131.104 155.64 130.936 154.936 130.936C154.232 130.936 153.576 131.104 152.968 131.44C152.376 131.776 151.904 132.28 151.552 132.952C151.2 133.608 151.024 134.416 151.024 135.376C151.024 136.8 151.384 137.904 152.104 138.688C152.84 139.456 153.76 139.84 154.864 139.84Z" fill="#007BFF"/>
<path d="M68.6909 41.3167C72.4852 41.3167 75.5611 38.2408 75.5611 34.4465C75.5611 30.6522 72.4852 27.5763 68.6909 27.5763C64.8966 27.5763 61.8206 30.6522 61.8206 34.4465C61.8206 38.2408 64.8966 41.3167 68.6909 41.3167Z" fill="#007BFF"/>
<path d="M125.084 59.7329C121.84 56.6794 117.737 54.6756 113.252 54.1031V19.1794C113.252 15.458 111.725 12.1184 109.34 9.63743C106.859 7.15652 103.519 5.72522 99.7977 5.72522H44.4542C40.7328 5.72522 37.3931 7.25194 34.9122 9.63743C32.4313 12.1184 31 15.458 31 19.1794V63.168V67.271V76.1451C31 79.8664 32.5267 83.2061 34.9122 85.6871C37.3931 88.168 40.7328 89.5993 44.4542 89.5993H97.9847C101.515 92.4619 105.905 94.2748 110.771 94.2748C116.401 94.2748 121.458 91.9848 125.084 88.3588C128.71 84.7328 131 79.6756 131 74.0458C131 68.4161 128.71 63.3588 125.084 59.7329ZM36.0573 19.1794C36.0573 16.8893 37.0115 14.7901 38.5382 13.3588C40.0649 11.8321 42.1641 10.8779 44.4542 10.8779H99.7977C102.088 10.8779 104.187 11.8321 105.714 13.3588C107.24 14.8855 108.195 16.9848 108.195 19.2748V49.0458L94.0725 34.9237C93.1183 33.9695 91.4962 33.8741 90.4466 34.9237L69.1679 56.2977L54.7595 41.7939C53.8053 40.8397 52.1832 40.7443 51.1336 41.7939L36.0573 57.0611V19.1794ZM44.3588 84.7329V84.542C42.0687 84.542 39.9695 83.5878 38.4427 82.0611C37.0115 80.5344 36.0573 78.4352 36.0573 76.1451V67.271V64.313L52.9466 47.3283L67.355 61.7367C68.3092 62.6909 69.9313 62.6909 70.9809 61.7367L92.2595 40.3626L106.191 54.3893C105.905 54.4848 105.618 54.5802 105.332 54.6756C104.95 54.771 104.569 54.8664 104.092 55.0573C103.71 55.1527 103.328 55.3435 102.947 55.439C102.66 55.5344 102.469 55.6298 102.183 55.8206C101.802 56.0115 101.515 56.1069 101.229 56.2977C100.752 56.584 100.275 56.8703 99.7977 57.1565C99.5114 57.3474 99.3206 57.4428 99.0343 57.6336C98.8435 57.729 98.7481 57.8245 98.5573 57.9199C97.6985 58.4924 96.9351 59.1603 96.2672 59.9237C92.6412 63.5496 90.3511 68.6069 90.3511 74.2367C90.3511 75.668 90.542 77.0038 90.8282 78.4351C90.9237 78.8168 91.0191 79.1031 91.1145 79.4848C91.4008 80.439 91.687 81.3932 92.0687 82.3474V82.4428C92.4504 83.2061 92.8321 84.0649 93.3092 84.7329H44.3588ZM121.363 84.7329C118.595 87.5 114.874 89.1222 110.676 89.1222C106.668 89.1222 102.947 87.5 100.275 84.9237C99.8931 84.542 99.5115 84.0649 99.1298 83.6832C98.8435 83.397 98.5573 83.0153 98.271 82.729C97.8893 82.2519 97.6031 81.6794 97.3168 81.1069C97.126 80.7252 96.9351 80.439 96.7443 80.0573C96.5534 79.5802 96.3626 79.0077 96.2672 78.4351C96.1718 78.0535 95.9809 77.5764 95.8855 77.1947C95.6947 76.2405 95.5992 75.1909 95.5992 74.1413C95.5992 69.9428 97.3168 66.2214 99.9885 63.4542C102.66 60.6871 106.477 59.0649 110.676 59.0649C114.874 59.0649 118.595 60.7825 121.363 63.4542C124.13 66.2214 125.752 69.9428 125.752 74.1413C125.752 78.2443 124.034 81.9657 121.363 84.7329Z" fill="#007BFF"/>
<path d="M112.489 63.836C112.298 63.6452 112.011 63.4543 111.63 63.2635C111.344 63.1681 111.057 63.0726 110.771 63.0726C110.676 63.0726 110.676 63.0726 110.676 63.0726C110.58 63.0726 110.58 63.0726 110.58 63.0726C110.294 63.0726 110.008 63.1681 109.721 63.2635C109.435 63.3589 109.149 63.5497 108.863 63.836L102.947 69.752C101.992 70.7062 101.992 72.3284 102.947 73.378C103.901 74.3322 105.523 74.3322 106.573 73.378L108.099 71.8513V82.3474C108.099 83.7787 109.244 84.9238 110.676 84.9238C112.107 84.9238 113.252 83.7787 113.252 82.3474V71.8513L114.779 73.378C115.733 74.3322 117.355 74.3322 118.405 73.378C119.359 72.4238 119.359 70.8016 118.405 69.752L112.489 63.836Z" fill="#007BFF"/>
</svg>
