<svg width="346" height="346" viewBox="0 0 346 346" fill="none" xmlns="http://www.w3.org/2000/svg">
<circle opacity="0.2" cx="173" cy="173" r="173" fill="white"/>
<circle opacity="0.1" cx="167" cy="175" r="144" fill="white"/>
<path d="M155.683 92L70 112.27L81.3934 160.432L167.077 140.162L155.683 92Z" fill="#EDEDED"/>
<path d="M153.43 95.2587L73.4775 114.172L83.6684 157.251L163.621 138.337L153.43 95.2587Z" fill="#F2A2B1"/>
<g opacity="0.15">
<path opacity="0.15" d="M154.648 100.417L74.6953 119.331L83.6668 157.255L163.619 138.341L154.648 100.417Z" fill="#FFEED4"/>
</g>
<g opacity="0.15">
<path opacity="0.15" d="M156.75 109.29L76.7979 128.203L83.6694 157.251L163.622 138.337L156.75 109.29Z" fill="#FFEED4"/>
</g>
<g opacity="0.8">
<g opacity="0.8">
<path opacity="0.8" d="M70.1465 151.402C72.9444 147.996 76.958 144.297 79.756 140.891C80.6677 139.78 81.6632 138.612 83.0412 138.203C84.7179 137.705 86.4732 138.449 88.1813 138.832C91.5923 139.591 95.3124 138.811 98.1313 136.741C100.133 135.269 101.752 133.157 104.099 132.34C108.626 130.757 113.18 134.614 117.948 135.122C122.511 135.609 126.75 133.005 131.146 131.69C134.934 130.558 139.006 130.391 142.878 131.198C146.598 131.973 150.182 133.645 153.986 133.592C156.962 133.55 159.817 132.445 162.757 131.968C166.33 131.391 170.05 131.758 173.441 133.026L173.682 137.145L72.803 161.834L70.1465 151.402Z" fill="#2D3962"/>
</g>
</g>
<path d="M124.686 147.65C122.103 146.885 119.52 146.12 116.937 145.35C115.674 144.978 114.38 144.595 113.064 144.674C110.497 144.826 108.385 146.655 106.022 147.666C100.688 149.956 93.704 148.263 89.4861 152.245C87.7885 153.849 86.7824 156.217 84.7285 157.333L124.686 147.65Z" fill="#2D3962"/>
<path d="M93.906 123.515C95.0671 120.144 93.2758 116.47 89.905 115.309C86.5342 114.148 82.8603 115.939 81.6991 119.31C80.538 122.681 82.3293 126.355 85.7001 127.516C89.0709 128.677 92.7448 126.886 93.906 123.515Z" fill="#FFEED4"/>
<path d="M173.003 129.048L150.692 129.136L150.722 136.467L173.032 136.378L173.003 129.048Z" fill="#2D3962"/>
<path d="M138.314 133.064L123.114 133.125L123.126 136.033L138.326 135.972L138.314 133.064Z" fill="#2D3962"/>
<path d="M177.654 129.861L177.675 135.059C177.675 135.457 177.355 135.777 176.962 135.782L110.943 136.044C110.544 136.044 110.225 136.369 110.23 136.767L110.539 213.847C110.539 214.245 110.864 214.565 111.262 214.56L223.506 214.114C223.904 214.114 224.223 213.79 224.218 213.391L223.956 147.54L223.909 135.599L223.888 129.683C223.888 129.285 223.563 128.965 223.165 128.971L178.377 129.149C177.968 129.143 177.648 129.463 177.654 129.861Z" fill="#EDEDED"/>
<path d="M223.953 148.583L110.274 149.035L110.535 214.562L224.214 214.11L223.953 148.583Z" fill="#2D3962"/>
<path d="M110.534 214.56L110.508 208.094L224.187 207.639L224.213 214.109" fill="#EDEDED"/>
<path d="M153.582 138.531L136.553 138.599L136.588 147.444L153.617 147.376L153.582 138.531Z" fill="#2D3962"/>
<path d="M147.405 143.05C147.411 144.417 146.305 145.533 144.938 145.538C143.57 145.544 142.454 144.438 142.449 143.071C142.444 141.703 143.549 140.587 144.917 140.582C146.284 140.577 147.4 141.682 147.405 143.05Z" fill="#EDEDED"/>
<path d="M188.73 139.796C188.735 141.462 187.389 142.819 185.722 142.824C184.056 142.83 182.699 141.483 182.694 139.817C182.689 138.151 184.035 136.793 185.701 136.788C187.368 136.783 188.725 138.13 188.73 139.796Z" fill="#C64B63"/>
<path d="M202.936 188.214C208.529 171.921 199.856 154.179 183.563 148.585C167.27 142.992 149.528 151.665 143.934 167.958C138.341 184.251 147.014 201.994 163.307 207.587C179.6 213.18 197.342 204.507 202.936 188.214Z" fill="#E6DEDF"/>
<path d="M173.436 209.541C165.084 209.541 157.219 206.303 151.288 200.419C145.325 194.503 142.019 186.617 141.988 178.213C141.956 169.809 145.194 161.897 151.11 155.934C157.025 149.971 164.911 146.665 173.315 146.634C173.357 146.634 173.399 146.634 173.441 146.634C190.727 146.634 204.826 160.66 204.895 177.962C204.926 186.366 201.688 194.278 195.772 200.24C189.857 206.203 181.971 209.509 173.567 209.541C173.525 209.541 173.483 209.541 173.436 209.541ZM173.446 147.158C173.404 147.158 173.362 147.158 173.321 147.158C165.058 147.189 157.303 150.438 151.487 156.306C145.666 162.169 142.48 169.95 142.517 178.213C142.548 186.476 145.797 194.231 151.665 200.047C157.528 205.868 165.335 209.043 173.572 209.017C181.835 208.985 189.59 205.737 195.406 199.868C201.227 194.005 204.412 186.224 204.376 177.962C204.308 160.954 190.444 147.158 173.446 147.158Z" fill="#2D3962"/>
<path d="M193.223 190.251C199.942 179.327 196.533 165.024 185.609 158.304C174.684 151.585 160.381 154.994 153.662 165.919C146.943 176.843 150.352 191.146 161.277 197.865C172.201 204.585 186.504 201.175 193.223 190.251Z" fill="#2D3962"/>
<path d="M173.441 204.767C158.781 204.767 146.824 192.868 146.761 178.192C146.735 171.066 149.48 164.354 154.5 159.298C159.519 154.236 166.205 151.438 173.336 151.407C173.373 151.407 173.41 151.407 173.446 151.407C180.53 151.407 187.2 154.152 192.236 159.146C197.297 164.165 200.095 170.851 200.127 177.982C200.153 185.108 197.407 191.82 192.388 196.876C187.368 201.938 180.682 204.736 173.551 204.767C173.514 204.767 173.478 204.767 173.441 204.767ZM173.446 151.931C173.41 151.931 173.373 151.931 173.342 151.931C166.357 151.957 159.797 154.708 154.877 159.665C149.957 164.626 147.264 171.202 147.29 178.192C147.348 192.58 159.069 204.243 173.446 204.243C173.483 204.243 173.514 204.243 173.551 204.243C180.536 204.217 187.096 201.466 192.016 196.51C196.936 191.548 199.629 184.972 199.603 177.982C199.576 170.998 196.831 164.438 191.869 159.518C186.928 154.624 180.394 151.931 173.446 151.931Z" fill="#2D3962"/>
<path d="M183.929 189.551C190.259 183.756 190.693 173.926 184.898 167.595C179.103 161.265 169.273 160.83 162.942 166.626C156.612 172.421 156.177 182.251 161.973 188.582C167.768 194.912 177.598 195.347 183.929 189.551Z" fill="#EDEDED"/>
<path d="M182.379 187.029C187.316 182.091 187.316 174.086 182.379 169.148C177.441 164.211 169.436 164.211 164.499 169.148C159.561 174.086 159.561 182.091 164.499 187.029C169.436 191.966 177.441 191.966 182.379 187.029Z" fill="#2D3962"/>
<g opacity="0.45">
<path opacity="0.45" d="M180.255 180.136C181.832 179.431 182.21 176.844 181.099 174.358C179.988 171.872 177.809 170.428 176.231 171.133C174.654 171.838 174.276 174.424 175.387 176.911C176.498 179.397 178.677 180.841 180.255 180.136Z" fill="white"/>
</g>
<path d="M150.197 209.443L110.455 209.598L110.457 210.122L150.199 209.967L150.197 209.443Z" fill="#2D3962"/>
<path d="M159.561 212.039L110.471 212.23L110.473 212.754L159.563 212.563L159.561 212.039Z" fill="#2D3962"/>
<path d="M224.129 209.148L184.387 209.307L184.389 209.831L224.131 209.672L224.129 209.148Z" fill="#2D3962"/>
<path d="M224.134 211.783L175.044 211.974L175.046 212.498L224.136 212.307L224.134 211.783Z" fill="#2D3962"/>
<path d="M219.34 134.211L192.351 134.316L192.353 134.84L219.342 134.735L219.34 134.211Z" fill="#C9C9C9"/>
<path d="M219.346 136.071L192.356 136.177L192.358 136.7L219.348 136.595L219.346 136.071Z" fill="#C9C9C9"/>
<path d="M219.356 137.936L192.366 138.042L192.368 138.565L219.358 138.46L219.356 137.936Z" fill="#C9C9C9"/>
<path d="M219.362 139.796L192.373 139.901L192.375 140.425L219.364 140.32L219.362 139.796Z" fill="#C9C9C9"/>
<path d="M219.366 141.662L192.377 141.767L192.379 142.291L219.368 142.186L219.366 141.662Z" fill="#C9C9C9"/>
<path d="M219.377 143.522L192.388 143.627L192.39 144.151L219.379 144.046L219.377 143.522Z" fill="#C9C9C9"/>
<path d="M193.897 146.136C192.812 146.136 191.921 145.255 191.916 144.166L191.874 134.132C191.869 133.042 192.754 132.151 193.844 132.146L217.815 132.052C217.821 132.052 217.821 132.052 217.826 132.052C218.911 132.052 219.801 132.932 219.807 134.022L219.848 144.056C219.854 145.145 218.968 146.036 217.878 146.041L193.907 146.136C193.902 146.136 193.897 146.136 193.897 146.136ZM217.831 132.99C217.826 132.99 217.826 132.99 217.831 132.99L193.855 133.084C193.284 133.084 192.817 133.555 192.822 134.127L192.864 144.16C192.864 144.732 193.331 145.193 193.902 145.193H193.907L217.878 145.098C218.449 145.098 218.916 144.627 218.911 144.056L218.869 134.022C218.863 133.456 218.402 132.99 217.831 132.99Z" fill="#2D3962"/>
<path d="M268.051 189.3L189.08 189.648L189.275 234.038L268.247 233.691L268.051 189.3Z" fill="#EDEDED"/>
<path d="M265.421 191.686L191.726 192.01L191.9 231.716L265.596 231.392L265.421 191.686Z" fill="#3582D8"/>
<g opacity="0.15">
<path opacity="0.15" d="M265.442 196.438L191.747 196.762L191.9 231.716L265.596 231.392L265.442 196.438Z" fill="#FFEED4"/>
</g>
<g opacity="0.15">
<path opacity="0.15" d="M265.481 204.622L191.786 204.947L191.903 231.716L265.599 231.392L265.481 204.622Z" fill="#FFEED4"/>
</g>
<g opacity="0.15">
<path opacity="0.15" d="M265.515 212.733L191.819 213.058L191.901 231.721L265.597 231.397L265.515 212.733Z" fill="#FFEED4"/>
</g>
<path d="M227.087 219.323C227.289 213.4 222.651 208.436 216.728 208.234C210.805 208.033 205.84 212.671 205.639 218.594C205.437 224.517 210.075 229.481 215.998 229.683C221.921 229.884 226.886 225.246 227.087 219.323Z" fill="#F4C689"/>
<path d="M202.29 224.83C211.679 225.191 220.073 218.317 229.468 218.05C233.246 217.945 237.039 218.919 240.775 218.364C243.316 217.987 245.69 216.923 248.074 215.975C257.049 212.407 267.005 210.394 276.399 212.632L274.146 237.981L202.096 237.588L202.29 224.83Z" fill="#3B7A69"/>
<path d="M186.43 218.306C196.395 217.415 207.163 216.698 215.677 221.953C219.314 224.196 222.368 227.455 226.371 228.953C229.101 229.975 232.072 230.095 234.933 230.635C237.794 231.175 240.765 232.286 242.447 234.664L188.583 234.806L186.43 218.306Z" fill="#76ADA0"/>
<path d="M155.719 214.543L85.1021 193.883L73.4892 233.577L144.106 254.237L155.719 214.543Z" fill="#EDEDED"/>
<path d="M152.731 215.98L86.8364 196.702L76.4491 232.206L142.344 251.485L152.731 215.98Z" fill="#A1C6EA"/>
<g opacity="0.15">
<path opacity="0.15" d="M150.194 224.659L84.2988 205.381L76.4525 232.2L142.347 251.479L150.194 224.659Z" fill="#FFEED4"/>
</g>
<g opacity="0.25">
<path opacity="0.25" d="M147.564 233.645L81.6694 214.367L76.4508 232.204L142.346 251.483L147.564 233.645Z" fill="#FFEED4"/>
</g>
<path d="M138.597 224.626C137.423 228.634 133.226 230.934 129.212 229.761C125.204 228.587 122.904 224.39 124.078 220.376C125.251 216.368 129.448 214.068 133.462 215.242C137.47 216.415 139.77 220.617 138.597 224.626Z" fill="#EDB15B"/>
<path d="M75.0503 232.176L92.6397 217.447L97.434 240.664L74.1753 235.157L75.0503 232.176Z" fill="#2D3962"/>
<path d="M93.8867 238.762L112.32 218.668L117.999 247.114L94.746 241.607L93.8867 238.762Z" fill="#2D3962"/>
<path d="M111.738 244.588L126.897 233.732L134.882 252.139L112.802 246.459L111.738 244.588Z" fill="#2D3962"/>
<path d="M110.466 168.922C109.905 171.663 107.542 174.356 105.132 174.99C104.996 175.026 104.996 175.236 105.132 175.273C107.542 175.907 109.905 178.6 110.466 181.34C110.497 181.497 110.681 181.497 110.712 181.34C111.273 178.595 113.636 175.907 116.046 175.273C116.182 175.236 116.182 175.026 116.046 174.99C113.636 174.356 111.273 171.663 110.712 168.922C110.686 168.77 110.503 168.77 110.466 168.922Z" fill="white"/>
<path d="M228.965 244.734C228.509 246.956 226.596 249.141 224.642 249.654C224.532 249.686 224.532 249.854 224.642 249.885C226.596 250.404 228.514 252.583 228.965 254.805C228.991 254.931 229.138 254.931 229.164 254.805C229.62 252.578 231.532 250.398 233.487 249.885C233.597 249.854 233.597 249.686 233.487 249.654C231.532 249.141 229.615 246.956 229.164 244.734C229.143 244.609 228.991 244.609 228.965 244.734Z" fill="white"/>
<path d="M184.229 103.139C183.774 105.361 181.861 107.546 179.907 108.059C179.797 108.09 179.797 108.258 179.907 108.29C181.861 108.803 183.779 110.988 184.229 113.21C184.256 113.335 184.402 113.335 184.429 113.21C184.884 110.983 186.797 108.803 188.751 108.29C188.861 108.258 188.861 108.09 188.751 108.059C186.797 107.54 184.879 105.361 184.429 103.139C184.402 103.013 184.256 103.013 184.229 103.139Z" fill="white"/>
</svg>

