<svg width="316" height="193" viewBox="0 0 316 193" fill="none" xmlns="http://www.w3.org/2000/svg">
<g clip-path="url(#clip0)">
<path d="M62.8272 165.862H25.5118C25.0021 165.862 24.5903 165.451 24.5903 164.942C24.5903 164.432 25.0021 164.021 25.5118 164.021H62.8272C63.3368 164.021 63.7487 164.432 63.7487 164.942C63.7538 165.451 63.3368 165.862 62.8272 165.862Z" fill="#D7EAFA"/>
<path d="M294.4 172.657H257.085C256.575 172.657 256.164 172.245 256.164 171.736C256.164 171.227 256.575 170.816 257.085 170.816H294.4C294.91 170.816 295.322 171.227 295.322 171.736C295.327 172.245 294.91 172.657 294.4 172.657Z" fill="#D7EAFA"/>
<path d="M83.9942 23.8202C83.1963 23.8202 82.522 23.1104 82.522 22.2154C82.522 22.2103 82.522 22.2051 82.522 22.2C82.522 17.2312 85.5797 13.2037 89.3581 13.2037C90.5369 13.2037 91.6488 13.5998 92.6166 14.289C94.0116 9.72662 97.4039 6.50155 101.368 6.50155C102.603 6.50155 103.782 6.8256 104.868 7.3914C106.876 4.89159 109.583 3.35364 112.564 3.35364C116.625 3.35364 120.182 6.20322 122.144 10.4673C123.868 8.03436 126.313 6.50155 129.041 6.50155C134.251 6.50155 138.472 12.067 138.472 18.9286C138.472 20.2145 138.323 21.4541 138.045 22.6217C137.875 23.3367 137.283 23.8202 136.624 23.8202H83.9942Z" fill="#D7EAFA"/>
<path d="M221.962 33.5212C222.76 33.5212 223.435 32.8937 223.435 32.1067C223.435 32.1016 223.435 32.0964 223.435 32.0913C223.435 27.714 220.377 24.1598 216.599 24.1598C215.42 24.1598 214.308 24.5095 213.34 25.1165C211.945 21.0942 208.558 18.2497 204.589 18.2497C203.354 18.2497 202.175 18.5326 201.089 19.0367C199.081 16.8301 196.373 15.4773 193.393 15.4773C189.331 15.4773 185.774 17.9874 183.813 21.7474C182.089 19.6025 179.643 18.2549 176.915 18.2549C171.706 18.2549 167.479 23.1568 167.479 29.2057C167.479 30.3373 167.629 31.4329 167.907 32.4616C168.077 33.0892 168.669 33.5212 169.328 33.5212H221.962Z" fill="#D7EAFA"/>
<path d="M100.05 30.2548H62.7344C62.2248 30.2548 61.813 29.8433 61.813 29.334C61.813 28.8248 62.2248 28.4133 62.7344 28.4133H100.05C100.559 28.4133 100.971 28.8248 100.971 29.334C100.971 29.8433 100.559 30.2548 100.05 30.2548Z" fill="#D7EAFA"/>
<path d="M241.709 38.9373H213.067C212.557 38.9373 212.146 38.5258 212.146 38.0165C212.146 37.5073 212.557 37.0958 213.067 37.0958H241.709C242.218 37.0958 242.63 37.5073 242.63 38.0165C242.63 38.5258 242.218 38.9373 241.709 38.9373Z" fill="#D7EAFA"/>
<path d="M157.503 192.995C227.184 192.995 283.672 188.592 283.672 183.16C283.672 177.729 227.184 173.325 157.503 173.325C87.8215 173.325 31.3335 177.729 31.3335 183.16C31.3335 188.592 87.8215 192.995 157.503 192.995Z" fill="#D7EAFA"/>
<path d="M275.498 49.0858V180.47H46.5605V49.0858C46.5605 45.7424 49.2734 43.0317 52.6194 43.0317H269.434C272.78 43.0317 275.498 45.7424 275.498 49.0858Z" fill="#F2F1EF" stroke="#DEDDDC" stroke-miterlimit="10"/>
<path d="M275.498 49.0858V53.0721H46.5605V49.0858C46.5605 45.7424 49.2734 43.0317 52.6194 43.0317H269.434C272.78 43.0317 275.498 45.7424 275.498 49.0858Z" fill="#E6E5E3"/>
<path d="M55.1727 48.1446C55.1727 49.0396 54.4469 49.7598 53.5563 49.7598C52.6658 49.7598 51.9399 49.0345 51.9399 48.1446C51.9399 47.2497 52.6658 46.5295 53.5563 46.5295C54.4469 46.5295 55.1727 47.2548 55.1727 48.1446Z" fill="#F8554A"/>
<path d="M63.4295 48.1446C63.4295 49.0396 62.7037 49.7598 61.8131 49.7598C60.9175 49.7598 60.1968 49.0345 60.1968 48.1446C60.1968 47.2497 60.9226 46.5295 61.8131 46.5295C62.7037 46.5295 63.4295 47.2548 63.4295 48.1446Z" fill="#FEC107"/>
<path d="M72.1649 48.1446C72.1649 49.0396 71.439 49.7598 70.5485 49.7598C69.6528 49.7598 68.9321 49.0345 68.9321 48.1446C68.9321 47.2497 69.658 46.5295 70.5485 46.5295C71.439 46.5295 72.1649 47.2548 72.1649 48.1446Z" fill="#00857C"/>
<path d="M137.237 122.522H60.0474V158.419H137.237V122.522Z" fill="#E6E5E3"/>
<path d="M94.6191 76.6763H60.0474V112.574H94.6191V76.6763Z" fill="#E6E5E3"/>
<path d="M136.542 76.6763H101.97V112.574H136.542V76.6763Z" fill="#E6E5E3"/>
<path d="M219.301 76.6763H184.729V112.574H219.301V76.6763Z" fill="#E6E5E3"/>
<path d="M261.224 76.6763H226.652V112.574H261.224V76.6763Z" fill="#E6E5E3"/>
<path d="M262.006 122.522H184.816V158.419H262.006V122.522Z" fill="#E6E5E3"/>
<path d="M82.5893 185.681H68.4229C67.7846 185.681 67.2646 185.161 67.2646 184.524V184.302C67.2646 183.263 67.8772 182.322 68.8295 181.905L77.9409 177.878L84.2828 178.032L84.9778 182.929C85.1837 184.38 84.0563 185.681 82.5893 185.681Z" fill="#282828"/>
<path d="M101.939 185.681H116.106C116.744 185.681 117.264 185.161 117.264 184.524V184.302C117.264 183.263 116.651 182.322 115.699 181.905L106.588 177.878L100.246 178.032L99.5507 182.929C99.3448 184.38 100.472 185.681 101.939 185.681Z" fill="#282828"/>
<path d="M81.812 179.195H80.4942C79.0837 179.195 77.9409 178.053 77.9409 176.643V171.695H84.3601V176.643C84.3601 178.053 83.2173 179.195 81.812 179.195Z" fill="#FFB1A5"/>
<path d="M102.717 179.195H104.034C105.445 179.195 106.588 178.053 106.588 176.643V171.695H100.168V176.643C100.163 178.053 101.306 179.195 102.717 179.195Z" fill="#FFB1A5"/>
<path d="M84.432 114.673L76.0825 172.544C76.0825 172.544 79.0218 173.778 80.8801 173.778C82.7384 173.778 86.2955 173.161 86.2955 173.161L91.752 134.357L98.2072 173.624C98.2072 173.624 101.919 174.858 103.931 174.858C105.944 174.858 108.111 173.933 108.111 173.933L99.7978 115.187L84.432 114.673Z" fill="#005685"/>
<path d="M87.5 124.744C87.5 124.744 87.186 133.375 84.0459 134.316" stroke="#0068A1" stroke-width="0.7" stroke-miterlimit="10" stroke-linecap="round"/>
<path d="M95.9785 125.058C95.9785 125.058 98.0222 134.316 101.162 134.316" stroke="#0068A1" stroke-width="0.7" stroke-miterlimit="10" stroke-linecap="round"/>
<path d="M92.2876 125.886C92.2876 126.256 91.989 126.554 91.6184 126.554C91.2478 126.554 90.9492 126.256 90.9492 125.886C90.9492 125.515 91.2478 125.217 91.6184 125.217C91.989 125.217 92.2876 125.515 92.2876 125.886Z" stroke="white" stroke-width="0.7" stroke-miterlimit="10" stroke-linecap="round"/>
<path d="M67.8721 184.055C67.8721 184.055 82.79 184.786 83.9379 183.428" stroke="#616161" stroke-width="0.7" stroke-miterlimit="10" stroke-linecap="round"/>
<path d="M116.234 184.055C116.234 184.055 101.316 184.786 100.168 183.428" stroke="#616161" stroke-width="0.7" stroke-miterlimit="10" stroke-linecap="round"/>
<path d="M134.539 64.3625C134.014 64.0693 132.012 66.4817 132.012 66.4817C132.012 66.4817 134.231 61.981 133.5 61.7496C132.769 61.5181 130.967 66.0136 130.967 66.0136C130.967 66.0136 132.805 60.9626 131.996 60.8957C131.183 60.8288 129.773 65.6947 129.773 65.6947C129.773 65.6947 130.514 61.9296 129.732 62.0273C128.949 62.1199 128.692 65.7873 128.692 65.7873C128.692 65.7873 128.769 64.3728 128.079 64.1156C127.394 63.8584 126.386 67.7728 126.386 67.7728C126.386 67.7728 116.116 81.0588 110.84 84.9937C109.82 85.7498 108.781 86.3773 107.751 86.8866C107.983 87.7147 109.058 91.5416 109.712 94.2831C112.827 92.3028 116.116 90.0036 118.371 87.8793C123.935 82.6225 129.953 70.3549 129.953 70.3549C129.953 70.3549 135.064 64.6557 134.539 64.3625Z" fill="#FFB2AB"/>
<path d="M74.5279 102.122C73.5241 102.914 72.3556 103.434 70.9194 103.547C65.5298 103.948 60.0269 101.294 59.8725 101.217C59.8725 101.217 57.1493 98.0792 56.6861 98.6502C56.2228 99.216 56.9949 100.404 56.9949 100.404C56.9949 100.404 54.9307 97.3643 54.21 97.6729C53.4894 97.9815 56.0169 100.867 56.0169 100.867C56.0169 100.867 52.3569 97.3643 51.6825 97.8272C51.0133 98.2901 55.1366 101.742 55.1366 101.742C55.1366 101.742 51.3222 98.753 50.8023 99.3188C50.2875 99.8846 54.4623 102.667 54.4623 102.667C54.4623 102.667 51.5229 101.587 51.2141 102.102C50.9052 102.616 57.7928 105.841 57.7928 105.841C58.5186 106.201 67.5734 110.635 74.0131 109.21C75.1353 108.963 76.1494 108.603 77.0657 108.181L74.5279 102.122Z" fill="#FFB2AB"/>
<path d="M110.216 96.8704C110.186 96.4127 109.985 95.4457 109.707 94.2832C109.053 91.5416 107.977 87.7096 107.746 86.8866C107.72 86.7838 107.699 86.7272 107.699 86.7272C107.699 86.7272 100.935 89.0572 98.7422 89.1447C98.5363 89.1498 98.3407 89.1601 98.1606 89.1601C96.8273 89.1807 96.014 89.0727 96.014 89.0727L89.5331 88.9647C89.5331 88.9647 88.6168 88.9338 87.2938 89.263C85.6878 89.659 83.4691 90.5798 81.5542 92.7247C78.9958 95.5743 77.4309 99.792 74.6563 102.03C74.6511 102.03 74.646 102.035 74.6409 102.035C74.5636 102.081 74.5225 102.102 74.5225 102.102L74.5328 102.122L77.0706 108.181L77.7655 109.843C77.7655 109.843 81.0446 109.874 83.2632 103.722L79.3407 123.535L103.73 124.163L100.971 99.6532C103.658 99.2777 110.299 98.2027 110.216 96.8704Z" fill="#C98CD2"/>
<path d="M96.2405 80.7911V88.8718C96.2405 88.8718 96.1582 88.949 96.0089 89.0724C95.4993 89.4993 94.2175 90.4509 92.9409 90.5281C92.8894 90.5332 92.8379 90.5332 92.7865 90.5332C92.7092 90.5332 92.6217 90.5281 92.5445 90.5178C91.1804 90.3995 89.8832 89.2936 89.528 88.9644C89.4662 88.9078 89.4302 88.8718 89.4302 88.8718V80.7911H96.2405Z" fill="#FFB2AB"/>
<path d="M96.2403 84.9678V87.5397C91.1647 86.6087 89.5329 81.1512 89.4351 80.8118C90.1763 82.7561 93.9959 84.2477 96.2403 84.9678Z" fill="#252A26"/>
<path d="M101.501 72.4432V79.5517C101.501 81.2851 100.781 82.8539 99.6175 83.965C98.521 85.0194 97.0333 85.6572 95.3964 85.6572C94.9485 85.6572 94.5161 85.6109 94.0991 85.5183C91.3451 84.9217 89.2809 82.4733 89.2809 79.5466V78.3584C87.5565 78.3018 86.8873 76.4809 87.8705 75.3751C88.2257 74.979 88.936 74.8813 89.2809 74.9996V72.4432C89.2809 69.0689 92.0143 66.3325 95.3964 66.3325C97.0848 66.3325 98.6085 67.0166 99.7153 68.1174C100.812 69.2284 101.501 70.7561 101.501 72.4432Z" fill="#FFB2AB"/>
<path d="M90.4029 74.8913C90.4029 74.8913 91.8958 73.5591 92.0142 72.2218C92.1326 70.8896 92.0142 68.9659 92.0142 68.9659C92.0142 68.9659 89.6977 68.9659 89.5433 68.4926C89.3889 68.0194 88.0916 70.9256 88.4829 72.731C88.8741 74.5364 88.8381 75.0868 88.8381 75.0868C88.8381 75.0868 89.7749 75.596 90.4029 74.8913Z" fill="#252A26"/>
<path d="M92.2872 70.2262C93.8984 69.0483 95.0721 71.1263 96.3282 71.5584C97.5842 71.9905 97.543 70.7714 99.0358 71.0852C100.529 71.3989 101.625 73.2815 103.669 72.3402C105.712 71.3989 105.908 68.3025 105.908 68.3025C105.908 68.3025 103.437 68.3025 103.041 67.284C102.649 66.2656 102.021 63.5189 100.801 63.5189C99.5815 63.5189 98.5622 64.7328 97.7798 64.3419C96.9922 63.9509 96.601 62.2998 95.3449 62.3821C94.0889 62.4593 93.4609 64.2235 91.8909 64.3058C90.3208 64.383 88.9876 64.7379 88.8692 65.8747C88.7508 67.0114 88.7096 68.4259 89.734 68.894C90.7584 69.3621 90.6812 71.3989 92.2872 70.2262Z" fill="#252A26"/>
<path d="M95.5462 77.9828C94.8204 77.9828 94.563 77.2833 94.563 76.6352C94.563 76.5632 94.6248 76.5015 94.6968 76.5015C94.7689 76.5015 94.8307 76.5632 94.8307 76.6352C94.8307 76.8152 94.8667 77.7205 95.5513 77.7205C96.236 77.7205 96.272 76.8152 96.272 76.6352C96.272 76.5632 96.3338 76.5015 96.4059 76.5015C96.4779 76.5015 96.5397 76.5632 96.5397 76.6352C96.5294 77.2884 96.272 77.9828 95.5462 77.9828Z" fill="#282828"/>
<path d="M99.4891 77.9828C98.7632 77.9828 98.5059 77.2833 98.5059 76.6352C98.5059 76.5632 98.5676 76.5015 98.6397 76.5015C98.7118 76.5015 98.7735 76.5632 98.7735 76.6352C98.7735 76.8152 98.8096 77.7205 99.4942 77.7205C100.179 77.7205 100.215 76.8152 100.215 76.6352C100.215 76.5632 100.277 76.5015 100.349 76.5015C100.421 76.5015 100.483 76.5632 100.483 76.6352C100.472 77.2884 100.215 77.9828 99.4891 77.9828Z" fill="#282828"/>
<path d="M94.3052 75.658C94.2486 75.658 94.192 75.6374 94.1456 75.5911C94.0581 75.5037 94.0633 75.3648 94.1508 75.2774C94.1817 75.2465 94.9487 74.511 95.6333 74.4235C95.7517 74.4081 95.865 74.4955 95.8804 74.6138C95.8959 74.7373 95.8083 74.8453 95.6899 74.8607C95.2421 74.9173 94.6553 75.406 94.4648 75.5911C94.4185 75.6374 94.3618 75.658 94.3052 75.658Z" fill="#282828"/>
<path d="M100.498 75.5241C100.421 75.5241 100.349 75.483 100.308 75.4161C100.019 74.9223 99.3501 74.6188 99.3449 74.6188C99.2317 74.5674 99.1853 74.4388 99.2317 74.3256C99.2831 74.2125 99.4118 74.1662 99.5251 74.2125C99.556 74.2279 100.328 74.5777 100.688 75.1898C100.75 75.2926 100.714 75.4315 100.611 75.4932C100.57 75.5138 100.534 75.5241 100.498 75.5241Z" fill="#282828"/>
<path d="M97.5947 79.7058C97.4866 79.7058 97.3527 79.6801 97.1983 79.6133C97.1314 79.5875 97.1005 79.5052 97.1262 79.4384C97.1571 79.3715 97.2343 79.3406 97.3012 79.3664C97.466 79.4332 97.6873 79.4898 97.8263 79.3509C97.9447 79.2326 97.9602 79.0166 97.9035 78.8829C97.7645 78.564 97.6204 76.6917 97.605 76.4808C97.5998 76.4088 97.6564 76.3419 97.7285 76.3368C97.8006 76.3316 97.8675 76.3882 97.8726 76.4602C97.9293 77.242 98.058 78.5639 98.1506 78.7748C98.2433 78.9857 98.2227 79.3304 98.0168 79.5361C97.9396 79.6184 97.8057 79.7058 97.5947 79.7058Z" fill="#282828"/>
<path d="M95.834 80.6729C95.834 80.6729 97.5739 80.9249 98.5623 80.9815C98.5623 80.9815 98.3564 82.1182 97.6511 82.4886C97.0128 82.8229 95.87 82.4989 95.834 80.6729Z" fill="white"/>
<path d="M94.1766 80.6523C94.6883 80.6523 95.1032 80.2377 95.1032 79.7264C95.1032 79.2151 94.6883 78.8005 94.1766 78.8005C93.6648 78.8005 93.25 79.2151 93.25 79.7264C93.25 80.2377 93.6648 80.6523 94.1766 80.6523Z" fill="#F4968E"/>
<path d="M101.018 79.6649C101.018 80.1792 100.601 80.5907 100.091 80.5907C99.5764 80.5907 99.1646 80.1741 99.1646 79.6649C99.1646 79.1505 99.5815 78.739 100.091 78.739C100.606 78.739 101.018 79.1556 101.018 79.6649Z" fill="#F4968E"/>
<path d="M99.6129 83.9648C98.5164 85.0193 97.0287 85.6571 95.3918 85.6571C94.9439 85.6571 94.5115 85.6108 94.0945 85.5182C94.0894 85.5131 94.0791 85.5028 94.0791 85.5028C94.0791 85.5028 95.9786 82.7406 99.6129 83.9648Z" fill="#F4968E"/>
<path d="M226.168 184.138H239.979C240.602 184.138 241.107 183.634 241.107 183.011V182.795C241.107 181.782 240.509 180.866 239.583 180.46L230.698 176.535L224.516 176.684L223.841 181.458C223.635 182.872 224.737 184.138 226.168 184.138Z" fill="#282828"/>
<path d="M207.302 184.138H193.491C192.868 184.138 192.363 183.634 192.363 183.011V182.795C192.363 181.782 192.96 180.866 193.887 180.46L202.772 176.535L208.954 176.684L209.629 181.458C209.834 182.872 208.733 184.138 207.302 184.138Z" fill="#282828"/>
<path d="M226.987 177.811H228.145C229.555 177.811 230.698 176.669 230.698 175.26V170.502H224.438V175.26C224.438 176.674 225.581 177.811 226.987 177.811Z" fill="#F8C4B5"/>
<path d="M206.483 177.811H205.325C203.914 177.811 202.771 176.669 202.771 175.26V170.502H209.031V175.26C209.031 176.674 207.888 177.811 206.483 177.811Z" fill="#F8C4B5"/>
<path d="M224.469 114.704L233.854 170.893C233.854 170.893 229.638 172.096 227.831 172.096C226.019 172.096 222.549 171.495 222.549 171.495L216.367 133.668L210.936 171.947C210.936 171.947 207.317 173.151 205.356 173.151C203.395 173.151 199.936 172.246 199.936 172.246L208.491 114.544L224.469 114.704Z" fill="#282828"/>
<path d="M208.089 180.676C208.089 181.196 207.667 181.617 207.147 181.617C206.627 181.617 206.205 181.196 206.205 180.676C206.205 180.157 206.627 179.735 207.147 179.735C207.667 179.735 208.089 180.157 208.089 180.676Z" fill="#616161"/>
<path d="M227.98 180.676C227.98 181.196 227.558 181.617 227.038 181.617C226.518 181.617 226.096 181.196 226.096 180.676C226.096 180.157 226.518 179.735 227.038 179.735C227.558 179.735 227.98 180.157 227.98 180.676Z" fill="#616161"/>
<path d="M209.422 110.465L209.839 114.544L223.12 114.703L223.475 110.779L209.422 110.465Z" fill="#FFB2AB"/>
<path d="M175.155 67.1349C175.68 66.8417 177.682 69.254 177.682 69.254C177.682 69.254 175.463 64.7534 176.194 64.5219C176.925 64.2904 178.727 68.786 178.727 68.786C178.727 68.786 176.889 63.7349 177.697 63.668C178.511 63.6012 179.921 68.4671 179.921 68.4671C179.921 68.4671 179.18 64.7019 179.962 64.7996C180.745 64.8922 181.002 68.5596 181.002 68.5596C181.002 68.5596 180.925 67.1451 181.615 66.888C182.3 66.6308 183.308 70.5451 183.308 70.5451C183.308 70.5451 193.578 83.8312 198.854 87.766C199.874 88.5222 209.618 89.4069 210.653 89.9161C210.421 90.7442 207.333 98.3105 206.674 101.057C203.559 99.0769 193.578 92.7811 191.323 90.6516C185.759 85.3948 179.741 73.1272 179.741 73.1272C179.741 73.1272 174.629 67.4229 175.155 67.1349Z" fill="#FFB2AB"/>
<path d="M224.104 91.6394C225.834 93.2853 233.303 105.203 237.452 105.604C242.831 106.119 249.662 104.066 249.822 103.984C249.822 103.984 252.545 100.847 253.008 101.417C253.471 101.983 252.699 103.171 252.699 103.171C252.699 103.171 254.764 100.132 255.484 100.44C256.205 100.749 253.677 103.634 253.677 103.634C253.677 103.634 257.337 100.132 258.012 100.594C258.681 101.057 254.558 104.509 254.558 104.509C254.558 104.509 258.372 101.52 258.892 102.086C259.407 102.652 255.232 105.435 255.232 105.435C255.232 105.435 258.171 104.354 258.48 104.869C258.789 105.383 251.901 108.608 251.901 108.608C251.176 108.968 242.291 111.926 235.727 111.252C231.692 110.835 218.714 99.8486 217.803 99.4269L221.52 89.9934C221.515 89.9934 222.38 89.9934 224.104 91.6394Z" fill="#FFB2AB"/>
<path d="M224.732 111.093L207.93 110.465C207.93 110.465 206.802 107.286 206.185 103.573C206.01 102.513 206.231 100.919 206.632 99.18C207.621 94.9571 209.695 89.8803 209.814 89.5922C209.922 89.5922 210.02 89.5974 210.123 89.5974C211.42 89.618 211.986 89.191 211.986 89.191C212.485 89.6025 213.963 90.8576 215.208 90.9296C215.26 90.9347 215.306 90.9347 215.358 90.9347C215.435 90.9347 215.517 90.9296 215.594 90.9245C216.923 90.8062 218.189 89.726 218.534 89.4071C218.534 89.4071 219.424 89.3814 220.722 89.7003C221.066 89.7826 221.437 89.8906 221.833 90.0346C222.662 93.1414 225.735 100.425 225.751 100.656C226.055 104.252 224.732 111.093 224.732 111.093Z" fill="#00857C"/>
<path d="M218.632 81.4443V89.3244C218.632 89.3244 218.596 89.3604 218.539 89.4118C218.194 89.7308 216.928 90.8109 215.6 90.9292C215.522 90.9344 215.44 90.9395 215.363 90.9395C215.311 90.9395 215.265 90.9395 215.214 90.9344C213.968 90.8624 212.722 89.9314 212.223 89.5199C212.079 89.4016 212.001 89.3244 212.001 89.3244V81.4443H218.632Z" fill="#FFB2AB"/>
<path d="M218.781 79.0785V80.2358C218.781 80.7862 218.704 81.316 218.57 81.8149C218.122 83.4403 217.005 84.7879 215.538 85.5338C214.724 85.9555 213.803 86.187 212.825 86.187C212.542 86.187 212.269 86.1716 211.996 86.1304C210.766 85.9555 209.664 85.4155 208.794 84.613C207.61 83.5277 206.869 81.9692 206.869 80.2358V73.3022C206.869 71.6562 207.538 70.1697 208.614 69.0895C209.242 68.462 210.004 67.9733 210.864 67.6853C210.926 67.6596 210.987 67.639 211.054 67.6184C211.615 67.4435 212.207 67.351 212.825 67.351C216.12 67.351 218.786 70.0205 218.786 73.3022V75.7968C218.843 75.7865 218.894 75.7762 218.956 75.7557C219.239 75.7145 219.532 75.8174 219.821 76.1414C220.768 77.2319 220.572 78.955 218.781 79.0785Z" fill="#FFB2AB"/>
<path d="M220.233 68.786C220.233 68.786 219.342 63.8172 221.386 63.7658C223.429 63.7143 223.321 65.7512 223.321 65.7512C223.321 65.7512 224.737 62.1404 226.621 63.5549C228.505 64.9694 225.313 67.999 225.313 67.999C225.313 67.999 227.928 66.6925 228.979 67.999C230.024 69.3055 227.306 70.1953 227.306 70.1953C227.306 70.1953 229.349 70.7714 228.773 71.867C228.196 72.9677 225.37 71.6561 225.37 71.6561C225.37 71.6561 226.837 74.5829 224.896 74.6394C222.956 74.696 221.283 71.9699 221.283 71.9699L220.233 68.786Z" fill="#252A26"/>
<path d="M219.893 73.0705C219.841 74.5364 219.306 75.6989 218.781 75.8018C217.432 76.0692 217.566 74.9531 217.566 74.9531C217.566 74.9531 216.676 75.6835 215.471 75.2668C214.266 74.8502 214.74 72.8596 214.74 72.8596C214.74 72.8596 214.009 73.8009 212.12 73.59C210.447 73.4048 210.467 72.1446 210.488 71.8669C210.447 72.0417 210.241 72.623 209.191 73.0139C207.935 73.4871 206.833 72.8082 206.833 72.8082C206.833 72.8082 205.263 65.4322 214.369 66.8981C216.495 67.2376 217.87 68.1223 218.709 69.2076C219.646 70.4061 219.939 71.8411 219.893 73.0705Z" fill="#252A26"/>
<path d="M219.893 73.0706C219.939 71.8464 219.646 70.4062 218.709 69.2128C218.714 69.2077 218.714 69.2026 218.714 69.2026C218.714 69.2026 219.548 68.0504 220.444 68.8888C221.324 69.7169 222.77 72.9626 219.893 73.0706Z" fill="#F8554A"/>
<path d="M212.67 78.7132C211.96 78.7132 211.708 78.0291 211.708 77.3913C211.708 77.3193 211.769 77.2576 211.841 77.2576C211.913 77.2576 211.975 77.3193 211.975 77.3913C211.975 77.5662 212.011 78.4457 212.67 78.4457C213.334 78.4457 213.365 77.5662 213.365 77.3913C213.365 77.3193 213.427 77.2576 213.499 77.2576C213.571 77.2576 213.633 77.3193 213.633 77.3913C213.633 78.0343 213.381 78.7132 212.67 78.7132Z" fill="#252A26"/>
<path d="M208.825 78.7132C208.115 78.7132 207.862 78.0034 207.862 77.3913C207.862 77.3193 207.924 77.2576 207.996 77.2576C208.068 77.2576 208.13 77.3193 208.13 77.3913C208.13 77.5662 208.166 78.4457 208.825 78.4457C209.489 78.4457 209.52 77.5662 209.52 77.3913C209.52 77.3193 209.582 77.2576 209.654 77.2576C209.726 77.2576 209.788 77.3193 209.788 77.3913C209.788 78.0343 209.535 78.7132 208.825 78.7132Z" fill="#252A26"/>
<path d="M213.88 76.4501C213.823 76.4501 213.767 76.4295 213.725 76.3884C213.54 76.2084 212.964 75.73 212.531 75.6786C212.408 75.6631 212.325 75.5551 212.341 75.4317C212.356 75.3082 212.469 75.2259 212.588 75.2414C213.257 75.3237 214.003 76.0438 214.034 76.0746C214.122 76.1621 214.122 76.301 214.039 76.3884C213.993 76.4244 213.937 76.4501 213.88 76.4501Z" fill="#252A26"/>
<path d="M207.847 76.3163C207.811 76.3163 207.77 76.306 207.734 76.2854C207.631 76.2237 207.595 76.09 207.657 75.982C208.007 75.3801 208.764 75.0407 208.794 75.0252C208.908 74.9738 209.036 75.0252 209.088 75.1384C209.139 75.2516 209.088 75.3801 208.975 75.4316C208.969 75.4367 208.316 75.7299 208.038 76.2083C207.997 76.2751 207.924 76.3163 207.847 76.3163Z" fill="#252A26"/>
<path d="M210.673 80.3953C210.467 80.3953 210.333 80.3027 210.266 80.2358C210.071 80.0352 210.045 79.7009 210.138 79.49C210.225 79.2842 210.354 77.9983 210.41 77.2371C210.416 77.165 210.467 77.1085 210.555 77.1136C210.627 77.1187 210.683 77.1805 210.678 77.2576C210.663 77.4634 210.524 79.2842 210.385 79.598C210.328 79.7214 210.349 79.9323 210.462 80.0506C210.591 80.1844 210.812 80.1329 210.966 80.0661C211.033 80.0352 211.111 80.0712 211.141 80.1381C211.172 80.2049 211.136 80.2821 211.069 80.313C210.91 80.3695 210.781 80.3953 210.673 80.3953Z" fill="#252A26"/>
<path d="M212.387 81.3313C212.387 81.3313 210.688 81.5782 209.731 81.6348C209.731 81.6348 209.932 82.7458 210.616 83.1059C211.239 83.4299 212.356 83.111 212.387 81.3313Z" fill="white"/>
<path d="M213.803 80.8634C214.303 80.8634 214.709 80.4581 214.709 79.9581C214.709 79.4582 214.303 79.0529 213.803 79.0529C213.303 79.0529 212.897 79.4582 212.897 79.9581C212.897 80.4581 213.303 80.8634 213.803 80.8634Z" fill="#F4968E"/>
<path d="M207.337 80.3489C207.337 80.8478 207.744 81.2542 208.243 81.2542C208.743 81.2542 209.149 80.8478 209.149 80.3489C209.149 79.85 208.743 79.4436 208.243 79.4436C207.739 79.4436 207.337 79.85 207.337 80.3489Z" fill="#F4968E"/>
<path d="M215.537 85.5387C214.724 85.9605 213.803 86.192 212.825 86.192C211.265 86.192 209.854 85.5953 208.794 84.618C209.772 84.3197 213.056 83.507 215.316 85.333C215.398 85.3999 215.476 85.4719 215.537 85.5387Z" fill="#F4968E"/>
<path d="M211.996 87.8792V86.1304C212.264 86.1715 212.542 86.1869 212.825 86.1869C213.803 86.1869 214.724 85.9503 215.538 85.5337C217.01 84.7879 218.122 83.4402 218.57 81.8148C218.601 81.8045 216.871 88.0387 211.996 87.8792Z" fill="#252A26"/>
<path d="M219.527 78.3274C219.527 78.4868 219.399 78.6154 219.239 78.6154C219.079 78.6154 218.951 78.4868 218.951 78.3274C218.951 78.1679 219.079 78.0393 219.239 78.0393C219.399 78.0393 219.527 78.1679 219.527 78.3274Z" fill="#252A26"/>
<path d="M181.924 27.2253C181.383 27.2253 180.853 27.2613 180.328 27.3282C180.333 27.0916 180.343 26.8601 180.343 26.6235C180.343 11.9178 168.416 0 153.704 0C141 0 130.375 8.88823 127.714 20.7855C126.051 20.23 124.275 19.9265 122.422 19.9265C113.213 19.9265 105.749 27.3848 105.749 36.5868C105.749 45.7888 113.213 53.2471 122.422 53.2471H181.002V53.2111C181.306 53.2316 181.615 53.2471 181.924 53.2471C189.115 53.2471 194.942 47.4245 194.942 40.2388C194.942 33.048 189.115 27.2253 181.924 27.2253Z" fill="#4D9EE3"/>
<path d="M155.732 41.1541V13.9391" stroke="white" stroke-width="4" stroke-miterlimit="10" stroke-linecap="round"/>
<path d="M145.206 25.8878L155.733 13.7025L165.992 25.8878" stroke="white" stroke-width="4" stroke-miterlimit="10" stroke-linecap="round" stroke-linejoin="round"/>
<path d="M161.029 158.589V128.134" stroke="#4D9EE3" stroke-width="4" stroke-miterlimit="10" stroke-linecap="round"/>
<path d="M151.12 141.507L161.153 127.866L170.933 141.507" stroke="#4D9EE3" stroke-width="4" stroke-miterlimit="10" stroke-linecap="round" stroke-linejoin="round"/>
<path d="M133.461 43.6143L119.107 97.1925L172.727 111.535L187.081 57.9573L133.461 43.6143Z" fill="white"/>
<path d="M133.829 44.2507L186.454 58.3288L172.364 110.912L119.74 96.8342L133.829 44.2507ZM133.103 42.9905L132.835 43.9832L118.746 96.5667L118.479 97.5594L119.472 97.8269L172.097 111.905L173.09 112.173L173.358 111.18L187.447 58.5963L187.715 57.6036L186.721 57.3361L134.097 43.2579L133.103 42.9905Z" fill="#4D9EE3"/>
<path d="M173.564 66.2708C172.884 68.8067 170.274 70.3086 167.742 69.6348C165.204 68.9558 163.701 66.348 164.375 63.8173C165.055 61.2815 167.664 59.7796 170.197 60.4534C172.74 61.1323 174.243 63.735 173.564 66.2708Z" fill="#CBE4FA"/>
<path d="M125.67 92.925C125.67 92.925 141.036 70.7867 144.706 71.7692C148.376 72.7516 151.681 85.7496 151.681 85.7496C151.681 85.7496 158.224 80.4311 161.966 81.4341C165.709 82.4371 169.183 104.57 169.183 104.57L125.67 92.925Z" fill="#CBE4FA"/>
<path d="M159.48 68.1531L135.069 61.9036C135.028 61.8933 134.992 61.8624 134.982 61.8213C134.966 61.7801 134.977 61.7339 135.002 61.6978C135.069 61.6104 136.711 59.5735 138.266 59.5735C138.498 59.5735 138.714 59.6198 138.92 59.7073C139.728 60.0622 140.325 60.5199 140.85 60.9263C141.396 61.3481 141.828 61.6773 142.286 61.7339C142.57 61.7339 142.935 61.4098 143.357 61.0343C144.176 60.3039 145.303 59.3009 146.924 59.3009C147.398 59.3009 147.892 59.3883 148.397 59.5632C150.718 60.3708 151.207 62.0836 151.532 63.2204C151.691 63.7759 151.804 64.1771 152.057 64.208C152.108 64.2131 152.165 64.2182 152.221 64.2182C152.499 64.2182 152.849 64.1617 153.261 64.0896C153.791 64.0022 154.394 63.9045 155.001 63.9045C155.753 63.9045 156.36 64.0588 156.865 64.3725C158.45 65.3653 159.583 67.8651 159.629 67.9731C159.65 68.0194 159.639 68.0708 159.608 68.1068C159.583 68.1377 159.547 68.1531 159.511 68.1531C159.5 68.1531 159.49 68.1531 159.48 68.1531Z" fill="#CBE4FA"/>
<path d="M146.925 59.4295C147.362 59.4295 147.836 59.5067 148.35 59.6867C151.83 60.9006 151.084 64.2234 152.041 64.3366C152.098 64.3417 152.16 64.3469 152.221 64.3469C152.875 64.3469 153.936 64.0331 155.001 64.0331C155.624 64.0331 156.252 64.1411 156.798 64.4806C158.368 65.463 159.516 68.0246 159.516 68.0246L135.105 61.775C135.105 61.775 136.758 59.7022 138.271 59.7022C138.477 59.7022 138.678 59.7382 138.874 59.8256C140.516 60.5457 141.319 61.7493 142.276 61.8625C142.292 61.8625 142.307 61.8676 142.323 61.8676C143.136 61.8676 144.449 59.4295 146.925 59.4295ZM146.925 59.1724C145.252 59.1724 144.109 60.1908 143.27 60.9366C142.884 61.2813 142.518 61.6053 142.317 61.6053C141.875 61.5539 141.458 61.2298 140.928 60.8235C140.397 60.412 139.79 59.9491 138.971 59.589C138.75 59.4913 138.513 59.445 138.266 59.445C136.645 59.445 134.972 61.5282 134.9 61.6156C134.843 61.6825 134.828 61.775 134.858 61.8573C134.884 61.9396 134.956 62.0014 135.039 62.0271L159.449 68.2766C159.469 68.2818 159.49 68.2869 159.511 68.2869C159.588 68.2869 159.66 68.256 159.706 68.1943C159.768 68.1172 159.783 68.0143 159.742 67.9217C159.696 67.8137 158.543 65.2779 156.926 64.2646C156.401 63.9354 155.768 63.7759 154.996 63.7759C154.378 63.7759 153.771 63.8788 153.236 63.9662C152.829 64.0331 152.484 64.0897 152.216 64.0897C152.165 64.0897 152.113 64.0897 152.067 64.0794C151.902 64.0588 151.779 63.6319 151.65 63.1844C151.316 62.0271 150.816 60.2731 148.433 59.445C147.923 59.2649 147.414 59.1724 146.925 59.1724Z" fill="white"/>
<path d="M174.053 80.8991C174.043 80.8991 174.033 80.8991 174.017 80.894L155.084 75.6115C155.038 75.596 155.002 75.56 154.991 75.5086C154.981 75.4623 155.002 75.4109 155.043 75.38C155.115 75.3286 156.865 74.0735 158.332 74.0169H158.409C159.408 74.0169 160.232 74.6959 160.896 75.236C161.194 75.4829 161.452 75.6938 161.658 75.7812C161.678 75.7915 161.699 75.7966 161.725 75.7966C161.884 75.7966 162.111 75.5806 162.368 75.3234C162.919 74.7936 163.748 73.9912 165.153 73.9912C165.405 73.9912 165.668 74.0169 165.935 74.0684C167.927 74.449 168.447 76.0075 168.787 77.0414C168.931 77.4735 169.055 77.8438 169.22 77.9158C169.353 77.9724 169.513 78.0033 169.714 78.0033C169.94 78.0033 170.198 77.9672 170.486 77.9312C170.846 77.8849 171.253 77.8284 171.706 77.8284C171.886 77.8284 172.077 77.8387 172.272 77.8592C173.744 78.0187 174.151 80.6419 174.166 80.7551C174.172 80.7963 174.156 80.8426 174.125 80.8683C174.115 80.8888 174.084 80.8991 174.053 80.8991Z" fill="#CBE4FA"/>
<path d="M165.153 74.1199C165.389 74.1199 165.642 74.1456 165.914 74.197C168.74 74.7319 168.483 77.741 169.178 78.0393C169.343 78.1113 169.523 78.1371 169.724 78.1371C170.254 78.1371 170.913 77.9622 171.716 77.9622C171.891 77.9622 172.076 77.9725 172.267 77.993C173.656 78.1473 174.053 80.7809 174.053 80.7809L155.12 75.4932C155.12 75.4932 156.896 74.2073 158.337 74.1559C158.363 74.1559 158.389 74.1559 158.409 74.1559C159.82 74.1559 160.926 75.6218 161.606 75.9098C161.642 75.9253 161.683 75.9356 161.719 75.9356C162.321 75.9253 163.073 74.1199 165.153 74.1199ZM165.153 73.8627C163.696 73.8627 162.841 74.6857 162.275 75.2309C162.064 75.4366 161.827 75.6681 161.719 75.6681C161.518 75.5858 161.256 75.3698 160.973 75.1383C160.329 74.6085 159.449 73.8884 158.409 73.8884C158.383 73.8884 158.352 73.8884 158.327 73.8884C156.824 73.945 155.043 75.2206 154.965 75.272C154.883 75.3286 154.847 75.4263 154.862 75.5241C154.878 75.6218 154.95 75.699 155.048 75.7247L173.981 81.0124C174.001 81.0175 174.027 81.0227 174.048 81.0227C174.109 81.0227 174.171 81.0021 174.218 80.9558C174.285 80.8992 174.315 80.8118 174.3 80.7243C174.285 80.6112 173.857 77.8902 172.287 77.7204C172.097 77.6998 171.901 77.6896 171.706 77.6896C171.242 77.6896 170.83 77.7461 170.47 77.7924C170.182 77.8336 169.935 77.8644 169.713 77.8644C169.528 77.8644 169.389 77.8387 169.271 77.7924C169.157 77.741 169.018 77.3295 168.905 76.9952C168.555 75.9356 168.02 74.3256 165.956 73.9347C165.683 73.8935 165.41 73.8627 165.153 73.8627Z" fill="white"/>
<path d="M16.7309 69.1061L0.651367 118.629L50.2134 134.696L66.2929 85.1731L16.7309 69.1061Z" fill="white"/>
<path d="M17.0594 69.7581L65.6379 85.508L49.8758 134.049L1.29721 118.299L17.0594 69.7581ZM16.3953 68.4619L16.0762 69.4392L0.319156 117.985L0 118.962L0.978057 119.281L49.5566 135.031L50.5347 135.35L50.8538 134.373L66.616 85.832L66.9352 84.8547L65.9571 84.5358L17.3785 68.786L16.3953 68.4619Z" fill="#B878C2"/>
<path d="M50.9463 94.9186C53.1454 93.8122 54.0305 91.1341 52.9234 88.9367C51.8162 86.7394 49.1359 85.8549 46.9369 86.9612C44.7378 88.0675 43.8526 90.7457 44.9598 92.943C46.067 95.1404 48.7472 96.0249 50.9463 94.9186Z" fill="#EFD8F2"/>
<path d="M7.03711 114.93C7.03711 114.93 22.5059 94.9517 25.893 96.0524C29.2802 97.1532 31.7408 109.482 31.7408 109.482C31.7408 109.482 38.1239 104.822 41.578 105.944C45.0321 107.065 47.2044 127.953 47.2044 127.953L7.03711 114.93Z" fill="#EFD8F2"/>
<path d="M39.9414 93.3984C39.9311 93.3984 39.9156 93.3984 39.9053 93.3932L17.3585 86.3516C17.3174 86.3362 17.2865 86.3053 17.271 86.2641C17.2607 86.223 17.271 86.1767 17.2968 86.1458C17.3637 86.0687 18.9337 84.3147 20.3751 84.3147C20.6273 84.3147 20.859 84.3661 21.07 84.4741C21.8113 84.8445 22.3466 85.3074 22.8202 85.7138C23.3093 86.1304 23.6953 86.4647 24.1226 86.5368H24.1277C24.4006 86.5368 24.7506 86.259 25.1521 85.935C25.9191 85.3229 26.9692 84.4793 28.39 84.4793C28.8945 84.4793 29.4195 84.5873 29.9446 84.8033C32.0809 85.6726 32.4567 87.3032 32.7089 88.3833C32.8324 88.908 32.9199 89.2886 33.1464 89.3298C33.2237 89.3452 33.3112 89.3503 33.409 89.3503C33.6509 89.3503 33.9546 89.3143 34.2789 89.2783C34.6856 89.232 35.1489 89.1806 35.6173 89.1806C36.4615 89.1806 37.1256 89.3555 37.6404 89.7207C39.0766 90.7288 40.0186 93.1309 40.0546 93.2286C40.0701 93.2749 40.0598 93.3264 40.0289 93.3624C40.0083 93.3881 39.9774 93.3984 39.9414 93.3984Z" fill="#EFD8F2"/>
<path d="M20.3748 84.438C20.5962 84.438 20.8124 84.4843 21.0131 84.5871C22.5111 85.3432 23.2112 86.5057 24.0966 86.66C24.1172 86.6652 24.1378 86.6652 24.1635 86.6652C24.9099 86.6652 26.2071 84.6026 28.3949 84.6026C28.8582 84.6026 29.3575 84.6951 29.9032 84.9163C33.105 86.2228 32.2402 89.2936 33.1307 89.4479C33.2131 89.4633 33.3109 89.4685 33.419 89.4685C33.975 89.4685 34.7883 89.2987 35.6274 89.2987C36.3069 89.2987 37.0018 89.4119 37.5783 89.8131C38.9991 90.811 39.9463 93.2645 39.9463 93.2645L17.3995 86.2228C17.3943 86.228 18.9747 84.438 20.3748 84.438ZM20.3748 84.1808C18.8768 84.1808 17.2708 85.9811 17.1987 86.0582C17.1421 86.1251 17.1215 86.2125 17.1421 86.3C17.1678 86.3823 17.2296 86.4491 17.312 86.4749L39.8587 93.5165C39.8845 93.5268 39.9102 93.5268 39.936 93.5268C40.008 93.5268 40.0749 93.4959 40.1264 93.4445C40.1933 93.3725 40.2139 93.2696 40.1779 93.177C40.1367 93.0742 39.1844 90.6412 37.7173 89.6073C37.1768 89.2267 36.4922 89.0467 35.6171 89.0467C35.1383 89.0467 34.675 89.0981 34.2632 89.1444C33.9441 89.1804 33.6455 89.2164 33.4087 89.2164C33.3109 89.2164 33.2337 89.2113 33.1668 89.201C33.0226 89.1753 32.9248 88.7586 32.8322 88.3523C32.5902 87.3133 32.1939 85.5799 29.9958 84.6797C29.4553 84.4585 28.9148 84.3454 28.3897 84.3454C26.9175 84.3454 25.8519 85.2044 25.0695 85.8268C24.7143 86.1097 24.3488 86.4028 24.1635 86.4028C23.7517 86.336 23.3811 86.0119 22.9023 85.6056C22.4236 85.1941 21.8779 84.7312 21.1264 84.3505C20.8999 84.2425 20.6476 84.1808 20.3748 84.1808Z" fill="white"/>
<path d="M52.9285 106.042C52.9131 106.042 52.9028 106.042 52.8873 106.036L35.4213 100.162C35.375 100.147 35.3389 100.106 35.3338 100.054C35.3286 100.003 35.3492 99.9567 35.3904 99.931C35.4625 99.8847 37.1303 98.8148 38.4996 98.8148C39.5085 98.8303 40.3064 99.5555 40.883 100.085C41.1507 100.332 41.3823 100.543 41.5676 100.631C41.5882 100.641 41.6088 100.646 41.6345 100.646C41.7787 100.646 41.9949 100.456 42.2471 100.24C42.7567 99.7921 43.534 99.1183 44.7489 99.1183C45.0371 99.1183 45.346 99.1594 45.66 99.2315C47.5132 99.6841 47.9198 101.176 48.1927 102.158C48.3059 102.565 48.4037 102.919 48.553 102.991C48.7023 103.063 48.8825 103.099 49.1398 103.099C49.32 103.099 49.5208 103.084 49.737 103.063C49.9943 103.043 50.2826 103.017 50.5915 103.017C50.8849 103.017 51.1526 103.038 51.4151 103.079C52.7895 103.3 53.0469 105.784 53.0572 105.887C53.0624 105.928 53.0418 105.975 53.0109 106C52.9851 106.031 52.9594 106.042 52.9285 106.042Z" fill="#EFD8F2"/>
<path d="M38.4996 98.9433C38.5099 98.9433 38.5253 98.9433 38.5356 98.9433C39.8895 98.9639 40.8778 100.435 41.511 100.744C41.5522 100.764 41.5934 100.774 41.6345 100.774C42.1802 100.774 42.942 99.2468 44.7489 99.2468C45.0166 99.2468 45.31 99.2828 45.6291 99.36C48.2493 99.9978 47.8632 102.806 48.4964 103.115C48.6817 103.207 48.8979 103.233 49.1398 103.233C49.5465 103.233 50.0304 103.156 50.5915 103.156C50.8437 103.156 51.1114 103.171 51.3945 103.218C52.6866 103.429 52.9285 105.913 52.9285 105.913L35.4625 100.039C35.4625 100.039 37.1509 98.9433 38.4996 98.9433ZM38.4996 98.6862C37.0891 98.6862 35.3904 99.7766 35.3183 99.8229C35.236 99.8743 35.1897 99.9721 35.2051 100.07C35.2154 100.168 35.2823 100.25 35.3801 100.281L52.8462 106.155C52.8719 106.165 52.9028 106.17 52.9285 106.17C52.9851 106.17 53.0418 106.15 53.0881 106.114C53.155 106.057 53.1911 105.975 53.1859 105.887C53.1756 105.779 52.9079 103.202 51.4357 102.966C51.1629 102.919 50.89 102.899 50.5915 102.899C50.2775 102.899 49.9841 102.925 49.7267 102.945C49.5156 102.961 49.3149 102.981 49.1398 102.981C48.903 102.981 48.7383 102.95 48.6096 102.889C48.5118 102.842 48.3986 102.431 48.3162 102.138C48.0382 101.124 47.6161 99.5863 45.6909 99.1182C45.3666 99.0411 45.0526 98.9999 44.7489 98.9999C43.4877 98.9999 42.6898 99.6943 42.1647 100.152C41.9743 100.322 41.7323 100.528 41.6345 100.528C41.4544 100.44 41.2227 100.229 40.9705 99.9978C40.3734 99.4526 39.56 98.7119 38.5408 98.6964L38.4996 98.6862Z" fill="white"/>
<path d="M297.911 64.6594L245.212 82.0751L262.642 134.733L315.34 117.317L297.911 64.6594Z" fill="white"/>
<path d="M297.592 65.314L314.698 116.997L262.974 134.09L245.868 82.4064L297.592 65.314ZM298.246 64.0178L297.268 64.3419L245.544 81.4342L244.566 81.7583L244.89 82.7356L261.996 134.419L262.32 135.396L263.298 135.072L315.022 117.98L316 117.656L315.676 116.678L298.57 64.9951L298.246 64.0178Z" fill="#57ADA7"/>
<path d="M291.178 79.0271C292.002 81.5166 290.648 84.2067 288.156 85.0297C285.665 85.8527 282.973 84.4999 282.149 82.0104C281.325 79.5209 282.679 76.8307 285.171 76.0077C287.667 75.1848 290.354 76.5324 291.178 79.0271Z" fill="#A1D9D5"/>
<path d="M265.785 127.573C265.785 127.573 266.469 100.636 270.078 99.4474C273.686 98.2541 283.59 107.312 283.59 107.312C283.59 107.312 286.139 99.2776 289.814 98.0637C293.495 96.8498 308.557 113.443 308.557 113.443L265.785 127.573Z" fill="#A1D9D5"/>
<path d="M256.56 96.4895C256.529 96.4895 256.503 96.4792 256.483 96.4638C256.447 96.4381 256.431 96.3918 256.437 96.3507C256.452 96.2066 256.776 92.8478 258.619 92.5392C258.99 92.4775 259.371 92.4466 259.788 92.4466C260.189 92.4466 260.57 92.4775 260.905 92.4981C261.193 92.5186 261.455 92.5392 261.703 92.5392C262.073 92.5392 262.336 92.4929 262.547 92.3849C262.773 92.2717 262.902 91.7779 263.056 91.2121C263.417 89.8748 263.957 87.8482 266.459 87.2207C266.891 87.1126 267.314 87.0561 267.715 87.0561C269.347 87.0561 270.351 87.9202 271.087 88.5529C271.437 88.8563 271.74 89.1187 271.957 89.1187C271.998 89.1187 272.034 89.1084 272.07 89.093C272.327 88.9644 272.646 88.6712 273.012 88.3317C273.841 87.5704 274.87 86.6189 276.178 86.5931H276.25C278.108 86.5931 280.368 88.0282 280.466 88.0899C280.507 88.1157 280.528 88.1671 280.522 88.2134C280.517 88.2597 280.481 88.306 280.435 88.3214L256.596 96.4844C256.591 96.4895 256.575 96.4895 256.56 96.4895Z" fill="#A1D9D5"/>
<path d="M276.25 86.727C278.093 86.727 280.399 88.2033 280.399 88.2033L256.56 96.3662C256.56 96.3662 256.869 92.9663 258.634 92.6679C259.041 92.6011 259.422 92.5754 259.782 92.5754C260.519 92.5754 261.157 92.6731 261.692 92.6731C262.037 92.6731 262.336 92.6319 262.598 92.5033C263.463 92.0764 262.912 88.2444 266.485 87.3494C266.927 87.2363 267.334 87.19 267.71 87.19C270.16 87.19 271.21 89.2526 271.951 89.2526C272.008 89.2526 272.065 89.2423 272.121 89.2114C272.986 88.7845 274.325 86.763 276.178 86.727C276.203 86.727 276.229 86.727 276.25 86.727ZM276.25 86.4698H276.173C274.814 86.5007 273.722 87.5089 272.924 88.2444C272.564 88.5787 272.255 88.8616 272.013 88.9851C271.993 88.9954 271.977 89.0005 271.957 89.0005C271.787 89.0005 271.488 88.7433 271.169 88.4656C270.459 87.8586 269.393 86.9328 267.715 86.9328C267.303 86.9328 266.871 86.9894 266.428 87.0974C263.854 87.7403 263.298 89.8081 262.933 91.1814C262.799 91.6752 262.665 92.1896 262.49 92.2719C262.294 92.3696 262.053 92.4108 261.702 92.4108C261.466 92.4108 261.198 92.3902 260.915 92.3696C260.58 92.3439 260.194 92.313 259.788 92.313C259.365 92.313 258.974 92.3439 258.598 92.4056C256.658 92.7297 256.323 96.1862 256.308 96.3302C256.297 96.4177 256.339 96.5 256.406 96.5565C256.452 96.5926 256.508 96.6131 256.565 96.6131C256.591 96.6131 256.622 96.608 256.647 96.5977L280.486 88.4347C280.579 88.4039 280.646 88.3216 280.656 88.2238C280.666 88.1261 280.62 88.0284 280.538 87.9769C280.44 87.9204 278.144 86.4698 276.25 86.4698Z" fill="white"/>
<path d="M280.821 96.973C280.785 96.973 280.754 96.9575 280.728 96.9318C280.692 96.8958 280.682 96.8444 280.702 96.7981C280.733 96.7106 281.505 94.7046 282.705 93.8559C283.142 93.5473 283.709 93.393 284.429 93.393C284.81 93.393 285.186 93.4341 285.515 93.4701C285.778 93.4959 286.025 93.5267 286.221 93.5267C286.303 93.5267 286.38 93.5216 286.447 93.5113C286.622 93.4804 286.699 93.1512 286.792 92.7397C286.993 91.8345 287.302 90.4714 289.088 89.7307C289.531 89.5455 289.979 89.453 290.406 89.453C291.59 89.453 292.465 90.1474 293.103 90.6514C293.438 90.9189 293.731 91.1452 293.911 91.1452C294.292 91.0783 294.611 90.8057 295.013 90.456C295.404 90.1165 295.852 89.7307 296.47 89.4169C296.65 89.3244 296.851 89.2781 297.067 89.2781C298.271 89.2781 299.589 90.7337 299.646 90.7954C299.677 90.8263 299.687 90.8726 299.672 90.9137C299.661 90.9549 299.63 90.9909 299.584 91.0012L280.852 96.9678C280.847 96.973 280.831 96.973 280.821 96.973Z" fill="#A1D9D5"/>
<path d="M297.067 89.4017C298.23 89.4017 299.548 90.8779 299.548 90.8779L280.816 96.8446C280.816 96.8446 281.593 94.7974 282.772 93.9641C283.256 93.6195 283.848 93.5269 284.424 93.5269C285.104 93.5269 285.768 93.6555 286.221 93.6555C286.313 93.6555 286.401 93.6504 286.473 93.6349C287.214 93.5012 286.478 90.95 289.134 89.8492C289.592 89.6589 290.015 89.5817 290.406 89.5817C292.213 89.5817 293.294 91.274 293.916 91.274C293.937 91.274 293.953 91.274 293.973 91.2689C294.714 91.1351 295.286 90.163 296.531 89.5303C296.701 89.4429 296.882 89.4017 297.067 89.4017ZM297.067 89.1445C296.83 89.1445 296.609 89.196 296.413 89.2988C295.785 89.6177 295.311 90.0292 294.931 90.3584C294.544 90.6928 294.236 90.9602 293.927 91.0168C293.777 91.0168 293.479 90.7802 293.185 90.5487C292.532 90.0292 291.636 89.3194 290.406 89.3194C289.958 89.3194 289.5 89.4171 289.036 89.6075C287.188 90.3739 286.864 91.8347 286.663 92.7039C286.602 92.9817 286.514 93.3623 286.421 93.3778C286.365 93.388 286.298 93.3932 286.216 93.3932C286.025 93.3932 285.783 93.3675 285.521 93.3418C285.186 93.3057 284.805 93.2646 284.419 93.2646C283.667 93.2646 283.081 93.4241 282.622 93.7532C281.397 94.6277 280.61 96.6697 280.574 96.752C280.538 96.8446 280.558 96.9474 280.625 97.0195C280.677 97.0709 280.744 97.1018 280.81 97.1018C280.836 97.1018 280.862 97.0966 280.888 97.0915L299.62 91.1248C299.702 91.0991 299.769 91.0323 299.79 90.95C299.811 90.8677 299.79 90.7751 299.733 90.7133C299.687 90.6413 298.333 89.1445 297.067 89.1445Z" fill="white"/>
</g>
<defs>
<clipPath id="clip0">
<rect width="316" height="193" fill="white"/>
</clipPath>
</defs>
</svg>
