<svg width="277" height="243" viewBox="0 0 277 243" fill="none" xmlns="http://www.w3.org/2000/svg">
<path opacity="0.6" d="M84.1771 163.091C123.685 163.091 155.713 130.958 155.713 91.3199C155.713 51.6817 123.685 19.5487 84.1771 19.5487C44.6692 19.5487 12.6416 51.6817 12.6416 91.3199C12.6416 130.958 44.6692 163.091 84.1771 163.091Z" fill="url(#paint0_linear)"/>
<path opacity="0.6" d="M207.016 98.8231C233.161 98.8231 254.355 77.5587 254.355 51.3278C254.355 25.0968 233.161 3.8324 207.016 3.8324C180.871 3.8324 159.677 25.0968 159.677 51.3278C159.677 77.5587 180.871 98.8231 207.016 98.8231Z" fill="url(#paint1_linear)"/>
<path opacity="0.22" d="M136.153 17.3382C140.925 17.3382 144.794 13.4569 144.794 8.6691C144.794 3.88129 140.925 0 136.153 0C131.381 0 127.513 3.88129 127.513 8.6691C127.513 13.4569 131.381 17.3382 136.153 17.3382Z" fill="url(#paint2_linear)"/>
<path opacity="0.22" d="M233.789 102.725C236.809 106.431 236.257 111.891 232.564 114.921C228.87 117.951 223.428 117.397 220.408 113.691C217.388 109.986 217.94 104.526 221.633 101.496C225.327 98.4714 230.769 99.0197 233.789 102.725Z" fill="url(#paint3_linear)"/>
<path opacity="0.22" d="M17.29 134.55C19.7465 137.569 19.3035 142.019 16.2948 144.483C13.2861 146.948 8.85075 146.503 6.39432 143.485C3.93789 140.466 4.38086 136.016 7.38955 133.551C10.3925 131.081 14.8279 131.531 17.29 134.55Z" fill="url(#paint4_linear)"/>
<path d="M159.389 148.708C159.389 148.708 163.755 111.654 191.466 79.8404C219.177 48.0268 226.926 42.838 227.122 38.2899C227.122 38.2899 241.498 110.125 172.902 153.037L159.389 148.708Z" fill="#C3C5FA"/>
<path d="M272.931 80.504C274.358 78.9572 275.215 77.0987 275.434 74.9978C275.491 74.438 276.36 74.5534 276.296 75.1133C276.061 77.3469 275.14 79.3843 273.621 81.0293C273.242 81.4448 272.546 80.9138 272.931 80.504Z" fill="white"/>
<path d="M161.034 155.063C161.075 155.097 161.115 155.132 161.149 155.167C161.178 155.19 161.201 155.23 161.19 155.27C161.109 155.68 160.591 155.905 160.327 155.513C160.045 155.092 160.563 154.555 160.793 154.289C161.742 153.187 162.881 152.2 163.882 151.138C167.794 146.994 171.401 142.567 174.795 137.99C181.623 128.767 187.675 118.961 193.543 109.103C199.503 99.0887 205.152 88.8843 210.479 78.5125C215.444 68.8449 220.587 59.0388 223.843 48.6324C225.661 42.8203 226.512 36.9159 227.076 30.8729C227.594 25.3436 228.094 19.7912 229.768 14.4755C229.809 14.3427 230.01 14.4235 229.97 14.5563C227.053 23.8429 227.703 33.7587 225.546 43.2012C223.331 52.915 218.976 61.9651 214.587 70.8477C205.054 90.1425 194.464 108.981 182.682 126.989C179.403 131.999 175.986 136.922 172.298 141.643C170.486 143.964 168.611 146.226 166.661 148.431C165.625 149.597 164.567 150.751 163.485 151.877C162.979 152.408 162.461 152.933 161.943 153.452C161.575 153.822 160.269 154.699 160.896 155.242C160.793 155.143 160.925 154.97 161.034 155.063Z" fill="white"/>
<path d="M202.828 95.7815C214.38 92.9187 225.258 87.7588 234.79 80.6134C234.906 80.5269 235.038 80.7058 234.923 80.7866C225.356 87.955 214.449 93.1265 202.857 96.0008C202.719 96.0296 202.696 95.8161 202.828 95.7815Z" fill="white"/>
<path d="M213.068 85.6985C219.384 83.6553 225.149 80.3019 230.056 75.8231C230.159 75.7307 230.292 75.9039 230.188 75.9962C225.264 80.4866 219.482 83.8515 213.148 85.9005C213.016 85.9409 212.936 85.7389 213.068 85.6985Z" fill="white"/>
<path d="M217.567 117.195C213.448 117.495 209.409 118.262 205.469 119.492C205.336 119.532 205.256 119.33 205.388 119.29C209.346 118.054 213.407 117.281 217.544 116.981C217.682 116.964 217.705 117.183 217.567 117.195Z" fill="white"/>
<path d="M198.508 83.8225C197.254 76.3308 198.686 68.816 200.147 61.4629C200.176 61.3244 200.389 61.3532 200.366 61.4918C198.905 68.8276 197.478 76.3135 198.726 83.7936C198.744 83.9321 198.531 83.961 198.508 83.8225Z" fill="white"/>
<path d="M180.749 116.94C177.332 107.515 176.584 97.2874 178.598 87.464C178.626 87.3255 178.839 87.3543 178.816 87.4929C176.808 97.2817 177.551 107.463 180.956 116.859C180.996 116.986 180.795 117.073 180.749 116.94Z" fill="white"/>
<path d="M166.752 134.227C164.187 129.546 163.14 124.236 163.738 118.926C163.755 118.788 163.968 118.817 163.957 118.955C163.37 124.236 164.411 129.494 166.959 134.146C167.017 134.273 166.816 134.354 166.752 134.227Z" fill="white"/>
<path d="M208.673 69.2607C205.348 63.7487 205.239 57.1979 205.239 50.9413C205.239 50.8028 205.457 50.774 205.457 50.9125C205.457 57.1171 205.549 63.6506 208.851 69.128C208.92 69.2492 208.748 69.3819 208.673 69.2607Z" fill="white"/>
<path d="M112.849 157.914C112.849 157.914 108.632 122.141 81.8819 91.4353C55.1316 60.7241 47.653 55.7143 47.4632 51.3278C47.4632 51.3278 33.5876 120.675 99.8018 162.093L112.849 157.914Z" fill="#C3C5FA"/>
<path d="M3.25315 92.0701C1.87249 90.5753 1.04984 88.7803 0.836992 86.7544C0.779464 86.2119 -0.0546853 86.3273 0.00284229 86.8698C0.232953 89.0227 1.11888 90.9908 2.58583 92.5838C2.94825 92.9821 3.62133 92.4684 3.25315 92.0701Z" fill="white"/>
<path d="M111.266 164.049C111.226 164.084 111.192 164.113 111.151 164.147C111.123 164.17 111.105 164.205 111.111 164.245C111.192 164.638 111.686 164.857 111.94 164.482C112.216 164.072 111.715 163.559 111.491 163.305C110.57 162.237 109.477 161.29 108.505 160.263C104.726 156.263 101.245 151.992 97.9719 147.571C91.3792 138.671 85.5402 129.2 79.8737 119.682C74.1209 110.014 68.6673 100.162 63.5244 90.154C58.7323 80.8212 53.7677 71.3556 50.6209 61.3128C48.8663 55.7027 48.0437 50.0061 47.5029 44.1651C47.0024 38.8263 46.5192 33.4701 44.9027 28.3333C44.8624 28.2063 44.6668 28.2871 44.7071 28.4141C47.5259 37.3833 46.8989 46.9471 48.9814 56.0664C51.1214 65.4396 55.3267 74.178 59.5607 82.7489C68.7594 101.374 78.982 119.561 90.3552 136.945C93.5192 141.782 96.8213 146.538 100.382 151.092C102.131 153.331 103.937 155.519 105.824 157.643C106.825 158.768 107.844 159.882 108.891 160.967C109.38 161.481 109.88 161.989 110.381 162.491C110.737 162.849 111.997 163.697 111.393 164.217C111.497 164.124 111.37 163.957 111.266 164.049Z" fill="white"/>
<path d="M70.9175 106.823C59.7629 104.064 49.2641 99.0774 40.0655 92.1802C39.9562 92.0994 39.8296 92.2667 39.9389 92.3476C49.1721 99.2678 59.7054 104.26 70.8945 107.031C71.0268 107.06 71.0498 106.852 70.9175 106.823Z" fill="white"/>
<path d="M61.0337 97.0857C54.9416 95.1118 49.3729 91.8739 44.6384 87.5509C44.5406 87.4585 44.414 87.6259 44.5118 87.7182C49.2636 92.0528 54.8438 95.3023 60.9589 97.2819C61.0855 97.3223 61.166 97.1261 61.0337 97.0857Z" fill="white"/>
<path d="M56.6905 127.491C60.6657 127.78 64.5661 128.518 68.3686 129.707C68.4952 129.748 68.5757 129.552 68.4492 129.511C64.6293 128.322 60.706 127.578 56.7135 127.283C56.587 127.272 56.5582 127.48 56.6905 127.491Z" fill="white"/>
<path d="M75.0936 95.2794C76.3017 88.0474 74.921 80.7982 73.5116 73.699C73.4828 73.5662 73.2757 73.5951 73.3045 73.7278C74.7139 80.8097 76.0946 88.0359 74.8865 95.2563C74.8635 95.3833 75.0706 95.4121 75.0936 95.2794Z" fill="white"/>
<path d="M92.2309 127.243C95.5273 118.147 96.2521 108.271 94.3077 98.7883C94.2789 98.6556 94.0718 98.6844 94.1006 98.8172C96.0393 108.265 95.3259 118.095 92.0354 127.162C91.9951 127.295 92.1849 127.37 92.2309 127.243Z" fill="white"/>
<path d="M105.744 143.935C108.224 139.416 109.231 134.291 108.655 129.165C108.638 129.033 108.431 129.056 108.448 129.194C109.018 134.291 108.011 139.364 105.549 143.86C105.486 143.975 105.681 144.056 105.744 143.935Z" fill="white"/>
<path d="M65.2791 81.2194C68.4891 75.8978 68.5927 69.5778 68.5984 63.5348C68.5984 63.4021 68.3913 63.3732 68.3913 63.5118C68.3913 69.5028 68.305 75.8113 65.118 81.0924C65.0432 81.2078 65.2101 81.3406 65.2791 81.2194Z" fill="white"/>
<path opacity="0.18" d="M147.814 209.825C208.889 209.825 258.399 207.768 258.399 205.23C258.399 202.693 208.889 200.636 147.814 200.636C86.7397 200.636 37.229 202.693 37.229 205.23C37.229 207.768 86.7397 209.825 147.814 209.825Z" fill="#B2AECC"/>
<path opacity="0.18" d="M46.8651 228.346C61.0543 228.346 72.5569 227.02 72.5569 225.385C72.5569 223.75 61.0543 222.424 46.8651 222.424C32.676 222.424 21.1733 223.75 21.1733 225.385C21.1733 227.02 32.676 228.346 46.8651 228.346Z" fill="#B2AECC"/>
<path opacity="0.18" d="M101.602 239.739C101.602 241.54 87.3238 243 69.7146 243C52.1054 243 37.8213 241.54 37.8213 239.739C37.8213 237.938 52.0996 236.478 69.7146 236.478C87.3295 236.478 101.602 237.944 101.602 239.739Z" fill="#B2AECC"/>
<path opacity="0.18" d="M255.149 230.262C255.149 232.063 240.871 233.523 223.262 233.523C205.652 233.523 191.374 232.063 191.374 230.262C191.374 228.462 205.652 227.001 223.262 227.001C240.871 227.001 255.149 228.462 255.149 230.262Z" fill="#B2AECC"/>
<path d="M107.436 117.552C107.436 117.552 90.8676 120.594 80.3861 103.752C69.8988 86.9104 75.5423 66.7152 75.5423 66.7152C75.5423 66.7152 95.7632 70.0224 106.245 87.6954C116.715 105.374 107.436 117.552 107.436 117.552Z" fill="#D4D3FB"/>
<path d="M71.5843 79.0899C71.5095 79.0668 71.4405 79.0495 71.3657 79.0264C71.3024 79.0091 71.2334 79.0437 71.2161 79.1072C71.1988 79.1707 71.2334 79.24 71.2966 79.2573C71.3714 79.2804 71.4405 79.2977 71.5152 79.3208C71.5785 79.3381 71.6476 79.3035 71.6648 79.24C71.6821 79.1765 71.6476 79.1072 71.5843 79.0899Z" fill="#F9F2F4"/>
<path d="M77.0667 70.2358C80.5931 74.0509 83.8204 78.1315 86.8061 82.3853C89.7688 86.6102 92.4898 90.9909 95.0786 95.4524C97.6846 99.9428 100.153 104.508 102.592 109.091C105.037 113.685 107.453 118.297 109.949 122.868C112.44 127.428 115.006 131.941 117.756 136.345C118.095 136.887 118.435 137.424 118.78 137.961C118.843 138.059 118.999 137.973 118.941 137.874C116.134 133.482 113.516 128.963 110.996 124.397C108.482 119.838 106.061 115.232 103.621 110.632C101.177 106.02 98.7143 101.42 96.1256 96.8838C93.5541 92.3819 90.8503 87.9492 87.9279 83.6666C85.0343 79.4302 81.9105 75.3438 78.4934 71.5172C78.0677 71.0439 77.642 70.5706 77.2105 70.1031C77.1185 70.0223 76.9862 70.1493 77.0667 70.2358Z" fill="#F9F2F4"/>
<path d="M86.7429 81.9868C87.5253 78.6912 88.3134 75.4013 89.0958 72.1057C89.1246 71.9903 88.952 71.9383 88.9232 72.0537C88.1409 75.3494 87.3527 78.6393 86.5704 81.9349C86.5416 82.0503 86.7142 82.1023 86.7429 81.9868Z" fill="#F9F2F4"/>
<path d="M92.9789 91.6258C95.9531 88.6995 97.9148 84.8036 98.5303 80.6711C98.7086 79.4648 98.7719 78.2412 98.7201 77.0234C98.7144 76.9079 98.5361 76.9021 98.5418 77.0176C98.7259 81.1732 97.5063 85.3462 95.1477 88.7688C94.4746 89.75 93.7037 90.6619 92.8523 91.493C92.7661 91.5796 92.8926 91.7066 92.9789 91.6258Z" fill="#F9F2F4"/>
<path d="M89.2396 86.0793C84.7064 88.4919 79.3448 89.9348 74.3284 88.186C73.0685 87.7473 71.8892 87.1124 70.8365 86.2813C70.7444 86.2121 70.6524 86.3679 70.7444 86.4371C74.7886 89.6231 80.2998 89.6924 85.0055 88.1225C86.5012 87.6261 87.9337 86.9797 89.3258 86.2351C89.4294 86.1832 89.3431 86.0274 89.2396 86.0793Z" fill="#F9F2F4"/>
<path d="M96.7239 98.7541C90.4074 100.757 83.6767 101.386 77.0955 100.584C75.1914 100.353 73.3045 100.001 71.4406 99.5332C71.3255 99.5044 71.2795 99.6775 71.3888 99.7064C77.8607 101.328 84.6662 101.536 91.2301 100.318C93.0997 99.9719 94.9521 99.5044 96.7642 98.9272C96.8735 98.8926 96.8332 98.7194 96.7239 98.7541Z" fill="#F9F2F4"/>
<path d="M100.774 105.847C104.525 102.69 108.287 99.458 111.227 95.4986C113.764 92.0818 115.604 88.082 116.001 83.8052C116.22 81.508 115.984 79.182 115.219 77.0003C115.179 76.8907 115.006 76.9311 115.041 77.0407C116.421 80.9713 116.007 85.2712 114.563 89.1151C112.929 93.4554 109.978 97.1205 106.699 100.33C104.766 102.217 102.713 103.971 100.647 105.709C100.561 105.79 100.682 105.922 100.774 105.847Z" fill="#F9F2F4"/>
<path d="M115.599 189.894C115.599 189.894 93.4507 208.658 63.427 192.497C33.4034 176.337 24.6074 141.326 24.6074 141.326C24.6074 141.326 57.634 128.916 88.3595 146.318C119.079 163.731 115.599 189.894 115.599 189.894Z" fill="#D4D3FB"/>
<path d="M29.2445 163.2C29.1179 163.229 28.9914 163.264 28.8648 163.293C28.7555 163.322 28.6865 163.437 28.7095 163.541C28.7383 163.651 28.8476 163.72 28.9569 163.697C29.0834 163.668 29.21 163.633 29.3366 163.604C29.4459 163.576 29.5149 163.46 29.4919 163.356C29.4689 163.247 29.3538 163.177 29.2445 163.2Z" fill="#F9F2F4"/>
<path d="M29.8885 145.274C38.4083 147.94 46.7096 151.271 54.7922 155.063C62.8173 158.826 70.6238 163.039 78.2922 167.478C86.0124 171.951 93.5945 176.655 101.142 181.411C108.713 186.178 116.255 190.997 123.877 195.678C131.482 200.353 139.168 204.896 147.032 209.109C147.998 209.628 148.965 210.142 149.937 210.65C150.115 210.742 150.276 210.477 150.098 210.385C142.154 206.229 134.399 201.727 126.736 197.069C119.091 192.417 111.543 187.615 103.978 182.836C96.3904 178.046 88.791 173.284 81.0593 168.736C73.3736 164.217 65.5613 159.911 57.542 156.032C49.6032 152.194 41.4573 148.766 33.0928 145.978C32.0515 145.632 31.0103 145.297 29.969 144.968C29.7849 144.916 29.6929 145.216 29.8885 145.274Z" fill="#F9F2F4"/>
<path d="M54.361 154.526C52.7214 148.933 51.0876 143.34 49.4481 137.747C49.3906 137.557 49.0914 137.626 49.1432 137.822C50.7827 143.415 52.4165 149.008 54.0561 154.601C54.1193 154.791 54.4185 154.716 54.361 154.526Z" fill="#F9F2F4"/>
<path d="M71.8951 163.57C73.8452 156.644 73.4483 149.14 70.8481 142.439C70.0887 140.483 69.1395 138.607 68.0234 136.829C67.9141 136.662 67.6438 136.806 67.7473 136.979C71.5671 143.034 73.3045 150.306 72.7004 157.446C72.5279 159.489 72.1539 161.509 71.5959 163.483C71.5441 163.679 71.8375 163.766 71.8951 163.57Z" fill="#F9F2F4"/>
<path d="M61.5862 158.491C56.8747 165.988 50.0865 172.741 41.1064 174.438C38.8514 174.865 36.5445 174.923 34.2722 174.588C34.0766 174.559 34.0708 174.871 34.2664 174.9C43.0279 176.187 51.3176 171.558 57.007 165.174C58.8134 163.149 60.4069 160.95 61.8509 158.652C61.9602 158.485 61.6955 158.323 61.5862 158.491Z" fill="#F9F2F4"/>
<path d="M83.5676 170.998C75.8359 179.419 66.315 186.126 55.8105 190.581C52.7673 191.868 49.6436 192.965 46.468 193.865C46.2782 193.917 46.3472 194.223 46.5428 194.171C57.5996 191.043 67.9373 185.508 76.6988 178.057C79.2012 175.933 81.5656 173.647 83.7862 171.229C83.9127 171.079 83.7056 170.854 83.5676 170.998Z" fill="#F9F2F4"/>
<path d="M95.6656 178.12C98.5708 170.184 101.447 162.127 102.46 153.689C103.334 146.411 102.672 138.855 99.6293 132.126C97.9955 128.513 95.6599 125.234 92.6569 122.637C92.5073 122.504 92.2772 122.718 92.4326 122.851C97.8459 127.537 100.895 134.313 102.011 141.303C103.271 149.187 101.988 157.198 99.8248 164.805C98.5477 169.284 96.9715 173.67 95.3722 178.04C95.2974 178.224 95.5966 178.311 95.6656 178.12Z" fill="#F9F2F4"/>
<path d="M182.601 172.211C182.601 172.211 170.486 154.613 184.407 133.719C198.329 112.826 224.487 108.849 224.487 108.849C224.487 108.849 231.195 133.979 216.318 155.3C201.436 176.62 182.601 172.211 182.601 172.211Z" fill="#D4D3FB"/>
<path d="M208.201 110.702C208.19 110.609 208.172 110.511 208.161 110.419C208.149 110.338 208.069 110.275 207.988 110.286C207.908 110.298 207.844 110.378 207.856 110.459C207.867 110.557 207.885 110.65 207.896 110.748C207.908 110.829 207.988 110.892 208.069 110.881C208.155 110.863 208.213 110.783 208.201 110.702Z" fill="#F9F2F4"/>
<path d="M221.231 112.445C218.683 118.511 215.662 124.369 212.32 130.031C209.001 135.653 205.376 141.09 201.591 146.405C197.783 151.756 193.813 156.991 189.809 162.191C185.794 167.414 181.744 172.609 177.786 177.873C173.84 183.125 169.98 188.446 166.344 193.924C165.895 194.599 165.452 195.274 165.015 195.95C164.935 196.071 165.119 196.209 165.199 196.088C168.795 190.553 172.626 185.174 176.572 179.881C180.507 174.6 184.546 169.4 188.567 164.182C192.6 158.953 196.615 153.707 200.481 148.356C204.324 143.035 208.017 137.604 211.417 131.993C214.782 126.435 217.86 120.698 220.483 114.753C220.811 114.015 221.127 113.276 221.438 112.531C221.501 112.393 221.289 112.312 221.231 112.445Z" fill="#F9F2F4"/>
<path d="M212.746 129.76C216.939 128.951 221.139 128.149 225.333 127.341C225.476 127.312 225.448 127.087 225.298 127.116C221.104 127.918 216.905 128.726 212.711 129.534C212.573 129.558 212.602 129.788 212.746 129.76Z" fill="#F9F2F4"/>
<path d="M204.905 141.99C209.818 143.912 215.317 144.154 220.391 142.723C221.875 142.307 223.308 141.742 224.683 141.043C224.815 140.98 224.729 140.766 224.596 140.83C219.908 143.202 214.477 143.964 209.317 143.012C207.839 142.74 206.389 142.325 204.991 141.776C204.853 141.725 204.767 141.938 204.905 141.99Z" fill="#F9F2F4"/>
<path d="M209.34 134.781C204.209 130.793 199.762 125.327 199.164 118.615C199.014 116.929 199.135 115.232 199.537 113.587C199.572 113.443 199.348 113.42 199.307 113.559C197.748 119.902 200.538 126.314 204.784 130.949C206.13 132.421 207.626 133.748 209.196 134.966C209.317 135.058 209.455 134.873 209.34 134.781Z" fill="#F9F2F4"/>
<path d="M198.657 150.03C193.066 143.756 188.849 136.288 186.346 128.259C185.622 125.933 185.046 123.561 184.615 121.166C184.586 121.021 184.362 121.05 184.39 121.2C185.886 129.54 189.188 137.523 194.003 144.489C195.378 146.475 196.874 148.373 198.479 150.174C198.571 150.284 198.755 150.14 198.657 150.03Z" fill="#F9F2F4"/>
<path d="M192.6 158.411C198.18 161.106 203.852 163.79 209.938 165.135C215.185 166.295 220.742 166.341 225.868 164.586C228.623 163.64 231.178 162.162 233.283 160.142C233.387 160.038 233.249 159.859 233.145 159.957C229.343 163.599 224.188 165.354 219.005 165.683C213.16 166.052 207.413 164.54 202.017 162.41C198.841 161.158 195.758 159.686 192.68 158.197C192.554 158.134 192.467 158.347 192.6 158.411Z" fill="#F9F2F4"/>
<path d="M242.729 100.699C242.729 100.699 237.034 101.749 233.427 95.9543C229.82 90.1596 231.758 83.2162 231.758 83.2162C231.758 83.2162 238.713 84.3532 242.315 90.4308C245.922 96.5084 242.729 100.699 242.729 100.699Z" fill="#D4D3FB"/>
<path d="M230.401 87.4755C230.378 87.4697 230.349 87.4582 230.326 87.4524C230.303 87.4466 230.28 87.4582 230.274 87.4813C230.268 87.5043 230.28 87.5274 230.303 87.5332C230.326 87.539 230.355 87.5505 230.378 87.5563C230.401 87.5621 230.424 87.5505 230.429 87.5274C230.435 87.5043 230.424 87.4813 230.401 87.4755Z" fill="#F9F2F4"/>
<path d="M232.282 84.4284C233.496 85.7386 234.606 87.1411 235.63 88.6071C236.648 90.0616 237.586 91.568 238.478 93.0975C239.375 94.6385 240.221 96.2142 241.061 97.7899C241.901 99.3713 242.735 100.959 243.592 102.528C244.449 104.098 245.329 105.651 246.278 107.163C246.393 107.348 246.514 107.533 246.629 107.717C246.652 107.752 246.704 107.723 246.681 107.688C245.715 106.176 244.817 104.624 243.949 103.054C243.086 101.484 242.251 99.9023 241.412 98.3209C240.572 96.7337 239.726 95.1522 238.834 93.5938C237.948 92.047 237.022 90.5233 236.015 89.0515C235.02 87.597 233.945 86.1887 232.771 84.8728C232.627 84.7112 232.478 84.5496 232.328 84.388C232.299 84.3591 232.259 84.3995 232.282 84.4284Z" fill="#F9F2F4"/>
<path d="M235.613 88.4684C235.883 87.3372 236.154 86.2001 236.424 85.0689C236.435 85.0285 236.372 85.0112 236.366 85.0516C236.096 86.1828 235.826 87.3198 235.555 88.4511C235.544 88.4915 235.601 88.5088 235.613 88.4684Z" fill="#F9F2F4"/>
<path d="M237.759 91.7871C238.783 90.7829 239.456 89.4381 239.669 88.0182C239.732 87.6027 239.749 87.1813 239.732 86.7658C239.732 86.7254 239.669 86.7254 239.669 86.7658C239.732 88.1972 239.312 89.6285 238.501 90.806C238.271 91.1407 238.006 91.4582 237.713 91.741C237.684 91.7698 237.73 91.8102 237.759 91.7871Z" fill="#F9F2F4"/>
<path d="M236.47 89.8769C234.911 90.708 233.064 91.2044 231.344 90.6041C230.913 90.454 230.504 90.2347 230.142 89.9519C230.113 89.9288 230.079 89.9808 230.108 90.0039C231.5 91.1005 233.392 91.1236 235.015 90.581C235.527 90.4079 236.021 90.1886 236.499 89.9346C236.539 89.9115 236.51 89.8596 236.47 89.8769Z" fill="#F9F2F4"/>
<path d="M239.047 94.2342C236.873 94.921 234.56 95.1403 232.299 94.8633C231.643 94.7825 230.993 94.6613 230.355 94.4997C230.315 94.4881 230.297 94.5516 230.338 94.5574C232.564 95.1173 234.905 95.1865 237.16 94.7652C237.805 94.644 238.438 94.4824 239.065 94.2861C239.099 94.2861 239.082 94.2226 239.047 94.2342Z" fill="#F9F2F4"/>
<path d="M240.439 96.6761C241.728 95.5911 243.022 94.4771 244.035 93.115C244.909 91.9433 245.536 90.5639 245.674 89.0921C245.749 88.3014 245.669 87.5049 245.404 86.7546C245.392 86.7142 245.329 86.7315 245.341 86.7661C245.818 88.1167 245.674 89.5943 245.174 90.9218C244.61 92.4166 243.598 93.6749 242.47 94.7773C241.809 95.4295 241.101 96.0297 240.388 96.63C240.365 96.6588 240.411 96.6992 240.439 96.6761Z" fill="#F9F2F4"/>
<path opacity="0.18" d="M217.94 211.897C217.94 213.697 203.662 215.158 186.053 215.158C168.443 215.158 154.165 213.697 154.165 211.897C154.165 210.096 168.443 208.636 186.053 208.636C203.662 208.636 217.94 210.096 217.94 211.897Z" fill="#B2AECC"/>
<path d="M181.232 205.242H96.6031C91.5464 205.242 87.4504 201.132 87.4504 196.059V51.997C87.4504 46.9237 91.5464 42.8142 96.6031 42.8142H181.232C186.289 42.8142 190.385 46.9237 190.385 51.997V196.059C190.385 201.132 186.289 205.242 181.232 205.242Z" fill="#2E2562"/>
<path d="M182.101 59.2119H142.516H92.5588V113.576V157.077V188.412H102.845H140.606H149.666H184.54V149.747V139.791V98.2979V59.2119H182.101Z" fill="#E7E4FC"/>
<path d="M144.165 199.135C144.861 196.1 142.973 193.073 139.948 192.375C136.923 191.676 133.907 193.57 133.211 196.605C132.514 199.64 134.402 202.666 137.427 203.365C140.452 204.064 143.469 202.17 144.165 199.135Z" fill="#5758DB"/>
<path d="M124.671 51.2353C124.671 52.1876 123.9 52.961 122.951 52.961C122.001 52.961 121.23 52.1876 121.23 51.2353C121.23 50.2829 122.001 49.5095 122.951 49.5095C123.9 49.5095 124.671 50.2829 124.671 51.2353Z" fill="#5758DB"/>
<path d="M158.969 52.4649H128.485C127.766 52.4649 127.173 51.8704 127.173 51.149C127.173 50.4275 127.766 49.833 128.485 49.833H158.969C159.688 49.833 160.28 50.4275 160.28 51.149C160.28 51.8704 159.688 52.4649 158.969 52.4649Z" fill="#5758DB"/>
<path d="M45.1735 145.343L45.6682 203.943H43.9424L44.4314 145.343H45.1735Z" fill="#DD5366"/>
<path d="M44.9891 167.686H44.6209C44.6209 157.972 37.7521 153.412 37.6831 153.372L37.8845 153.06C37.9477 153.1 44.9891 157.77 44.9891 167.686Z" fill="#DD5366"/>
<path d="M44.9834 158.595L44.6152 158.543C44.6267 158.462 45.8118 150.353 51.8119 149.978L51.8349 150.347C46.1455 150.705 44.9949 158.52 44.9834 158.595Z" fill="#DD5366"/>
<path d="M44.6207 176.337C44.0225 173.255 42.1413 171.258 39.0348 170.386C36.6935 169.734 34.4959 170 34.4786 170.005L34.4326 169.636C34.5247 169.625 43.4932 168.568 44.9889 176.262L44.6207 176.337Z" fill="#DD5366"/>
<path d="M44.9775 170.508L44.6323 170.375C44.6553 170.323 46.7781 164.996 52.3928 165.371L52.3698 165.741C47.0197 165.377 44.9948 170.456 44.9775 170.508Z" fill="#DD5366"/>
<path d="M44.9662 184.25L44.644 184.071C44.6555 184.054 45.7371 182.069 47.3939 180.112C49.6374 177.463 51.8177 176.124 53.8657 176.124V176.493C49.2175 176.499 45.0065 184.175 44.9662 184.25Z" fill="#DD5366"/>
<path d="M45.1784 196.758C44.1142 192.498 41.3183 192.446 41.2896 192.446V192.077C41.3183 192.077 44.4018 192.129 45.5351 196.665L45.1784 196.758Z" fill="#DD5366"/>
<path d="M35.3877 200.364H53.9749L51.7025 225.085H38.9889L35.3877 200.364Z" fill="#836FF2"/>
<path d="M33.4893 200.364H56.6326L55.3037 207.175H34.8181L33.4893 200.364Z" fill="#9486FA"/>
<path d="M41.8482 144.974C41.8482 144.974 34.4559 143.86 34.8241 139.04C35.1923 134.221 32.6035 130.879 32.6035 130.879C32.6035 130.879 54.044 132.732 44.8051 144.974H41.8482Z" fill="#5758DB"/>
<path d="M37.781 169.821C37.781 169.821 24.843 170.935 19.6655 177.607C19.6655 177.613 20.0337 161.291 37.781 169.821Z" fill="#5758DB"/>
<path d="M50.3507 185.399C50.3507 185.399 55.8964 183.916 56.6327 185.399C57.3749 186.882 51.8292 194.299 51.8292 194.299C51.8292 194.299 48.8723 191.332 46.2835 190.963C43.6948 190.593 37.4128 187.252 40.0015 185.768C42.5845 184.291 50.3507 185.399 50.3507 185.399Z" fill="#5758DB"/>
<path d="M39.5414 143.918C39.5414 143.918 35.572 142.856 35.0427 143.918C34.5135 144.98 38.4829 150.29 38.4829 150.29C38.4829 150.29 40.5999 148.166 42.4523 147.9C44.3047 147.635 48.8033 145.245 46.9509 144.183C45.0985 143.121 39.5414 143.918 39.5414 143.918Z" fill="#5758DB"/>
<path d="M48.1299 166.485C48.1299 166.485 58.1109 164.632 64.0248 173.163C64.0248 173.163 60.6997 153.874 48.1299 166.485Z" fill="#5758DB"/>
<path d="M38.5172 153.874C38.5172 153.874 27.7941 149.424 21.8802 157.954C21.8802 157.954 21.5121 152.39 25.5793 150.168C29.6465 147.94 35.1921 146.826 38.5172 153.874Z" fill="#5758DB"/>
<path d="M50.73 150.341C50.73 150.341 52.4846 151.755 54.9985 151.045C57.5125 150.335 59.733 152.436 59.733 152.436C59.733 152.436 57.5297 146.515 50.73 150.341Z" fill="#5758DB"/>
<path d="M49.9766 177.982C49.9766 177.982 56.6325 175.016 60.3258 178.727C60.3315 178.727 53.3074 168.338 49.9766 177.982Z" fill="#5758DB"/>
<path d="M39.9957 190.593C39.9957 190.593 30.751 189.848 30.0146 198.754C30.0146 198.754 32.9716 196.157 37.0388 196.901C41.106 197.64 44.805 192.821 39.9957 190.593Z" fill="#5758DB"/>
<path d="M241.849 154.838L238.138 169.013C237.684 170.745 238.397 172.569 239.893 173.538L252.187 181.463C255.748 183.76 254.298 189.283 250.075 189.526L235.492 190.363C233.709 190.467 232.196 191.708 231.747 193.439L228.036 207.614C226.961 211.718 221.277 212.047 219.741 208.093L214.437 194.438C213.787 192.77 212.147 191.708 210.364 191.811L195.781 192.648C191.558 192.891 189.487 187.569 192.766 184.88L204.076 175.599C205.457 174.467 205.952 172.569 205.307 170.901L200.003 157.245C198.467 153.291 202.874 149.672 206.435 151.964L218.729 159.888C220.23 160.858 222.18 160.742 223.561 159.611L234.871 150.33C238.133 147.646 242.925 150.728 241.849 154.838Z" fill="#D3B25A"/>
<path d="M241.463 153.47L237.753 167.645C237.298 169.376 238.012 171.206 239.507 172.17L251.801 180.094C255.362 182.392 253.912 187.915 249.69 188.158L235.107 188.994C233.323 189.098 231.81 190.339 231.362 192.071L227.651 206.246C226.575 210.35 220.892 210.679 219.356 206.725L214.051 193.069C213.401 191.401 211.762 190.339 209.979 190.443L195.395 191.28C191.173 191.522 189.102 186.201 192.381 183.511L203.691 174.23C205.071 173.099 205.566 171.2 204.922 169.532L199.618 155.876C198.082 151.923 202.488 148.304 206.049 150.595L218.343 158.52C219.844 159.49 221.795 159.374 223.175 158.243L234.485 148.962C237.747 146.278 242.539 149.366 241.463 153.47Z" fill="#ECC649"/>
<path opacity="0.53" d="M213.931 160.188C215.317 160.765 216.663 161.417 217.987 162.104C218.153 162.191 218.32 162.277 218.476 162.347L218.711 162.462L218.953 162.554C219.275 162.687 219.615 162.768 219.954 162.837C220.633 162.976 221.329 162.987 222.008 162.878C222.687 162.78 223.354 162.566 223.958 162.237C224.263 162.075 224.562 161.891 224.832 161.671L225.039 161.51L225.252 161.331L225.684 160.973C226.834 160.021 228.002 159.091 229.239 158.231C228.267 159.386 227.237 160.465 226.179 161.521C225.908 161.787 225.672 162.047 225.362 162.312C225.068 162.578 224.74 162.808 224.401 163.022C223.711 163.432 222.94 163.691 222.152 163.818C221.358 163.928 220.541 163.905 219.764 163.715C219.379 163.611 218.999 163.489 218.637 163.322L218.366 163.195L218.107 163.051C217.929 162.953 217.78 162.849 217.618 162.751C216.364 161.937 215.127 161.106 213.931 160.188Z" fill="white"/>
<path opacity="0.53" d="M208.149 155.184C207.459 154.832 206.78 154.445 206.107 154.047C206.021 153.995 205.934 153.949 205.86 153.903L205.739 153.833L205.618 153.776C205.457 153.695 205.296 153.631 205.141 153.579C204.824 153.47 204.513 153.418 204.226 153.418C203.938 153.412 203.668 153.464 203.443 153.568C203.328 153.62 203.225 153.677 203.133 153.758L203.064 153.816L202.995 153.885L202.851 154.012C202.465 154.359 202.069 154.693 201.631 154.993C201.913 154.543 202.23 154.133 202.558 153.735C202.644 153.631 202.713 153.533 202.816 153.435C202.914 153.337 203.029 153.256 203.15 153.187C203.403 153.048 203.708 152.991 204.042 152.985C204.381 152.991 204.744 153.054 205.112 153.198C205.296 153.273 205.48 153.354 205.664 153.452L205.802 153.527L205.934 153.614C206.026 153.672 206.107 153.729 206.188 153.781C206.843 154.232 207.499 154.693 208.149 155.184Z" fill="white"/>
<path opacity="0.53" d="M196.834 183.84C196.184 184.262 195.51 184.66 194.832 185.047C194.745 185.093 194.659 185.145 194.584 185.191L194.469 185.26L194.36 185.335C194.21 185.433 194.078 185.543 193.951 185.653C193.698 185.872 193.497 186.115 193.359 186.368C193.209 186.617 193.117 186.876 193.1 187.125C193.089 187.252 193.089 187.373 193.112 187.494L193.129 187.586L193.152 187.679L193.192 187.869C193.301 188.377 193.388 188.891 193.428 189.416C193.181 188.948 192.985 188.469 192.801 187.979C192.755 187.852 192.703 187.742 192.674 187.604C192.634 187.471 192.623 187.332 192.628 187.188C192.634 186.899 192.738 186.605 192.899 186.311C193.071 186.022 193.313 185.739 193.618 185.491C193.773 185.37 193.934 185.249 194.113 185.139L194.245 185.058L194.383 184.983C194.475 184.931 194.567 184.891 194.659 184.845C195.361 184.493 196.086 184.152 196.834 183.84Z" fill="white"/>
<g opacity="0.93">
<g opacity="0.93">
<path opacity="0.93" d="M142.527 76.5849L147.394 90.4024C147.987 92.0877 149.597 93.2016 151.381 93.1555L165.987 92.7803C170.215 92.6706 172.114 98.0556 168.754 100.641L157.156 109.559C155.741 110.65 155.183 112.525 155.782 114.216L160.648 128.034C162.058 132.039 157.542 135.514 154.056 133.107L142.021 124.796C140.554 123.78 138.598 123.832 137.183 124.923L125.585 133.84C122.226 136.42 117.537 133.182 118.74 129.113L122.899 115.059C123.405 113.345 122.755 111.492 121.288 110.482L109.253 102.171C105.767 99.7641 107.389 94.2867 111.618 94.1771L126.224 93.8019C128.007 93.7557 129.561 92.561 130.067 90.8468L134.226 76.7927C135.428 72.7294 141.118 72.5793 142.527 76.5849Z" fill="#E7E4FC"/>
</g>
</g>
<path d="M221.587 202.662C193.33 199.863 172.344 202.212 168.674 202.679C168.478 202.697 168.288 202.72 168.098 202.754C165.699 203.21 163.864 205.34 163.864 207.874C163.864 210.742 166.2 213.086 169.059 213.086H221.582C224.441 213.086 226.776 210.742 226.776 207.874C226.782 205.005 224.447 202.662 221.587 202.662Z" fill="#ECC649"/>
<path d="M194.078 213.086C194.078 213.086 186.191 211.926 186.576 207.1C186.962 202.275 194.849 201.311 194.849 201.311C194.849 201.311 172.724 200.734 169.646 205.946C166.562 211.152 180.415 213.853 194.078 213.086Z" fill="url(#paint5_linear)"/>
<path d="M194.843 201.312C194.843 201.312 201.769 201.502 201.769 207.297C201.769 212.139 194.072 213.086 194.072 213.086C194.072 213.086 214.488 215.025 218.003 210.096C221.518 205.167 208.523 201.722 194.843 201.312Z" fill="url(#paint6_linear)"/>
<path opacity="0.34" d="M174.559 165.025H108.247C107.384 165.025 106.67 164.315 106.67 163.443C106.67 162.578 107.378 161.862 108.247 161.862H174.553C175.416 161.862 176.129 162.572 176.129 163.443C176.129 164.315 175.422 165.025 174.559 165.025Z" fill="#C3C5FA"/>
<path opacity="0.34" d="M174.559 170.911H108.247C107.384 170.911 106.67 170.202 106.67 169.33C106.67 168.464 107.378 167.749 108.247 167.749H174.553C175.416 167.749 176.129 168.458 176.129 169.33C176.129 170.202 175.422 170.911 174.559 170.911Z" fill="#C3C5FA"/>
<path opacity="0.34" d="M131.563 176.504H108.247C107.384 176.504 106.67 175.795 106.67 174.923C106.67 174.057 107.378 173.342 108.247 173.342H131.563C132.426 173.342 133.139 174.051 133.139 174.923C133.139 175.795 132.431 176.504 131.563 176.504Z" fill="#C3C5FA"/>
<path d="M109.42 152.079L110.214 153.695L111.992 153.955C112.406 154.012 112.567 154.526 112.268 154.815L110.985 156.073L111.29 157.851C111.359 158.26 110.927 158.578 110.559 158.382L108.972 157.545L107.384 158.382C107.016 158.578 106.584 158.26 106.653 157.851L106.958 156.073L105.675 154.815C105.376 154.52 105.543 154.012 105.951 153.955L107.729 153.695L108.523 152.079C108.701 151.704 109.236 151.704 109.42 152.079Z" fill="#FFD255"/>
<path opacity="0.12" d="M112.112 153.989C112.089 154.076 112.049 154.162 111.974 154.232L110.691 155.49L110.996 157.268C111.065 157.677 110.634 157.995 110.266 157.799L108.678 156.962L107.09 157.799C106.946 157.874 106.785 157.874 106.659 157.816L106.653 157.851C106.584 158.26 107.015 158.578 107.383 158.382L108.971 157.545L110.559 158.382C110.927 158.578 111.359 158.26 111.29 157.851L110.985 156.073L112.268 154.815C112.532 154.555 112.429 154.122 112.112 153.989Z" fill="#5D5D5D"/>
<path opacity="0.17" d="M108.206 153.648C108.419 153.181 108.638 152.713 108.851 152.246C108.897 152.142 108.747 152.055 108.701 152.159C108.488 152.627 108.27 153.094 108.057 153.562C108.011 153.66 108.16 153.747 108.206 153.648Z" fill="white"/>
<path opacity="0.17" d="M107.24 155.548C106.866 155.196 106.486 154.849 106.112 154.497C106.032 154.422 105.899 154.538 105.98 154.613C106.354 154.965 106.734 155.311 107.107 155.663C107.188 155.744 107.32 155.623 107.24 155.548Z" fill="white"/>
<path d="M118.504 152.079L119.298 153.695L121.075 153.955C121.489 154.012 121.65 154.526 121.351 154.815L120.068 156.073L120.373 157.851C120.442 158.26 120.011 158.578 119.643 158.382L118.055 157.545L116.467 158.382C116.099 158.578 115.668 158.26 115.737 157.851L116.042 156.073L114.759 154.815C114.46 154.52 114.626 154.012 115.035 153.955L116.812 153.695L117.606 152.079C117.785 151.704 118.32 151.704 118.504 152.079Z" fill="#FFD255"/>
<path opacity="0.12" d="M121.196 153.989C121.173 154.076 121.133 154.162 121.058 154.232L119.775 155.49L120.08 157.268C120.149 157.677 119.717 157.995 119.349 157.799L117.762 156.962L116.174 157.799C116.03 157.874 115.869 157.874 115.742 157.816L115.737 157.851C115.668 158.26 116.099 158.578 116.467 158.382L118.055 157.545L119.643 158.382C120.011 158.578 120.442 158.26 120.373 157.851L120.068 156.073L121.351 154.815C121.616 154.555 121.512 154.122 121.196 153.989Z" fill="#5D5D5D"/>
<path opacity="0.17" d="M117.29 153.648C117.503 153.181 117.721 152.713 117.934 152.246C117.98 152.142 117.831 152.055 117.785 152.159C117.572 152.627 117.353 153.094 117.14 153.562C117.094 153.66 117.244 153.747 117.29 153.648Z" fill="white"/>
<path opacity="0.17" d="M116.323 155.548C115.95 155.196 115.57 154.849 115.196 154.497C115.115 154.422 114.983 154.538 115.064 154.613C115.438 154.965 115.817 155.311 116.191 155.663C116.272 155.744 116.404 155.623 116.323 155.548Z" fill="white"/>
<path d="M127.587 152.223L128.381 153.839L130.159 154.099C130.573 154.156 130.734 154.67 130.435 154.959L129.152 156.217L129.457 157.995C129.526 158.404 129.095 158.722 128.726 158.526L127.133 157.683L125.545 158.52C125.177 158.716 124.745 158.399 124.815 157.989L125.119 156.211L123.837 154.953C123.537 154.659 123.704 154.151 124.113 154.093L125.89 153.833L126.684 152.217C126.868 151.848 127.403 151.848 127.587 152.223Z" fill="#FFD255"/>
<path opacity="0.12" d="M130.28 154.133C130.257 154.22 130.216 154.306 130.142 154.375L128.859 155.634L129.164 157.411C129.233 157.821 128.801 158.138 128.433 157.942L126.845 157.105L125.258 157.942C125.114 158.017 124.953 158.017 124.826 157.96L124.82 157.994C124.751 158.404 125.183 158.721 125.551 158.525L127.139 157.688L128.726 158.525C129.095 158.721 129.526 158.404 129.457 157.994L129.152 156.217L130.435 154.958C130.7 154.699 130.596 154.266 130.28 154.133Z" fill="#5D5D5D"/>
<path opacity="0.17" d="M126.373 153.793C126.586 153.325 126.805 152.858 127.018 152.39C127.064 152.286 126.914 152.2 126.868 152.304C126.655 152.771 126.437 153.239 126.224 153.706C126.172 153.804 126.327 153.891 126.373 153.793Z" fill="white"/>
<path opacity="0.17" d="M125.401 155.691C125.027 155.339 124.648 154.993 124.274 154.641C124.193 154.566 124.061 154.681 124.142 154.756C124.515 155.108 124.895 155.455 125.269 155.807C125.355 155.882 125.488 155.766 125.401 155.691Z" fill="white"/>
<g opacity="0.34">
<path opacity="0.34" d="M137.079 152.223L137.873 153.839L139.651 154.099C140.065 154.156 140.226 154.67 139.927 154.959L138.644 156.217L138.949 157.995C139.018 158.404 138.587 158.722 138.218 158.526L136.631 157.689L135.043 158.526C134.675 158.722 134.243 158.404 134.312 157.995L134.617 156.217L133.334 154.959C133.035 154.664 133.202 154.156 133.61 154.099L135.388 153.839L136.182 152.223C136.36 151.848 136.895 151.848 137.079 152.223Z" fill="#5D5D5D"/>
<path opacity="0.12" d="M139.777 154.133C139.754 154.22 139.714 154.306 139.639 154.375L138.356 155.634L138.661 157.411C138.73 157.821 138.299 158.139 137.931 157.942L136.343 157.105L134.755 157.942C134.611 158.017 134.45 158.017 134.324 157.96L134.318 157.994C134.249 158.404 134.68 158.722 135.048 158.525L136.636 157.688L138.224 158.525C138.592 158.722 139.024 158.404 138.955 157.994L138.65 156.217L139.933 154.958C140.197 154.699 140.094 154.266 139.777 154.133Z" fill="#5D5D5D"/>
<path opacity="0.17" d="M135.866 153.792C136.078 153.325 136.297 152.857 136.51 152.39C136.556 152.286 136.406 152.199 136.36 152.303C136.147 152.771 135.929 153.238 135.716 153.706C135.67 153.804 135.82 153.89 135.866 153.792Z" fill="#5D5D5D"/>
<path opacity="0.17" d="M134.899 155.692C134.525 155.339 134.145 154.993 133.771 154.641C133.691 154.566 133.559 154.681 133.639 154.756C134.013 155.109 134.393 155.455 134.767 155.807C134.853 155.882 134.979 155.767 134.899 155.692Z" fill="#5D5D5D"/>
</g>
<g opacity="0.34">
<path opacity="0.34" d="M147.17 152.223L147.964 153.839L149.741 154.099C150.155 154.156 150.317 154.67 150.017 154.959L148.734 156.217L149.039 157.995C149.108 158.404 148.677 158.722 148.309 158.526L146.721 157.689L145.133 158.526C144.765 158.722 144.334 158.404 144.403 157.995L144.708 156.217L143.425 154.959C143.126 154.664 143.292 154.156 143.701 154.099L145.478 153.839L146.272 152.223C146.451 151.848 146.986 151.848 147.17 152.223Z" fill="#5D5D5D"/>
<path opacity="0.12" d="M149.868 154.133C149.845 154.22 149.805 154.306 149.73 154.375L148.447 155.634L148.752 157.411C148.821 157.821 148.389 158.139 148.021 157.942L146.433 157.105L144.846 157.942C144.702 158.017 144.541 158.017 144.414 157.96L144.408 157.994C144.339 158.404 144.771 158.722 145.139 158.525L146.727 157.688L148.315 158.525C148.683 158.722 149.114 158.404 149.045 157.994L148.74 156.217L150.023 154.958C150.282 154.699 150.184 154.266 149.868 154.133Z" fill="#5D5D5D"/>
<path opacity="0.17" d="M145.956 153.792C146.169 153.325 146.387 152.857 146.6 152.39C146.646 152.286 146.497 152.199 146.451 152.303C146.238 152.771 146.019 153.238 145.806 153.706C145.76 153.804 145.91 153.89 145.956 153.792Z" fill="#5D5D5D"/>
<path opacity="0.17" d="M144.989 155.692C144.616 155.339 144.236 154.993 143.862 154.641C143.781 154.566 143.649 154.681 143.73 154.756C144.104 155.109 144.483 155.455 144.857 155.807C144.938 155.882 145.07 155.767 144.989 155.692Z" fill="#5D5D5D"/>
</g>
<g opacity="0.14">
<path opacity="0.14" d="M87.6634 100.249L193.738 49.4578L158.1 37.5912L75.968 75.1303L87.6634 100.249Z" fill="white"/>
<path opacity="0.14" d="M87.3813 128.403L200.423 73.4739L197.363 66.5709L82.9287 122.054L87.3813 128.403Z" fill="white"/>
<path opacity="0.14" d="M80.7026 185.538L206.826 115.706L210.445 130.608L117.175 178.363L200.423 142.204L100.745 194.645L82.929 194.368L80.7026 185.538Z" fill="white"/>
<path opacity="0.14" d="M189.844 107.146L87.3813 175.876L189.844 111.562L188.17 107.146" fill="white"/>
</g>
<path d="M80.104 96.8208L79.0225 111.441C78.8902 113.224 79.9199 114.892 81.571 115.573L95.0957 121.12C99.0133 122.724 98.5934 128.421 94.4802 129.431L80.2881 132.917C78.5565 133.344 77.2909 134.839 77.1586 136.623L76.0771 151.242C75.7664 155.479 70.2323 156.835 68.006 153.222L60.3145 140.761C59.3768 139.237 57.5647 138.498 55.8331 138.92L41.6411 142.406C37.5279 143.416 34.5364 138.556 37.269 135.318L46.7093 124.133C47.8598 122.765 48.0036 120.808 47.0659 119.29L39.3745 106.829C37.1482 103.222 40.8242 98.8582 44.7418 100.463L58.2666 106.009C59.9176 106.685 61.816 106.223 62.9666 104.855L72.4068 93.6695C75.1452 90.42 80.4204 92.5844 80.104 96.8208Z" fill="#D3B25A"/>
<path d="M79.4829 95.5449L78.4014 110.165C78.2691 111.948 79.2988 113.616 80.9499 114.297L94.4746 119.844C98.3922 121.448 97.9723 127.151 93.8591 128.155L79.667 131.641C77.9354 132.068 76.6698 133.563 76.5375 135.347L75.456 149.966C75.1454 154.203 69.6112 155.559 67.3849 151.946L59.6935 139.485C58.7558 137.961 56.9436 137.222 55.2121 137.644L41.02 141.13C36.9068 142.14 33.9154 137.28 36.6479 134.042L46.0882 122.857C47.2387 121.489 47.3826 119.532 46.4449 118.014L38.7534 105.553C36.5271 101.946 40.2031 97.5823 44.1207 99.1868L57.6455 104.733C59.2965 105.409 61.1949 104.947 62.3455 103.579L71.7857 92.3935C74.5241 89.1498 79.7936 91.3142 79.4829 95.5449Z" fill="#ECC649"/>
<path opacity="0.53" d="M53.624 107.169C55.0967 107.481 56.5349 107.879 57.9616 108.312C58.1399 108.364 58.324 108.422 58.4851 108.462L58.7382 108.531L58.9971 108.578C59.3365 108.647 59.6874 108.67 60.0326 108.676C60.7229 108.687 61.4133 108.572 62.0633 108.341C62.7134 108.122 63.3347 107.793 63.8697 107.354C64.1401 107.135 64.3989 106.904 64.6233 106.638L64.7959 106.442L64.9742 106.223L65.3366 105.796C66.2916 104.647 67.2753 103.522 68.3396 102.454C67.5975 103.764 66.7748 105.016 65.9292 106.246C65.7106 106.557 65.5265 106.858 65.2676 107.175C65.026 107.492 64.7441 107.781 64.4507 108.047C63.8467 108.578 63.1333 108.97 62.3797 109.241C61.6204 109.489 60.815 109.622 60.0153 109.576C59.6184 109.547 59.2215 109.495 58.836 109.391L58.5484 109.316L58.2665 109.218C58.0767 109.155 57.9041 109.08 57.7315 109.01C56.3336 108.451 54.9644 107.856 53.624 107.169Z" fill="white"/>
<path opacity="0.53" d="M47.0316 103.308C46.2895 103.083 45.5531 102.829 44.8168 102.557C44.7247 102.523 44.6327 102.488 44.5464 102.465L44.4198 102.419L44.2933 102.384C44.1207 102.332 43.9539 102.304 43.787 102.28C43.4534 102.234 43.1427 102.234 42.8608 102.292C42.5789 102.338 42.3201 102.436 42.1187 102.586C42.0152 102.656 41.9231 102.736 41.8483 102.835L41.7908 102.904L41.7333 102.985L41.6125 103.14C41.2961 103.55 40.9682 103.954 40.5942 104.324C40.7898 103.833 41.0257 103.371 41.2788 102.915C41.3421 102.8 41.3939 102.69 41.4802 102.575C41.5549 102.459 41.6527 102.361 41.762 102.269C41.9864 102.09 42.274 101.975 42.602 101.911C42.9356 101.859 43.3038 101.853 43.6892 101.923C43.8848 101.963 44.0804 102.009 44.276 102.073L44.4256 102.119L44.5694 102.177C44.6672 102.217 44.7592 102.257 44.8513 102.298C45.5761 102.609 46.3067 102.938 47.0316 103.308Z" fill="white"/>
<path opacity="0.53" d="M41.1004 133.545C40.5366 134.076 39.9498 134.59 39.3458 135.098C39.271 135.161 39.1962 135.225 39.1272 135.283L39.0236 135.375L38.9258 135.467C38.7993 135.589 38.6842 135.721 38.5807 135.854C38.3736 136.12 38.2183 136.391 38.1262 136.662C38.0284 136.933 37.9824 137.205 38.0112 137.453C38.0227 137.58 38.0457 137.701 38.0859 137.811L38.1147 137.897L38.155 137.984L38.2298 138.163C38.4254 138.642 38.6094 139.132 38.7418 139.64C38.4139 139.225 38.132 138.786 37.8673 138.342C37.7983 138.226 37.7293 138.128 37.6717 137.995C37.6085 137.874 37.574 137.736 37.5509 137.597C37.5049 137.314 37.5509 137.003 37.6602 136.685C37.7811 136.368 37.9594 136.05 38.2183 135.744C38.3506 135.594 38.4886 135.45 38.644 135.312L38.759 135.208L38.8798 135.11C38.9661 135.04 39.0409 134.983 39.1214 134.925C39.7658 134.463 40.4216 133.996 41.1004 133.545Z" fill="white"/>
<path d="M60.1422 227.054L55.7931 234.164L56.518 239.826C56.518 239.826 60.5104 240.698 59.0607 241.569C57.611 242.441 54.7058 242.441 54.3434 241.569C53.981 240.698 51.0759 232.427 51.8007 231.988C52.5256 231.556 54.3434 230.684 54.3434 230.684L56.8861 224.15L60.1422 227.054Z" fill="#E8AAAD"/>
<path d="M56.1556 235.908L55.7932 234.164C55.7932 234.164 54.3435 234.164 54.3435 232.86C54.3435 231.556 54.7059 229.813 52.8938 229.813C51.0759 229.813 50.3511 235.036 50.3511 235.036L52.1689 240.698L53.9868 242.874H59.0723L60.5219 240.259L56.1556 235.908Z" fill="#6971BA"/>
<path d="M83.0208 222.845V235.474C83.0208 235.474 91.3738 238.96 90.6432 239.826C90.6432 239.826 80.1157 239.826 80.1157 238.954C80.1157 238.083 80.4781 235.035 80.4781 235.035L78.7695 223.538L83.0208 222.845Z" fill="#E8AAAD"/>
<path d="M79.7533 235.474C79.7533 235.474 81.203 235.041 81.5711 235.907C81.9336 236.778 83.7514 234.602 83.7514 234.602L93.1917 238.521L89.9242 242.873L76.4915 239.826L79.7533 235.474Z" fill="#6971BA"/>
<path d="M75.7612 167.542L62.6909 173.204C62.6909 173.204 59.0609 186.704 59.4233 189.751C59.7858 192.798 60.873 208.913 60.1482 210.217C59.4233 211.522 56.1558 225.461 56.1558 225.461C56.1558 225.461 61.2412 227.636 60.873 227.636C60.5106 227.636 70.3133 214.136 70.6757 208.913C71.0381 203.69 71.4006 201.075 71.4006 201.075C71.4006 201.075 77.5733 215.447 79.023 225.028L84.1084 224.156C84.1084 224.156 83.746 194.109 81.5657 184.528C79.3911 174.947 75.7612 167.542 75.7612 167.542Z" fill="#423392"/>
<path opacity="0.55" d="M72.8559 206.298L71.4062 201.075L72.1311 188.885C72.1311 188.885 72.8559 194.109 73.5808 194.547C74.3056 194.98 74.3056 196.723 73.5808 197.595C72.8559 198.466 72.8559 201.946 72.8559 201.946C72.8559 201.946 74.3056 208.48 72.8559 208.041C71.4063 207.603 72.8559 206.298 72.8559 206.298Z" fill="#5283BC"/>
<g opacity="0.16">
<path opacity="0.16" d="M80.0237 174.513C79.9949 174.513 79.9604 174.513 79.9316 174.513C79.6497 174.513 79.3736 174.213 79.3851 173.861C79.3966 173.509 79.6267 173.209 79.9316 173.209C79.9604 173.209 79.9949 173.209 80.0237 173.209C80.3113 173.209 80.5817 173.509 80.5702 173.861C80.5587 174.213 80.3343 174.513 80.0237 174.513Z" fill="#5283BC"/>
</g>
<g opacity="0.16">
<path opacity="0.16" d="M65.377 171.559C65.0376 173.942 64.6464 176.545 63.1047 178.277C61.9196 179.616 60.2628 180.026 58.8074 179.102C58.652 179.004 58.7901 178.721 58.9454 178.819C60.8783 180.043 62.8515 178.658 63.8583 176.597C64.6176 175.039 64.8708 173.221 65.1181 171.466C65.1469 171.264 65.4058 171.351 65.377 171.559Z" fill="#405DBB"/>
</g>
<g opacity="0.16">
<path opacity="0.16" d="M78.9477 173.163C74.9151 173.001 72.3321 169.273 70.0655 165.7C69.962 165.533 70.1978 165.371 70.3014 165.533C72.5047 169.007 75.0014 172.678 78.9477 172.834C79.1203 172.845 79.1203 173.169 78.9477 173.163Z" fill="#405DBB"/>
</g>
<g opacity="0.16">
<path opacity="0.16" d="M77.8032 168.291C70.9229 173.145 63.1394 175.673 55.1546 175.65C54.982 175.65 54.9762 175.321 55.1546 175.321C63.0934 175.35 70.8193 172.839 77.6651 168.009C77.8204 167.905 77.9527 168.187 77.8032 168.291Z" fill="#405DBB"/>
</g>
<g opacity="0.16">
<path opacity="0.16" d="M71.285 172.049C71.193 171.374 71.0377 170.722 70.8248 170.093C70.7615 169.896 71.0204 169.816 71.0894 170.006C71.3023 170.641 71.4576 171.293 71.5497 171.963C71.5727 172.165 71.3138 172.257 71.285 172.049Z" fill="#405DBB"/>
</g>
<g opacity="0.16">
<path opacity="0.16" d="M68.9034 173.036C68.6331 172.055 68.2764 171.132 67.8334 170.243C67.7414 170.064 67.9773 169.897 68.0693 170.075C68.5238 170.987 68.8862 171.94 69.1623 172.95C69.2256 173.146 68.961 173.233 68.9034 173.036Z" fill="#405DBB"/>
</g>
<g opacity="0.16">
<path opacity="0.16" d="M65.6244 174.686C64.6751 179.927 64.1459 185.254 64.1056 190.616C64.0884 193.231 64.1804 195.851 64.3875 198.454C64.5889 201.023 64.9685 203.608 64.7844 206.2C64.4796 210.517 62.397 214.569 60.5964 218.217C58.606 222.245 56.3394 226.049 53.8485 229.645C53.7392 229.806 53.5436 229.575 53.6586 229.414C56.2071 225.737 58.5139 221.841 60.5274 217.715C62.7997 213.063 64.8362 208.491 64.4968 202.945C64.2034 198.12 63.7259 193.404 63.8698 188.55C64.0078 183.846 64.5256 179.188 65.3597 174.594C65.3942 174.398 65.6589 174.484 65.6244 174.686Z" fill="#405DBB"/>
</g>
<g opacity="0.16">
<path opacity="0.16" d="M83.8953 211.308C83.809 197.26 81.3468 184.101 75.2834 171.98C75.1913 171.801 75.4272 171.634 75.5192 171.813C81.6057 183.968 84.0794 197.214 84.1714 211.303C84.1657 211.516 83.8953 211.516 83.8953 211.308Z" fill="#405DBB"/>
</g>
<path d="M78.3037 225.46H84.8388V222.846L78.3037 223.717V225.46Z" fill="#D96985"/>
<path d="M55.3271 225.056L60.9764 228.992L62.0694 226.736L56.052 223.55L55.3271 225.056Z" fill="#D96985"/>
<path d="M66.1999 145.101C66.1999 145.101 64.152 144.027 63.5422 143.369C62.9381 142.711 60.8269 140.085 61.2065 138.515C61.2065 138.515 63.9161 139.548 64.733 137.384C65.7915 134.567 60.6773 128.017 59.4232 127.653C58.1748 127.284 55.3905 125.587 52.7787 127.705C50.167 129.823 53.9178 138.856 56.7482 139.289C56.7482 139.289 59.7856 144.322 58.7329 145.949C58.7329 145.949 63.0532 147.79 64.6812 146.59C66.3092 145.384 66.1999 145.101 66.1999 145.101Z" fill="#E8AAAD"/>
<path opacity="0.29" d="M61.8103 139.173L61.2063 138.515C61.2063 138.515 59.3251 138.123 58.7153 137.465C58.7153 137.465 60.2168 139.427 61.4824 139.479C62.748 139.531 61.8103 139.173 61.8103 139.173Z" fill="#866E4F"/>
<path d="M59.8717 132.593C59.7452 132.449 59.5668 132.357 59.377 132.311C59.1814 132.264 58.957 132.293 58.7672 132.409C58.5831 132.524 58.4565 132.697 58.3817 132.876C58.3472 132.969 58.3242 133.061 58.307 133.153C58.3012 133.251 58.2955 133.344 58.3012 133.436C58.3587 133.361 58.4048 133.28 58.4508 133.205L58.5946 132.992C58.6982 132.865 58.8017 132.749 58.9225 132.674C59.1699 132.518 59.5035 132.536 59.8717 132.593Z" fill="#6C543B"/>
<path d="M62.3399 131.364C62.2479 131.266 62.1271 131.191 61.989 131.162C61.8509 131.127 61.6899 131.151 61.5575 131.231C61.431 131.312 61.3389 131.433 61.2872 131.566C61.2642 131.63 61.2469 131.699 61.2354 131.762C61.2354 131.832 61.2239 131.895 61.2296 131.964C61.3044 131.849 61.3677 131.745 61.4367 131.647C61.5115 131.555 61.5806 131.474 61.6726 131.422C61.8394 131.312 62.0753 131.324 62.3399 131.364Z" fill="#6C543B"/>
<path d="M61.9312 130.325C61.7644 130.129 61.5112 130.002 61.2466 129.956C61.1143 129.933 60.9705 129.898 60.8439 129.944C60.7174 129.985 60.5965 130.06 60.5103 130.181L60.5218 130.21C60.6656 130.25 60.7864 130.25 60.9014 130.256C61.0165 130.256 61.12 130.216 61.2351 130.204C61.4595 130.192 61.7011 130.233 61.9139 130.348L61.9312 130.325Z" fill="#354F5F"/>
<path d="M57.7605 132.062C57.7547 131.82 57.841 131.583 57.9503 131.393C58.0136 131.295 58.0999 131.22 58.1459 131.122C58.1977 131.018 58.2495 130.914 58.284 130.764L58.261 130.741C58.1114 130.758 57.9906 130.833 57.8928 130.931C57.7892 131.023 57.7547 131.168 57.7145 131.295C57.6339 131.554 57.6282 131.831 57.726 132.074L57.7605 132.062Z" fill="#354F5F"/>
<path d="M63.0127 135.843L60.7749 136.391C60.7749 136.391 61.6953 137.06 62.3281 137.089C62.961 137.112 63.0127 135.843 63.0127 135.843Z" fill="#ECF1F1"/>
<path d="M62.5064 173.157C62.5064 173.157 65.3023 166.981 65.8603 165.862C66.4183 164.742 55.793 151.271 55.793 149.585C55.793 147.9 57.4728 141.164 63.0645 141.73C68.6561 142.29 77.0494 146.22 75.9334 149.585C74.8173 152.95 74.8173 161.931 75.9334 167.547C76.6295 171.05 72.9765 173.676 70.1231 175.16C68.3282 176.095 66.1594 175.91 64.5372 174.692L62.5064 173.157Z" fill="#FF74B2"/>
<path opacity="0.23" d="M74.8864 145.804C74.2536 146.122 63.8296 149.47 61.9312 148.904C60.0328 148.338 61.9312 148.904 61.9312 148.904C61.9312 148.904 66.0387 160.078 60.0328 164.199C54.0269 168.32 56.5524 148.656 56.5524 148.656L67.3446 144.321L74.8864 145.804Z" fill="#99374F"/>
<path d="M92.7142 119.838C91.5982 119.278 93.2722 124.328 91.5981 125.448C89.9183 126.567 78.1712 136.674 78.1712 136.674C73.8912 137.978 70.1576 139.438 67.0684 140.806C66.729 142.272 66.7117 144.702 69.266 146.803C74.1155 145.164 79.2067 143.173 79.851 142.849C80.9671 142.29 94.9578 126.573 96.0738 125.448C97.1898 124.328 93.836 120.397 92.7142 119.838Z" fill="#E8AAAD"/>
<path d="M67.0688 140.807C60.8731 143.554 57.3063 145.92 57.3063 145.92C55.4597 148.437 57.4732 149.02 60.827 149.02C62.2537 149.02 65.6881 148.01 69.2606 146.804C66.7121 144.703 66.7294 142.273 67.0688 140.807Z" fill="#FF74B2"/>
<path d="M56.9149 127.693C56.9149 127.693 55.2351 127.693 55.2351 129.379C55.2351 131.064 65.3024 150.145 59.7107 158.001C54.119 165.856 41.8081 165.296 40.6921 159.686C39.5761 154.076 47.4056 155.196 45.1677 151.265C42.9299 147.335 41.2501 145.089 46.8475 142.844C52.4392 140.599 51.8812 138.914 49.6434 135.549C47.4056 132.184 49.0854 124.883 55.7988 126.008C55.7988 126.008 57.4786 125.448 59.1527 125.448C60.8325 125.448 61.2179 129.263 61.2179 129.263C61.2179 129.263 58.0309 126.008 56.9149 127.693Z" fill="#1F3054"/>
<path d="M240.146 223.492C239.047 221.582 237.431 218.257 236.43 213.9C234.802 206.823 228.29 199.742 228.29 199.742C227.749 193.208 223.946 173.607 223.946 173.059C223.946 173.059 219.062 163.801 215.806 175.235C212.55 186.669 222.318 197.017 222.318 200.284C222.318 203.551 238.058 225.333 238.058 225.333L238.046 225.362C238.742 225.137 239.565 224.629 240.146 223.492Z" fill="#302564"/>
<path opacity="0.21" d="M224.435 168.39C219.798 168.39 214.874 162.589 214.874 162.589C214.874 162.589 212.653 164.153 211.56 171.853C211.048 175.472 209.392 195.811 208.304 200.711C207.234 205.531 203.547 230.874 203.426 231.723C204.134 232.173 205.158 232.433 206.521 231.844C207.177 228.595 208.678 222.361 211.02 219.227C214.276 214.869 213.188 206.16 214.276 203.436C215.363 200.711 219.706 182.75 224.044 180.02C229.768 176.418 225.545 168.39 224.435 168.39Z" fill="#44627D"/>
<path d="M240.146 223.492C239.565 224.629 238.742 225.137 238.046 225.357L236.97 228.052C236.97 228.052 235.342 229.143 234.255 229.685C233.168 230.228 236.97 230.776 238.052 229.685C239.139 228.595 241.308 225.328 241.308 225.328C241.308 225.328 240.83 224.687 240.146 223.492Z" fill="#1B2B41"/>
<path d="M223.543 165.711C218.907 165.711 213.982 159.911 213.982 159.911C213.982 159.911 211.762 161.475 210.669 169.174C210.157 172.793 208.5 193.133 207.413 198.033C206.342 202.852 202.655 228.196 202.534 229.044C203.242 229.495 204.266 229.754 205.629 229.166C206.285 225.916 207.786 219.683 210.128 216.549C213.384 212.191 212.297 203.481 213.384 200.757C214.471 198.033 218.814 180.071 223.152 177.341C228.882 173.746 224.654 165.711 223.543 165.711Z" fill="#302564"/>
<path d="M202.534 229.044C202.534 229.062 202.528 229.067 202.528 229.067L198.185 230.158C196.016 231.792 205.238 231.249 205.238 231.249C205.238 231.249 205.364 230.435 205.623 229.166C204.266 229.754 203.242 229.495 202.534 229.044Z" fill="#1B2B41"/>
<path d="M194.716 149.424C194.716 149.424 206.607 147.317 213.183 145.851C213.183 145.851 217.543 140.692 221.99 141.171C224.855 141.482 229.48 143.889 224.027 146.238C218.573 148.587 214.408 150.44 214.408 150.44L195.292 151.381C195.292 151.381 194.573 153.834 193.577 153.955C192.582 154.076 187.18 154.047 187.767 153.297C188.354 152.552 191.598 151.485 191.598 151.485C191.598 151.485 188.273 151.883 188.193 151.219C188.107 150.555 194.716 149.424 194.716 149.424Z" fill="#E9BE84"/>
<path d="M207.09 146.976C207.09 146.976 208.638 149.401 207.424 150.641C207.424 150.641 208.057 150.601 208.713 151.178C209.368 151.755 210.001 151.732 210.203 151.525C210.404 151.317 210.818 151.097 210.818 151.097C210.818 151.097 215.955 153.112 222.341 149.429C228.726 145.747 229.912 143.687 229.008 142.111C228.105 140.535 227.795 138.128 223.198 139.121C218.602 140.108 213.712 144.339 212.469 144.991C211.232 145.643 209.823 146.099 209.823 146.099C209.823 146.099 209.391 145.528 208.839 145.747C208.293 145.961 207.482 146.151 207.09 146.976Z" fill="#C74B65"/>
<path d="M221.702 143.081C221.702 143.081 224.228 141.759 224.976 140.951C225.724 140.137 228.324 136.911 227.852 134.977C227.852 134.977 224.516 136.247 223.515 133.586C222.209 130.123 228.508 122.054 230.05 121.604C231.591 121.154 235.014 119.059 238.23 121.668C241.452 124.276 236.826 135.399 233.34 135.93C233.34 135.93 229.601 142.123 230.895 144.131C230.895 144.131 225.58 146.399 223.572 144.916C221.57 143.427 221.702 143.081 221.702 143.081Z" fill="#D29271"/>
<path opacity="0.29" d="M227.11 135.779L227.858 134.965C227.858 134.965 230.176 134.48 230.924 133.672C230.924 133.672 229.072 136.091 227.518 136.154C225.959 136.218 227.11 135.779 227.11 135.779Z" fill="#866E4F"/>
<path d="M216.87 169.06C221.092 169.729 224.032 170.087 224.872 167.495C225.413 165.833 225.585 161.458 229.095 157.903C231.62 155.346 236.418 148.391 233.91 144.195C231.407 139.999 226.04 142.163 224.872 142.21C223.704 142.256 225.913 139.041 225.913 139.041C220.126 140.443 217.037 143.093 214.557 147.312C210.996 153.366 209.852 166.768 210.858 168.39L216.87 169.06Z" fill="#DC4267"/>
<path opacity="0.2" d="M206.774 157.003C206.774 157.003 227.323 161.251 232.327 149.245C238.028 135.572 232.327 149.245 232.327 149.245L221.984 145.194C221.984 145.194 215.466 150.406 211.157 149.794C206.854 149.182 206.774 157.003 206.774 157.003Z" fill="#5B2A36"/>
<path d="M229.497 127.676C229.653 127.497 229.871 127.382 230.113 127.33C230.354 127.272 230.631 127.312 230.861 127.451C231.085 127.595 231.24 127.803 231.332 128.028C231.378 128.138 231.401 128.259 231.424 128.369C231.43 128.484 231.442 128.605 231.43 128.721C231.355 128.623 231.304 128.53 231.246 128.438L231.068 128.178C230.941 128.017 230.815 127.878 230.659 127.786C230.36 127.584 229.952 127.607 229.497 127.676Z" fill="#6C543B"/>
<path d="M226.46 126.164C226.569 126.043 226.725 125.95 226.897 125.916C227.07 125.875 227.265 125.904 227.426 126.002C227.587 126.106 227.697 126.256 227.76 126.412C227.789 126.493 227.806 126.574 227.823 126.654C227.823 126.741 227.835 126.822 227.829 126.903C227.737 126.764 227.657 126.631 227.57 126.516C227.478 126.4 227.392 126.302 227.283 126.239C227.07 126.1 226.782 126.112 226.46 126.164Z" fill="#6C543B"/>
<path d="M226.966 124.882C227.173 124.64 227.478 124.484 227.806 124.426C227.967 124.403 228.145 124.357 228.306 124.415C228.468 124.467 228.611 124.559 228.721 124.709L228.709 124.744C228.531 124.796 228.387 124.796 228.243 124.796C228.105 124.796 227.973 124.744 227.835 124.732C227.559 124.721 227.259 124.767 226.995 124.905L226.966 124.882Z" fill="#6971BA"/>
<path d="M232.098 127.024C232.103 126.724 232 126.435 231.867 126.199C231.793 126.077 231.683 125.985 231.626 125.864C231.563 125.737 231.499 125.61 231.459 125.425L231.482 125.396C231.666 125.419 231.816 125.512 231.931 125.627C232.057 125.743 232.098 125.921 232.149 126.077C232.247 126.395 232.253 126.741 232.132 127.035L232.098 127.024Z" fill="#6971BA"/>
<path d="M227.559 123.919C227.559 123.919 225.045 122.331 225.931 120.767C226.822 119.203 229.267 120.767 229.267 120.767C229.267 120.767 225.931 117.645 227.933 116.531C229.935 115.417 233.938 118.539 233.938 118.539C233.938 118.539 233.271 116.311 234.83 115.642C236.389 114.972 241.055 120.103 239.944 123.226C239.944 123.226 244.834 125.009 240.387 130.366C235.94 135.722 233.271 135.941 233.271 135.941C233.271 135.941 232.65 134.071 233.714 131.924C233.714 131.924 234.157 132.819 235.049 132.368C235.94 131.924 237.051 130.585 236.826 129.915C236.602 129.246 233.938 130.14 233.938 130.14C233.938 130.14 232.828 127.688 233.938 126.574C235.049 125.46 233.938 125.009 233.938 125.009C233.938 125.009 229.727 125.159 228.721 122.851C228.715 122.851 228.295 123.059 227.559 123.919Z" fill="#6971BA"/>
<path d="M233.605 128.986C233.605 128.986 231.488 131.48 229.486 131.255C227.484 131.03 226.425 128.94 224.067 129.54C224.067 129.54 222.151 131.699 222.594 133.488C223.037 135.272 229.929 137.95 233.933 129.921C233.933 129.916 234.169 128.727 233.605 128.986Z" fill="#6971BA"/>
<path d="M225.631 131.682L228.387 132.351C228.387 132.351 227.254 133.177 226.471 133.211C225.695 133.24 225.631 131.682 225.631 131.682Z" fill="#ECF1F1"/>
<path d="M189.844 105.449L198.548 117.218C199.612 118.655 201.476 119.244 203.167 118.672L217.014 114.003C221.024 112.652 224.418 117.235 221.967 120.698L213.499 132.64C212.463 134.1 212.486 136.057 213.545 137.494L222.249 149.262C224.769 152.673 221.472 157.325 217.434 156.056L203.495 151.669C201.792 151.132 199.94 151.756 198.904 153.216L190.436 165.158C187.985 168.615 182.549 166.906 182.509 162.664L182.359 148.01C182.342 146.221 181.174 144.645 179.477 144.108L165.538 139.722C161.5 138.452 161.442 132.738 165.452 131.387L179.299 126.718C180.99 126.147 182.123 124.548 182.106 122.759L181.957 108.104C181.922 103.856 187.324 102.038 189.844 105.449Z" fill="#D3B25A"/>
<path d="M188.544 104.895L197.247 116.664C198.312 118.101 200.176 118.69 201.867 118.118L215.714 113.449C219.724 112.098 223.118 116.681 220.667 120.144L212.199 132.086C211.163 133.546 211.186 135.503 212.245 136.94L220.949 148.708C223.469 152.119 220.172 156.771 216.134 155.502L202.195 151.115C200.492 150.578 198.64 151.202 197.604 152.662L189.136 164.604C186.685 168.061 181.249 166.352 181.209 162.11L181.059 147.456C181.042 145.667 179.874 144.091 178.177 143.554L164.238 139.168C160.2 137.898 160.142 132.184 164.152 130.833L177.999 126.164C179.69 125.593 180.823 123.994 180.806 122.205L180.657 107.55C180.622 103.302 186.018 101.484 188.544 104.895Z" fill="#ECC649"/>
<path opacity="0.53" d="M176.549 130.649C177.866 129.921 179.213 129.281 180.576 128.669C180.749 128.594 180.921 128.513 181.071 128.438L181.307 128.323L181.531 128.19C181.836 128.017 182.112 127.809 182.377 127.584C182.906 127.14 183.355 126.597 183.694 125.997C184.045 125.402 184.298 124.75 184.413 124.063C184.476 123.723 184.522 123.376 184.522 123.03V122.77L184.517 122.488L184.511 121.928C184.488 120.433 184.499 118.932 184.603 117.432C184.891 118.909 185.086 120.398 185.247 121.881C185.288 122.262 185.339 122.609 185.351 123.019C185.374 123.417 185.351 123.815 185.299 124.213C185.19 125.01 184.908 125.777 184.511 126.476C184.097 127.163 183.573 127.792 182.94 128.282C182.618 128.519 182.285 128.744 181.928 128.917L181.663 129.05L181.387 129.16C181.197 129.235 181.025 129.292 180.846 129.35C179.431 129.841 178.01 130.291 176.549 130.649Z" fill="white"/>
<path opacity="0.53" d="M169.042 132.051C168.334 132.368 167.609 132.657 166.879 132.934C166.787 132.969 166.695 133.003 166.614 133.038L166.487 133.09L166.367 133.148C166.206 133.223 166.056 133.309 165.912 133.402C165.63 133.581 165.394 133.794 165.216 134.019C165.032 134.244 164.905 134.481 164.848 134.723C164.819 134.845 164.796 134.966 164.802 135.087V135.179L164.808 135.277L164.819 135.474C164.848 135.993 164.859 136.513 164.819 137.038C164.647 136.536 164.526 136.034 164.416 135.526C164.393 135.393 164.359 135.277 164.347 135.139C164.33 135 164.342 134.862 164.365 134.723C164.416 134.441 164.56 134.163 164.767 133.898C164.986 133.638 165.262 133.396 165.602 133.194C165.774 133.096 165.952 133.003 166.142 132.923L166.286 132.865L166.436 132.813C166.539 132.778 166.631 132.749 166.729 132.721C167.483 132.478 168.254 132.247 169.042 132.051Z" fill="white"/>
<path opacity="0.53" d="M184.252 158.826C184.171 159.6 184.062 160.373 183.936 161.146C183.918 161.245 183.901 161.343 183.895 161.429L183.878 161.562L183.867 161.695C183.849 161.874 183.849 162.047 183.861 162.214C183.872 162.549 183.941 162.861 184.045 163.126C184.143 163.397 184.286 163.628 184.471 163.801C184.563 163.888 184.655 163.969 184.764 164.026L184.844 164.073L184.931 164.113L185.103 164.2C185.564 164.43 186.018 164.684 186.455 164.985C185.937 164.886 185.437 164.742 184.948 164.575C184.821 164.534 184.706 164.5 184.58 164.442C184.453 164.39 184.338 164.309 184.229 164.223C184.01 164.038 183.843 163.773 183.717 163.461C183.602 163.143 183.527 162.78 183.527 162.387C183.527 162.191 183.539 161.989 183.562 161.781L183.579 161.625L183.608 161.47C183.625 161.366 183.648 161.268 183.671 161.169C183.844 160.39 184.033 159.611 184.252 158.826Z" fill="white"/>
<path d="M194.515 152.408C194.515 152.408 208.482 151.069 216.231 149.978C216.231 149.978 225.66 142.175 230.763 143.144C234.054 143.768 235.29 149.216 228.755 151.433C222.22 153.649 217.227 155.409 217.227 155.409L194.998 154.734C194.998 154.734 193.94 157.51 192.772 157.556C191.604 157.602 185.351 157.071 186.099 156.258C186.846 155.444 190.701 154.509 190.701 154.509C190.701 154.509 186.812 154.665 186.783 153.885C186.754 153.112 194.515 152.408 194.515 152.408Z" fill="#D29271"/>
<path d="M211.313 150.543C211.313 150.543 212.78 153.868 211.497 155.242C211.497 155.242 212.164 155.201 212.855 155.842C213.545 156.483 214.212 156.459 214.425 156.223C214.638 155.992 215.075 155.75 215.075 155.75C215.075 155.75 220.506 157.989 227.242 153.926C233.979 149.862 235.221 147.583 234.266 145.834C233.306 144.085 232.978 141.418 228.128 142.509C223.279 143.594 218.119 148.264 216.813 148.991C215.507 149.712 214.023 150.209 214.023 150.209C214.023 150.209 213.568 149.58 212.987 149.816C212.406 150.053 211.727 149.631 211.313 150.543Z" fill="#DC4267"/>
<path d="M165.203 71.7982L112.398 71.209L112.19 124.82L164.994 125.409L165.203 71.7982Z" fill="white"/>
<path d="M164.717 72.2969L164.512 124.916L112.684 124.336L112.89 71.7175L164.717 72.2969ZM165.699 71.3165L164.719 71.3063L112.891 70.7269L111.911 70.7167L111.908 71.712L111.703 124.331L111.699 125.326L112.68 125.336L164.507 125.916L165.487 125.926L165.49 124.931L165.696 72.3118L165.699 71.3165Z" fill="#57ADA7"/>
<path d="M154.783 82.8257C154.773 85.3602 152.738 87.3958 150.241 87.3676C147.745 87.3393 145.726 85.2587 145.736 82.7242C145.746 80.1898 147.781 78.1542 150.278 78.1824C152.779 78.2122 154.795 80.2865 154.783 82.8257Z" fill="#A1D9D5"/>
<path d="M117.191 119.258C117.191 119.258 125.958 94.8415 129.572 94.8859C133.188 94.9255 139.382 106.312 139.382 106.312C139.382 106.312 144.111 99.7635 147.794 99.8053C151.481 99.8487 160.048 119.741 160.048 119.741L117.191 119.258Z" fill="#A1D9D5"/>
<path d="M118.273 87.9443C118.246 87.9347 118.225 87.9172 118.212 87.8966C118.187 87.8618 118.187 87.8147 118.204 87.7786C118.262 87.6518 119.57 84.6822 121.326 84.9775C121.679 85.0372 122.032 85.1283 122.408 85.259C122.77 85.3848 123.104 85.5324 123.4 85.656C123.654 85.7652 123.884 85.8663 124.107 85.9437C124.442 86.0598 124.692 86.0998 124.915 86.0672C125.154 86.0347 125.419 85.6235 125.73 85.1545C126.46 84.0446 127.56 82.3608 130.007 82.571C130.429 82.6077 130.827 82.6883 131.189 82.8141C132.661 83.3254 133.305 84.4302 133.778 85.2393C134.002 85.6265 134.197 85.9615 134.392 86.0293C134.429 86.0422 134.464 86.0441 134.502 86.0413C134.773 86.0044 135.149 85.8363 135.582 85.6404C136.559 85.204 137.776 84.6565 138.963 85.0427L139.028 85.0653C140.704 85.6476 142.309 87.668 142.378 87.7551C142.408 87.7915 142.411 87.845 142.392 87.8857C142.373 87.9264 142.327 87.9575 142.28 87.9571L118.308 87.9509C118.301 87.954 118.287 87.9492 118.273 87.9443Z" fill="#A1D9D5"/>
<path d="M138.988 85.1885C140.65 85.766 142.284 87.8385 142.284 87.8385L118.311 87.8324C118.311 87.8324 119.618 84.8203 121.301 85.1008C121.688 85.1671 122.04 85.263 122.365 85.3759C123.029 85.6065 123.575 85.8959 124.058 86.0637C124.369 86.1718 124.651 86.2277 124.926 86.1924C125.835 86.073 126.498 82.3965 129.991 82.6976C130.425 82.7328 130.806 82.8179 131.145 82.9357C133.355 83.7035 133.678 85.9186 134.347 86.1509C134.398 86.1687 134.452 86.177 134.512 86.1665C135.422 86.0471 137.24 84.6182 138.923 85.1659C138.946 85.174 138.969 85.1821 138.988 85.1885ZM139.066 84.9534L138.996 84.9292C137.761 84.5315 136.471 85.1114 135.529 85.5339C135.103 85.7267 134.739 85.8886 134.483 85.9257C134.462 85.9286 134.446 85.9285 134.428 85.9221C134.274 85.8688 134.083 85.5401 133.879 85.1861C133.422 84.4085 132.741 83.228 131.227 82.7021C130.856 82.5731 130.448 82.4893 130.016 82.4494C127.5 82.2307 126.373 83.9472 125.628 85.0885C125.358 85.4981 125.082 85.9265 124.899 85.9469C124.693 85.9749 124.462 85.9367 124.146 85.8271C123.933 85.7529 123.697 85.6502 123.448 85.5426C123.154 85.4143 122.815 85.2651 122.449 85.1376C122.068 85.0053 121.706 84.911 121.348 84.8496C119.499 84.5378 118.152 87.5936 118.094 87.7204C118.059 87.7972 118.071 87.8853 118.114 87.958C118.145 88.0055 118.19 88.042 118.241 88.0598C118.264 88.0678 118.294 88.0728 118.32 88.0715L142.293 88.0776C142.386 88.0784 142.471 88.0241 142.51 87.938C142.549 87.8519 142.536 87.748 142.478 87.6751C142.407 87.5927 140.774 85.547 139.066 84.9534Z" fill="white"/>
<path d="M140.012 95.9893C139.979 95.978 139.956 95.9542 139.941 95.9227C139.919 95.8784 139.925 95.8282 139.958 95.7923C140.012 95.722 141.316 94.1297 142.654 93.7295C143.142 93.5845 143.7 93.6208 144.35 93.8466C144.693 93.966 145.02 94.1214 145.306 94.2576C145.535 94.3633 145.749 94.469 145.925 94.5303C146 94.5561 146.071 94.5756 146.134 94.5871C146.301 94.6138 146.471 94.337 146.679 93.9897C147.134 93.2249 147.825 92.0753 149.66 91.9578C150.115 91.9272 150.547 91.9829 150.933 92.1167C152.001 92.4878 152.58 93.3969 153.003 94.0579C153.224 94.4073 153.42 94.7062 153.583 94.7626C153.947 94.8209 154.317 94.6716 154.785 94.4776C155.241 94.2898 155.761 94.0774 156.413 93.984C156.604 93.9558 156.799 93.9764 156.994 94.0442C158.081 94.4216 158.829 96.1656 158.861 96.2398C158.88 96.2777 158.875 96.3233 158.849 96.356C158.827 96.3904 158.788 96.4137 158.743 96.4086L140.041 95.9943C140.035 95.9974 140.021 95.9926 140.012 95.9893Z" fill="#A1D9D5"/>
<path d="M156.956 94.1575C158.006 94.522 158.748 96.2848 158.748 96.2848L140.046 95.8706C140.046 95.8706 141.366 94.2422 142.681 93.8497C143.222 93.6862 143.784 93.7871 144.304 93.9677C144.917 94.1806 145.477 94.5063 145.886 94.6483C145.969 94.6773 146.05 94.7 146.12 94.7085C146.829 94.8185 146.936 92.255 149.665 92.0808C150.136 92.0504 150.54 92.1121 150.893 92.2347C152.523 92.8009 152.986 94.687 153.548 94.8822C153.567 94.8887 153.581 94.8935 153.601 94.8953C154.31 95.0053 155.119 94.2954 156.434 94.1073C156.614 94.0805 156.789 94.0994 156.956 94.1575ZM157.034 93.9223C156.82 93.8481 156.605 93.8258 156.398 93.8585C155.735 93.9533 155.183 94.1812 154.74 94.3628C154.29 94.5476 153.931 94.6953 153.635 94.6503C153.501 94.6035 153.303 94.2936 153.108 93.99C152.676 93.3101 152.082 92.3804 150.973 91.9948C150.569 91.8545 150.126 91.8003 149.65 91.8291C147.752 91.9508 147.017 93.1849 146.573 93.9169C146.433 94.1515 146.239 94.4721 146.151 94.4572C146.097 94.4489 146.035 94.4326 145.961 94.4068C145.789 94.3471 145.578 94.2478 145.349 94.142C145.058 94.0042 144.727 93.8472 144.379 93.7262C143.701 93.4907 143.123 93.4526 142.611 93.6101C141.241 94.0257 139.913 95.6461 139.855 95.7101C139.795 95.7834 139.782 95.884 139.821 95.9708C139.852 96.0339 139.903 96.0831 139.963 96.1041C139.986 96.1122 140.011 96.1155 140.036 96.1189L158.738 96.5331C158.82 96.5354 158.901 96.4953 158.944 96.4265C158.988 96.3577 158.997 96.2666 158.965 96.1924C158.945 96.112 158.176 94.3191 157.034 93.9223Z" fill="white"/>
<defs>
<linearGradient id="paint0_linear" x1="38.9232" y1="35.7365" x2="129.791" y2="146.607" gradientUnits="userSpaceOnUse">
<stop offset="0.00189678" stop-color="#F4F2F7"/>
<stop offset="1" stop-color="#B6A8FB"/>
</linearGradient>
<linearGradient id="paint1_linear" x1="177.069" y1="14.5434" x2="237.205" y2="87.9175" gradientUnits="userSpaceOnUse">
<stop offset="0.00189678" stop-color="#F4F2F7"/>
<stop offset="1" stop-color="#B6A8FB"/>
</linearGradient>
<linearGradient id="paint2_linear" x1="129.461" y1="14.1495" x2="142.876" y2="3.22721" gradientUnits="userSpaceOnUse">
<stop offset="0.00189678" stop-color="#F4F2F7"/>
<stop offset="1" stop-color="#B6A8FB"/>
</linearGradient>
<linearGradient id="paint3_linear" x1="220.408" y1="113.691" x2="233.822" y2="102.769" gradientUnits="userSpaceOnUse">
<stop offset="0.00189678" stop-color="#F4F2F7"/>
<stop offset="1" stop-color="#B6A8FB"/>
</linearGradient>
<linearGradient id="paint4_linear" x1="6.38745" y1="143.485" x2="17.3161" y2="134.587" gradientUnits="userSpaceOnUse">
<stop offset="0.00189678" stop-color="#F4F2F7"/>
<stop offset="1" stop-color="#B6A8FB"/>
</linearGradient>
<linearGradient id="paint5_linear" x1="169.207" y1="207.251" x2="194.845" y2="207.251" gradientUnits="userSpaceOnUse">
<stop stop-color="#D3B25A" stop-opacity="0"/>
<stop offset="0.0414" stop-color="#D3B25A" stop-opacity="0.0415"/>
<stop offset="0.997" stop-color="#D3B25A"/>
</linearGradient>
<linearGradient id="paint6_linear" x1="218.586" y1="207.384" x2="194.075" y2="207.384" gradientUnits="userSpaceOnUse">
<stop stop-color="#D3B25A" stop-opacity="0"/>
<stop offset="0.0414" stop-color="#D3B25A" stop-opacity="0.0415"/>
<stop offset="0.997" stop-color="#D3B25A"/>
</linearGradient>
</defs>
</svg>
