<svg width="360" height="192" viewBox="0 0 360 192" fill="none" xmlns="http://www.w3.org/2000/svg">
<path d="M343.303 161.428C338.934 137.828 318.443 116.7 294.373 116.236C285.433 116.063 275.998 118.492 267.837 114.851C261.8 112.158 257.609 106.592 252.236 102.749C244.037 96.8878 233.366 95.3229 223.332 96.3859C213.299 97.4488 203.7 100.912 194.218 104.346C179.63 87.2878 156.808 77.5668 134.357 78.8472C111.907 80.129 90.3474 92.3825 77.808 110.989C52.8557 110.679 29.1661 130.354 24.9665 154.874C22.8118 167.454 25.9321 180.522 32.6659 191.347H340.625C344.012 181.502 345.031 170.764 343.303 161.428Z" fill="#F6F5F5"/>
<path d="M315.409 191.589L315.128 191.105C320.77 187.862 325.94 182.98 330.494 176.593C334.807 170.544 338.397 163.283 340.876 155.597C345.807 140.305 347.545 124.002 349.2 108.218C336.028 112.228 323.631 122.752 315.132 137.157C306.538 151.725 302.043 170.071 302.798 187.494L302.239 187.519C301.48 169.992 306.004 151.533 314.651 136.875C323.307 122.203 335.988 111.519 349.444 107.563L349.846 107.445L349.802 107.859C348.13 123.801 346.401 140.287 341.409 155.768C338.914 163.508 335.296 170.822 330.951 176.916C326.351 183.37 321.121 188.306 315.409 191.589Z" fill="#DADADA"/>
<path d="M304.102 188.396L303.544 188.349C304.052 182.478 305.89 176.58 309.167 170.316C312.328 164.27 316.404 158.748 319.603 154.614C320.383 153.606 321.183 152.58 321.958 151.59C328.728 142.925 335.73 133.965 339.008 123.041L339.545 123.2C336.237 134.225 329.203 143.226 322.401 151.932C321.626 152.923 320.826 153.947 320.047 154.953C316.864 159.07 312.806 164.566 309.664 170.573C306.422 176.771 304.603 182.6 304.102 188.396Z" fill="#DADADA"/>
<path d="M318.911 159.562C318.137 159.562 317.367 159.512 316.607 159.41L316.682 158.857C320.03 159.306 323.568 158.727 326.911 157.182C330.263 155.635 333.254 153.198 335.564 150.132L336.012 150.466C333.648 153.606 330.582 156.104 327.148 157.688C324.462 158.927 321.656 159.562 318.911 159.562Z" fill="#DADADA"/>
<path d="M324.427 148.56C322.594 142.132 323.852 134.407 327.63 128.878L328.093 129.192C324.403 134.59 323.175 142.133 324.965 148.407L324.427 148.56Z" fill="#DADADA"/>
<path d="M334.546 191.658L334.349 191.136C340.696 188.746 346.416 183.861 350.454 177.382C353.88 171.883 356.2 165.171 357.35 157.428C350.31 157.743 343.271 160.569 337.988 165.213L337.617 164.795C343.08 159.994 350.388 157.101 357.666 156.858L358.001 156.846L357.953 157.176C356.809 165.136 354.445 172.034 350.929 177.677C346.827 184.26 341.009 189.225 334.546 191.658Z" fill="#DADADA"/>
<path d="M317.523 190.18L317.286 189.674C329.943 183.744 341.653 175.202 351.152 164.971L351.563 165.351C342.016 175.634 330.246 184.22 317.523 190.18Z" fill="#DADADA"/>
<path d="M268.632 192C263.725 190.163 259.253 186.735 255.702 182.086C252.433 177.807 249.993 172.607 248.646 167.046C245.98 156.045 247.243 144.31 248.635 134.174L248.697 133.721L249.072 133.984C258.012 140.229 267.257 146.685 273.963 155.593C281.43 165.512 284.083 177.174 281.058 186.788L280.523 186.621C283.494 177.178 280.873 165.704 273.515 155.928C266.956 147.215 257.914 140.842 249.126 134.703C247.767 144.683 246.587 156.171 249.19 166.915C250.518 172.401 252.925 177.529 256.147 181.747C259.635 186.313 264.019 189.677 268.828 191.476L268.632 192Z" fill="#DADADA"/>
<path d="M254.76 144.295L254.258 144.542L275.853 188.119L276.355 187.872L254.76 144.295Z" fill="#DADADA"/>
<path d="M265.996 169.356C263.14 169.356 260.266 168.6 257.661 167.163C254.942 165.664 252.701 163.522 251.178 160.973L251.659 160.688C253.131 163.152 255.3 165.222 257.932 166.674C260.564 168.126 263.478 168.857 266.353 168.792L266.366 169.351C266.241 169.355 266.118 169.356 265.996 169.356Z" fill="#DADADA"/>
<path d="M55.9995 191.203C49.622 189.897 43.6602 186.735 38.2806 181.805C33.442 177.371 29.294 171.643 26.2834 165.241C20.4507 152.836 18.673 139.1 16.9534 125.815L16.894 125.356L17.3291 125.518C33.9325 131.71 45.5347 138.836 53.8435 147.942C64.4632 159.579 68.9559 174.854 65.5709 187.805L65.0287 187.664C68.3672 174.894 63.9223 159.817 53.4291 148.317C45.2545 139.359 33.8525 132.327 17.5679 126.204C19.2643 139.302 21.0614 152.82 26.7908 165.004C29.7704 171.341 33.8745 177.009 38.6602 181.395C43.9636 186.255 49.835 189.371 56.1131 190.656L55.9995 191.203Z" fill="#DADADA"/>
<path d="M61.8114 187.947C57.2465 179.057 51.7933 170.53 45.6017 162.603C39.4101 154.676 32.4543 147.315 24.9265 140.723L25.2957 140.304C32.8493 146.918 39.8297 154.305 46.0433 162.259C52.2568 170.213 57.7293 178.771 62.3097 187.693L61.8114 187.947Z" fill="#DADADA"/>
<path d="M42.0876 159.505C36.7338 157.64 31.4318 155.443 26.3311 152.972L26.5763 152.47C31.6577 154.93 36.9391 157.121 42.2735 158.979L42.0876 159.505Z" fill="#DADADA"/>
<path d="M51.998 156.299L50.7463 168.701L51.3038 168.757L52.5555 156.355L51.998 156.299Z" fill="#DADADA"/>
<path d="M33.309 191.053C30.0261 191.053 26.6462 190.08 23.4807 188.217C20.341 186.369 17.4892 183.715 15.2352 180.543C13.4355 178.012 11.4861 173.468 9.43863 167.039C7.91784 162.261 6.90828 158.168 6.89925 158.128L6.79468 157.7L7.22845 157.789C7.81069 157.907 21.5494 160.754 26.4655 165.15L26.0911 165.565C24.1107 163.795 20.2068 161.984 14.8001 160.329C11.5378 159.33 8.62659 158.664 7.55378 158.43C8.2238 161.052 11.8657 174.836 15.6935 180.221C17.9024 183.329 20.6948 185.929 23.7673 187.737C27.1071 189.703 30.6858 190.649 34.1159 190.475L34.1443 191.032C33.8655 191.045 33.5879 191.053 33.309 191.053Z" fill="#DADADA"/>
<path d="M31.4745 184.043C25.9478 176.381 19.5535 169.323 12.4673 163.065L12.8391 162.646C19.9563 168.933 26.379 176.021 31.929 183.716L31.4745 184.043Z" fill="#DADADA"/>
<path d="M102.176 191.838L101.81 191.414C108.951 185.286 114.049 176.87 116.168 167.718C118.269 158.637 117.413 148.927 113.76 140.349C108.99 141.188 104.361 143.576 100.362 147.267C96.6193 150.721 93.5209 155.185 91.4024 160.177C87.4003 169.606 86.6361 180.171 86.1532 191.071L85.5942 191.046C86.0797 180.092 86.8491 169.473 90.8873 159.959C93.0368 154.894 96.1817 150.365 99.9823 146.857C104.123 143.036 108.93 140.582 113.885 139.761L114.102 139.725L114.188 139.926C117.961 148.661 118.858 158.575 116.714 167.843C114.568 177.111 109.405 185.632 102.176 191.838Z" fill="#DADADA"/>
<path d="M93.4231 189.864L92.8899 189.692C96.8274 177.514 102.348 165.884 109.301 155.127L109.772 155.43C102.846 166.145 97.3451 177.73 93.4231 189.864Z" fill="#DADADA"/>
<path d="M101.68 168.98L101.361 168.521C104.889 166.084 108.992 164.417 113.224 163.703L113.318 164.254C109.165 164.955 105.141 166.589 101.68 168.98Z" fill="#DADADA"/>
<path d="M231.726 174.321C230.413 174.321 229.346 173.257 229.346 171.948C229.346 170.639 230.413 169.575 231.726 169.575C233.039 169.575 234.107 170.639 234.107 171.948C234.107 173.257 233.038 174.321 231.726 174.321ZM231.726 170.133C230.723 170.133 229.906 170.948 229.906 171.948C229.906 172.948 230.723 173.762 231.726 173.762C232.729 173.762 233.547 172.948 233.547 171.948C233.547 170.948 232.729 170.133 231.726 170.133Z" fill="#DADADA"/>
<path d="M325.536 106.211C324.223 106.211 323.156 105.147 323.156 103.838C323.156 102.529 324.223 101.465 325.536 101.465C326.849 101.465 327.917 102.529 327.917 103.838C327.917 105.147 326.849 106.211 325.536 106.211ZM325.536 102.024C324.533 102.024 323.716 102.838 323.716 103.838C323.716 104.838 324.533 105.653 325.536 105.653C326.539 105.653 327.357 104.838 327.357 103.838C327.357 102.838 326.541 102.024 325.536 102.024Z" fill="#DADADA"/>
<path d="M356.901 143.756C358.061 143.756 359.001 142.818 359.001 141.662C359.001 140.505 358.061 139.568 356.901 139.568C355.741 139.568 354.8 140.505 354.8 141.662C354.8 142.818 355.741 143.756 356.901 143.756Z" fill="#DADADA"/>
<path d="M20.4427 104.676C21.6028 104.676 22.5432 103.738 22.5432 102.582C22.5432 101.426 21.6028 100.488 20.4427 100.488C19.2827 100.488 18.3423 101.426 18.3423 102.582C18.3423 103.738 19.2827 104.676 20.4427 104.676Z" fill="#DADADA"/>
<path d="M2.38059 141.382C1.06765 141.382 0 140.318 0 139.009C0 137.701 1.06765 136.636 2.38059 136.636C3.69352 136.636 4.76117 137.701 4.76117 139.009C4.76117 140.318 3.69223 141.382 2.38059 141.382ZM2.38059 137.195C1.37749 137.195 0.56029 138.009 0.56029 139.009C0.56029 140.009 1.3762 140.824 2.38059 140.824C3.38498 140.824 4.20088 140.009 4.20088 139.009C4.20088 138.009 3.38369 137.195 2.38059 137.195Z" fill="#DADADA"/>
<path d="M131.895 168.877C130.582 168.877 129.515 167.813 129.515 166.504C129.515 165.195 130.582 164.131 131.895 164.131C133.208 164.131 134.276 165.195 134.276 166.504C134.275 167.813 133.207 168.877 131.895 168.877ZM131.895 164.69C130.892 164.69 130.075 165.504 130.075 166.504C130.075 167.504 130.891 168.319 131.895 168.319C132.898 168.319 133.716 167.504 133.716 166.504C133.716 165.504 132.898 164.69 131.895 164.69Z" fill="#DADADA"/>
<path d="M202.748 136.638H154.022V191.349H202.748V136.638Z" fill="#D3DFFF"/>
<path d="M203.167 191.767H153.601V136.218H203.167V191.767ZM154.442 190.929H202.327V137.056H154.442V190.929Z" fill="#86A7FF"/>
<path opacity="0.2" d="M202.748 136.638H154.022V159.953H202.748V136.638Z" fill="#1F3C88"/>
<path d="M187.556 163.74C192.623 158.689 192.623 150.5 187.556 145.45C182.489 140.399 174.274 140.399 169.207 145.45C164.141 150.5 164.141 158.689 169.207 163.74C174.274 168.79 182.489 168.79 187.556 163.74Z" fill="white"/>
<path d="M278.995 151.56H77.7734C75.3967 151.56 73.4692 149.639 73.4692 147.27V4.70861C73.4692 2.3395 75.3954 0.418213 77.7734 0.418213H278.995C281.372 0.418213 283.299 2.3395 283.299 4.70861V147.27C283.299 149.639 281.372 151.56 278.995 151.56Z" fill="#D3DFFF"/>
<path d="M278.631 151.979H78.1374C75.332 151.979 73.0496 149.703 73.0496 146.907V5.07153C73.0496 2.27517 75.332 0 78.1374 0H278.631C281.436 0 283.719 2.27517 283.719 5.07153V146.908C283.719 149.703 281.436 151.979 278.631 151.979ZM78.1374 0.837748C75.7955 0.837748 73.89 2.73716 73.89 5.07153V146.908C73.89 149.243 75.7955 151.142 78.1374 151.142H278.631C280.973 151.142 282.878 149.243 282.878 146.908V5.07153C282.878 2.73716 280.973 0.837748 278.631 0.837748H78.1374Z" fill="#86A7FF"/>
<path d="M279.49 5.74841H77.2791V129.868H279.49V5.74841Z" fill="white"/>
<path d="M279.91 130.287H76.8594V5.3302H279.91V130.287ZM77.6985 129.449H279.069V6.16666H77.6985V129.449Z" fill="#86A7FF"/>
<path d="M199.462 16.6107H153.725V21.9396H199.462V16.6107Z" fill="#D3DFFF"/>
<path d="M235.889 27.1436H117.296V29.1369H235.889V27.1436Z" fill="#D3DFFF"/>
<path d="M258.703 86.7913H212.946V88.7846H258.703V86.7913Z" fill="#86A7FF"/>
<path d="M252.346 91.7446H212.946V93.738H252.346V91.7446Z" fill="#86A7FF"/>
<path d="M237.798 96.6975H212.946V98.6909H237.798V96.6975Z" fill="#86A7FF"/>
<path d="M253.192 105.916H212.946V107.91H253.192V105.916Z" fill="#D3DFFF"/>
<path d="M247.602 110.87H212.946V112.863H247.602V110.87Z" fill="#D3DFFF"/>
<path d="M114.043 81.9037H94.6218V112.249H114.043V81.9037Z" fill="#D3DFFF"/>
<path d="M140.806 81.8562H118.974V91.8796H140.806V81.8562Z" fill="#86A7FF"/>
<path d="M140.806 96.7644H118.974V112.29H140.806V96.7644Z" fill="#D3DFFF"/>
<path d="M196.805 112.509H156.38C154.658 112.509 153.257 111.113 153.257 109.396V89.1565C153.257 87.4398 154.658 86.0436 156.38 86.0436H196.805C198.527 86.0436 199.928 87.4398 199.928 89.1565V109.396C199.928 111.113 198.527 112.509 196.805 112.509ZM156.38 86.5313C154.928 86.5313 153.745 87.7101 153.745 89.1578V109.396C153.745 110.844 154.927 112.023 156.38 112.023H196.805C198.257 112.023 199.44 110.844 199.44 109.396V89.1565C199.44 87.7088 198.257 86.53 196.805 86.53H156.38V86.5313Z" fill="#86A7FF"/>
<path d="M158.115 106.898L157.678 106.68L160.439 101.174L163.853 104.738L167.917 95.9884L173.367 101.092L179.362 95.1146L185.224 98.6844L192.744 90.8693L193.096 91.2064L185.304 99.3046L179.436 95.7297L173.377 101.77L168.075 96.8056L163.995 105.592L160.566 102.012L158.115 106.898Z" fill="#3A6BEA"/>
<path d="M183.309 105.774H178.667V108.21H183.309V105.774Z" fill="#86A7FF"/>
<path d="M194.427 106.749H186.364V107.237H194.427V106.749Z" fill="#3A6BEA"/>
<path d="M194.817 53.486C193.178 47.3966 188.551 42.5309 182.597 40.5402L176.594 58.3735L194.817 53.486Z" fill="#D3DFFF"/>
<path d="M176.593 58.3735L168.241 75.2417C170.759 76.4835 173.593 77.1849 176.593 77.1849C187.016 77.1849 195.465 68.7623 195.465 58.3735C195.465 56.6825 195.238 55.0444 194.818 53.486L176.593 58.3735Z" fill="#86A7FF"/>
<path d="M182.596 40.5414C180.71 39.9108 178.693 39.5634 176.593 39.5634C166.171 39.5634 157.722 47.9859 157.722 58.3747C157.722 65.7729 162.009 72.1712 168.239 75.2429L176.592 58.3747L182.596 40.5414Z" fill="#3A6BEA"/>
<path d="M131.005 71.5828H104.423V73.5761H131.005V71.5828Z" fill="#D3DFFF"/>
<path d="M141.05 67.2192H94.3779V40.3237H141.05V67.2192ZM94.8659 66.7315H140.561V40.8115H94.8659V66.7315Z" fill="#86A7FF"/>
<path d="M137.63 46.1956C136.081 45.8855 134.547 46.8918 133.567 48.1311C133.103 48.7179 132.721 49.3626 132.344 50.0112C131.925 50.7318 131.513 51.4563 131.009 52.1165C130.048 53.3712 128.557 54.42 126.996 54.1832C124.463 53.7984 123.078 50.3329 120.517 50.3779C119.32 50.3985 118.295 51.2234 117.48 52.0998C116.664 52.9761 115.921 53.9709 114.861 54.5242C113.378 55.2976 111.547 55.0467 110.009 54.3891C108.472 53.7302 107.124 52.7059 105.661 51.8926C103.212 50.5298 100.43 49.8104 97.6301 49.7371V62.894H137.799V50.791V46.2407C137.742 46.2239 137.688 46.2072 137.63 46.1956Z" fill="#D3DFFF"/>
<path d="M110.008 54.389C111.546 55.0478 113.376 55.2975 114.86 54.5241C115.921 53.9707 116.664 52.976 117.479 52.0996C118.294 51.2233 119.319 50.3984 120.515 50.3778C123.077 50.3328 124.462 53.7983 126.995 54.1831C128.557 54.4198 130.047 53.3711 131.007 52.1164C131.512 51.4562 131.924 50.7304 132.342 50.0111C130.785 50.0818 129.23 50.159 127.882 49.4423C126.541 48.7293 125.661 47.3383 124.324 46.6176C121.924 45.323 118.988 46.5584 116.597 47.8684C115.168 48.6521 113.574 49.4925 111.991 49.1064C110.2 48.6689 109.151 46.8505 107.66 45.767C104.804 43.6913 100.517 44.6989 98.0754 47.2495C98.0741 47.2507 98.0728 47.2533 98.0703 47.2546C97.7785 47.5609 97.6274 47.9534 97.6274 48.3536V49.7357C100.426 49.809 103.21 50.5284 105.659 51.8912C107.121 52.7045 108.47 53.7301 110.008 54.389Z" fill="#86A7FF"/>
<path d="M258.935 77.9887H212.192V40.2875H258.935V77.9887ZM212.751 77.4315H258.374V40.846H212.751V77.4315Z" fill="#86A7FF"/>
<path d="M224.813 55.9934H219.926V72.3945H224.813V55.9934Z" fill="#86A7FF"/>
<path d="M224.813 47.7125H219.926V55.9935H224.813V47.7125Z" fill="#D3DFFF"/>
<path d="M233.609 47.7125H228.721V60.0124H233.609V47.7125Z" fill="#D3DFFF"/>
<path d="M233.609 60.0123H228.721V72.3946H233.609V60.0123Z" fill="#86A7FF"/>
<path d="M242.406 53.1316H237.518V72.3946H242.406V53.1316Z" fill="#86A7FF"/>
<path d="M242.406 47.7125H237.518V53.1315H242.406V47.7125Z" fill="#D3DFFF"/>
<path d="M251.202 60.3171H246.315V72.3943H251.202V60.3171Z" fill="#86A7FF"/>
<path d="M251.202 47.7125H246.315V60.3174H251.202V47.7125Z" fill="#D3DFFF"/>
<path d="M298.607 174.321L298.42 184.927L295.993 191.347H309.155L308.409 174.042L298.607 174.321Z" fill="#102048"/>
<path d="M279.239 175.437V184.23L268.877 191.347H289.74L288.48 174.46L279.239 175.437Z" fill="#102048"/>
<path d="M279.581 183.787L278.902 184.676L282.029 187.048L282.707 186.159L279.581 183.787Z" fill="white"/>
<path d="M296.738 89.1832L296.682 89.3956L294.823 96.7036L290.768 112.631C290.203 115.171 289.777 117.912 289.463 120.782C287.487 138.909 290.04 162.078 291.367 172.07C291.715 174.694 289.665 177.017 287.01 177.017H279.634C277.937 177.017 276.391 176.04 275.657 174.515C266.254 154.887 267.782 125.572 269.67 118.398C272.655 107.047 274.71 90.1149 274.71 90.1149L280.978 89.8472L296.738 89.1832Z" fill="#3A6BEA"/>
<path d="M310.858 171.892C310.796 174.416 308.729 176.431 306.199 176.431H299.88C297.545 176.431 295.568 174.706 295.265 172.394C294.061 163.238 291.126 140.171 289.463 120.782C288.596 110.611 288.079 101.455 288.349 95.8491C288.445 93.7219 288.658 92.1082 289.01 91.1431L296.683 89.3955L304.496 87.6196C304.496 87.6196 306.433 89.6799 308.215 100.649C310.068 112.096 311.742 133.248 310.858 171.892Z" fill="#3A6BEA"/>
<path d="M288.667 136.278C288.321 129.129 288.54 123.033 289.341 117.643C289.597 115.909 290.515 114.339 291.924 113.223L297.173 109.064L297.521 109.501L292.272 113.661C290.975 114.687 290.131 116.131 289.894 117.726C289.1 123.079 288.881 129.14 289.226 136.253L288.667 136.278Z" fill="#102048"/>
<path d="M272.926 138.588L272.857 138.035C276.374 137.6 279.388 137.538 282.071 137.848L282.006 138.403C279.368 138.098 276.397 138.16 272.926 138.588Z" fill="#102048"/>
<path d="M298.128 137.286L298.06 136.733C301.577 136.298 304.591 136.236 307.274 136.546L307.209 137.101C304.571 136.796 301.6 136.856 298.128 137.286Z" fill="#102048"/>
<path d="M282.663 170.384C277.874 170.384 274.325 169.533 274.271 169.52L274.405 168.979C274.486 168.998 282.638 170.949 290.877 168.869L291.015 169.41C288.106 170.143 285.209 170.384 282.663 170.384Z" fill="#102048"/>
<path d="M302.395 170.417C301.638 170.417 300.922 170.395 300.27 170.36C297.173 170.198 294.814 169.745 294.791 169.74L294.898 169.192C294.99 169.21 304.205 170.959 310.338 168.698L310.532 169.221C307.991 170.158 304.963 170.417 302.395 170.417Z" fill="#102048"/>
<path d="M308.214 100.65C304.646 98.7522 299.723 97.5129 294.822 96.7034C292.621 96.3354 290.42 96.0613 288.348 95.849C281.79 95.1849 276.53 95.1849 276.53 95.1849L280.977 89.8483L296.738 89.1843L296.682 89.3966L304.495 87.6207C304.495 87.6207 306.433 89.681 308.214 100.65Z" fill="#1F3C88"/>
<path d="M287.071 47.1687H280.592V57.9488H287.071V47.1687Z" fill="#E28B6D"/>
<path d="M283.627 51.6509C283.627 51.6509 282.971 54.0007 280.592 55.6092V50.9032L283.627 51.6509Z" fill="#102048"/>
<path d="M277.251 41.6674L276.795 46.2048C276.795 46.2048 274.675 49.0411 275.998 49.0411C277.421 49.0411 277.194 49.6086 277.194 49.6086C277.194 49.6086 276.397 55.5076 283.624 51.6508L285.161 42.8024L277.251 41.6674Z" fill="#E28B6D"/>
<path d="M277.25 41.6671C277.25 41.6671 279.214 41.4123 279.725 43.4815C280.238 45.5521 280.921 46.8274 282.656 45.3822L284.563 42.2629L281.291 40.9014L277.25 41.6671Z" fill="#102048"/>
<path d="M277.25 41.6672C277.25 40.1925 279.005 36.6755 284.534 37.6123C289.818 38.5067 290.651 45.8933 287.92 49.2687C287.92 49.2687 286.526 51.4526 284.649 47.4543L281.435 43.1433L280.752 41.7818L277.25 41.6672Z" fill="#102048"/>
<path d="M284.938 47.1828C284.415 48.0849 283.353 48.4478 282.563 47.9935C281.774 47.5392 281.557 46.4403 282.08 45.5382C282.603 44.6361 283.665 44.2732 284.455 44.7274C285.244 45.1817 285.461 46.2807 284.938 47.1828Z" fill="#E28B6D"/>
<path d="M297.207 55.5947C309.621 59.5956 319.422 76.3442 307.941 76.6234C296.461 76.9027 289.459 66.295 289.459 66.295L297.207 55.5947Z" fill="#E49B31"/>
<path d="M242.273 68.3694C242.273 68.3694 236.139 65.7056 235.931 66.2988C235.723 66.8934 237.172 67.6307 237.172 67.6307C237.172 67.6307 233.227 67.071 232.897 67.6591C232.569 68.2472 234.226 68.3913 234.226 68.3913C234.226 68.3913 232.536 68.2986 232.362 68.8417C232.187 69.3847 233.535 69.6177 233.535 69.6177C233.535 69.6177 232.164 69.516 232.076 70.117C231.99 70.7179 233.052 70.9084 233.052 70.9084C233.052 70.9084 232.198 70.7823 232.405 71.5042C232.613 72.2262 240.732 73.6932 240.732 73.6932L243.565 70.9084L242.273 68.3694Z" fill="#E28B6D"/>
<path d="M303.582 92.9461L275.864 95.9612C273.529 96.2121 271.507 94.3539 271.579 92.0092L271.927 80.6089L272.089 75.3559L272.094 75.2272C272.094 75.2272 271.893 75.4679 271.489 75.8411C271.489 75.8462 271.484 75.8462 271.477 75.8526C271.214 76.0933 270.867 76.388 270.435 76.7123C266.756 79.4816 256.943 84.2379 240.73 73.692L242.27 68.3721L259.772 69.0863C259.772 69.0863 267.618 62.7665 274.586 58.4285C279.139 55.5922 284.409 54.0235 289.774 54.1638C292.199 54.2256 294.804 54.6104 297.207 55.5935C303.116 58.027 306.045 79.7557 307.008 88.7046C307.239 90.8202 305.705 92.7183 303.582 92.9461Z" fill="#FBC343"/>
<path d="M257.842 74.221C257.335 70.7542 259.506 68.9449 259.599 68.8702L259.954 69.3026C259.949 69.3065 259.44 69.7299 258.997 70.5354C258.406 71.61 258.205 72.8235 258.397 74.1412L257.842 74.221Z" fill="#E49B31"/>
<path d="M274.571 73.2722C274.571 73.2722 274.398 77.7724 271.927 80.6073L272.089 75.3544C273.014 74.6067 274.072 73.7303 274.571 73.2722Z" fill="#E49B31"/>
<path d="M266.365 79.2693L266.255 78.7223C270.309 77.9142 275.767 71.144 275.823 71.0758L276.261 71.4245C276.246 71.4426 274.844 73.1876 272.945 75.011C270.375 77.478 268.161 78.9115 266.365 79.2693Z" fill="#E49B31"/>
<path d="M355.5 190.93H5.46118V191.767H355.5V190.93Z" fill="#D3D3D3"/>
</svg>
